g Arrow
v 1.9008341E-05 0.000745988626 -0.00746126613
v 1.90082665E-05 -0.00074598653 -0.00746126613
v 0.00999366399 -0.000745994214 0.00248708669
v 0.00999366399 0.000745981 0.00248708669
v -6.33540367E-06 0.000745987345 0.00248708902
v 0.00999366399 0.000745981 0.00248708669
v 0.00999366399 -0.000745994214 0.00248708669
v -6.33547825E-06 -0.000745987229 0.00248708855
v -0.0100063365 0.000745992875 0.00248709088
v -0.0100063365 -0.000745981699 0.00248709042
v -6.33547825E-06 -0.000745987229 0.00248708855
v 0.00999366399 -0.000745994214 0.00248708669
v 1.90082665E-05 -0.00074598653 -0.00746126613
v -0.0100063365 -0.000745981699 0.00248709042
v -6.33540367E-06 0.000745987345 0.00248708902
v -0.0100063365 0.000745992875 0.00248709088
v 1.9008341E-05 0.000745988626 -0.00746126613
v 0.00999366399 0.000745981 0.00248708669
v -0.0100063365 0.000745992875 0.00248709088
v -0.0100063365 -0.000745981699 0.00248709042
v 1.90082665E-05 -0.00074598653 -0.00746126613
v 1.9008341E-05 0.000745988626 -0.00746126613
vn 0.706054688 -2.38418579E-07 -0.708007812
vn 0.706054688 -2.38418579E-07 -0.708007812
vn 0.706054688 -2.38418579E-07 -0.708007812
vn 0.706054688 -2.38418579E-07 -0.708007812
vn 1.78813934E-07 -2.38418579E-07 1
vn 1.78813934E-07 -2.38418579E-07 1
vn 1.78813934E-07 -2.38418579E-07 1
vn 1.78813934E-07 -2.38418579E-07 1
vn 1.78813934E-07 -2.38418579E-07 1
vn 1.78813934E-07 -2.38418579E-07 1
vn -6.55651093E-07 -1 -5.96046448E-08
vn -6.55651093E-07 -1 -5.96046448E-08
vn -6.55651093E-07 -1 -5.96046448E-08
vn -6.55651093E-07 -1 -5.96046448E-08
vn 5.96046448E-07 1 1.1920929E-07
vn 5.96046448E-07 1 1.1920929E-07
vn 5.96046448E-07 1 1.1920929E-07
vn 5.96046448E-07 1 1.1920929E-07
vn -0.704589844 0 -0.709960938
vn -0.704589844 0 -0.709960938
vn -0.704589844 0 -0.709960938
vn -0.704589844 0 -0.709960938
g Arrow_0
f 3/3/3 2/2/2 1/1/1
f 4/4/4 3/3/3 1/1/1
f 7/7/7 6/6/6 5/5/5
f 5/5/5 8/8/8 7/7/7
f 5/5/5 9/9/9 8/8/8
f 9/9/9 10/10/10 8/8/8
f 13/13/13 12/12/12 11/11/11
f 14/14/14 13/13/13 11/11/11
f 17/17/17 16/16/16 15/15/15
f 18/18/18 17/17/17 15/15/15
f 21/21/21 20/20/20 19/19/19
f 22/22/22 21/21/21 19/19/19
