g glass
v -1.89582205 -2.59137535 6.68871641
v -3.15631723 4.18728924 3.78940845
v -1.89582205 3.87612224 6.68871641
v -3.15631723 -2.89991426 3.78940845
v -1.73535442 -2.77495408 6.68162346
v 1.10291791 -3.05685878 4.00771236
v -2.91905046 -3.05638289 4.01222181
v 1.1056962 -2.77495456 6.68162346
v 7.14423656 3.91859412 6.72716665
v 7.14423704 0.992871642 4.08419371
v 7.14423656 0.992871642 6.72716713
v 7.14423704 4.18768024 4.08419371
v 1.82826662 -2.76686215 6.69080973
v 5.4074297 -3.04788303 4.02527428
v 1.8249408 -3.04809499 4.02326965
v 5.40428877 -2.76686215 6.6908102
v 5.40408802 4.37975883 4.02442455
v 1.82826471 4.09767866 6.69999647
v 1.82854271 4.37977409 4.02427626
v 5.4042902 4.09767914 6.69999647
v 1.10459113 4.3555665 4.02223969
v -1.73535371 4.07325602 6.69999695
v -2.91748643 4.35639572 4.0143671
v 1.10569358 4.07325602 6.69999695
v 7.14423847 -2.63384676 6.72716713
v 7.1442399 0.291874886 4.08419323
v 7.1442399 -2.90293264 4.08419371
v 7.14423847 0.291874886 6.72716713
vt 0.5 0
vt 0 0.95046854
vt 0.5 1
vt 0 0.0498654842
vt 0.5 1
vt 0.512944937 0.762553036
vt 0.0147870323 0.993154943
vt 0.731331885 1
vt 1 1
vt 0.5 0.511486411
vt 0.5 1
vt 1 0.485882044
vt 0.731331885 1
vt 0.851636946 0.605769455
vt 0.539016426 0.750484347
vt 0.919877589 1
vt 0.131678969 0.553580582
vt 0.295019448 1
vt 0.526680171 0.756657839
vt 0.0653113425 1
vt 0.555379152 0.771412492
vt 0.5 1
vt 0.990324199 0.995025516
vt 0.295019448 1
vt 0 1
vt 0.5 0.511486411
vt 0 0.537090838
vt 0.5 1
vn -0.917078495 0 0.398706555
vn -0.917078614 0 0.398706585
vn -0.917078614 0 0.398706585
vn -0.917078495 0 0.398706555
vn -0 -0.994488358 0.104846634
vn -0 -0.994488358 0.104846612
vn -0 -0.994488358 0.104846641
vn -0 -0.994488358 0.104846582
vn 1 0 0
vn 1 0 0
vn 1 0 0
vn 1 0 0
vn -0 -0.994488358 0.104846597
vn -0 -0.994488358 0.104846545
vn -0 -0.994488358 0.104846708
vn -0 -0.994488358 0.104846455
vn -0 0.994488358 0.104846761
vn -0 0.994488358 0.104846761
vn -0 0.994488358 0.104846776
vn -0 0.994488358 0.104846738
vn -0 0.994488358 0.10484679
vn -0 0.994488358 0.104846761
vn -0 0.994488358 0.104846686
vn -0 0.994488358 0.104846895
vn 1 0 0
vn 1 0 0
vn 1 0 0
vn 1 0 0
g glass_0
f 3/3/3 2/2/2 1/1/1
f 4/4/4 1/1/1 2/2/2
f 7/7/7 6/6/6 5/5/5
f 8/8/8 5/5/5 6/6/6
f 11/11/11 10/10/10 9/9/9
f 12/12/12 9/9/9 10/10/10
f 15/15/15 14/14/14 13/13/13
f 16/16/16 13/13/13 14/14/14
f 19/19/19 18/18/18 17/17/17
f 20/20/20 17/17/17 18/18/18
f 23/23/23 22/22/22 21/21/21
f 24/24/24 21/21/21 22/22/22
f 27/27/27 26/26/26 25/25/25
f 28/28/28 25/25/25 26/26/26
