g LaserBolt
v -0.259466439 0 2.80081415
v -0.136703238 0.0996204913 2.80081415
v -0 0.0809414685 3.51037741
v -0 0.0809414685 3.51037741
v 0.136703238 0.0996204913 2.80081415
v 0.259466439 0 2.80081415
v -0.259466439 0 2.80081415
v -0 0.0809414685 3.51037741
v -0 0.0549288914 -0.153948367
v 0.259466439 0 2.80081415
v -0.136703238 0.0996204913 2.80081415
v -0 0.106954187 -0.153948337
v -0 0.0809414685 3.51037741
v 0.136703238 0.0996204913 2.80081415
v 0.259466439 0 2.80081415
v 0.136703238 0.0996204913 2.80081415
v -0 0.106954187 -0.153948337
v -0 0.0549288914 -0.153948367
v -0 0.0549288914 -0.153948367
v -0 0.106954187 -0.153948337
v -0.136703238 0.0996204913 2.80081415
v -0.259466439 0 2.80081415
g LaserBolt_0
f 3/3/3 2/2/2 1/1/1
f 6/6/6 5/5/5 4/4/4
f 9/9/9 8/8/8 7/7/7
f 10/10/10 8/8/8 9/9/9
f 13/13/13 12/12/12 11/11/11
f 14/14/14 12/12/12 13/13/13
f 17/17/17 16/16/16 15/15/15
f 18/18/18 17/17/17 15/15/15
f 21/21/21 20/20/20 19/19/19
f 22/22/22 21/21/21 19/19/19
