g nitro_cylinder
v -0.00651434297 0.000754028326 -0.0351673439
v -0.00604258617 -0.0434927791 -0.0327956527
v 0.000489066006 -0.0434927829 -0.0334389657
v 0.000489066297 0.000754028326 -0.0358571187
v -0.00651434297 0.0256818086 -0.0351673439
v 0.00702066859 -0.0434927791 -0.0327956639
v 0.000489066297 0.0256818086 -0.0358571187
v -0.00651434017 0.0459356345 -0.0351673439
v 0.000489069906 0.0459356345 -0.0358571261
v 0.00749242306 0.000754028326 -0.0351673514
v 0.0133013176 -0.0434927829 -0.0308904592
v 0.00749242306 0.0256818086 -0.0351673476
v 0.00749242632 0.0459356345 -0.0351673551
v 0.0142266992 0.000754028326 -0.03312454
v 0.0190896019 -0.0434927791 -0.0277965683
v 0.0142266992 0.0256818105 -0.03312454
v 0.014226703 0.0459356382 -0.0331245437
v 0.0204330496 0.000754028326 -0.0298071913
v 0.0241630767 -0.0434927829 -0.0236328878
v 0.0204330496 0.0256818105 -0.0298071913
v 0.0204330552 0.0459356382 -0.0298071988
v 0.0258729644 0.000754029839 -0.0253427774
v 0.0283267684 -0.0434927829 -0.0185594261
v 0.0258729644 0.0256818105 -0.0253427811
v 0.0258729644 0.0459356382 -0.0253427811
v 0.0303373858 0.000754029839 -0.0199028812
v 0.0314206742 -0.0434927829 -0.0127711482
v 0.0303373858 0.0256818105 -0.0199028831
v 0.0303373933 0.0459356382 -0.0199028831
v 0.0336547494 0.000754029839 -0.0136965355
v 0.0333258957 -0.0434927829 -0.00649050297
v 0.0336547494 0.0256818105 -0.0136965392
v 0.0336547568 0.0459356382 -0.013696542
v 0.0356975831 0.000754029839 -0.00696226582
v 0.0339692123 -0.0434927829 4.11529545E-05
v 0.0363873653 0.000754030189 4.11482324E-05
v 0.0356975831 0.0256818105 -0.00696226489
v 0.0356975868 0.0459356382 -0.00696226489
v 0.0363873653 0.0256818105 4.114685E-05
v 0.036387369 0.0459356382 4.114685E-05
v 0.00749249104 0.000754031353 0.0352497026
v 0.00702073285 -0.0434927829 0.0328780189
v 0.000489076891 -0.0434927829 0.0335213356
v 0.000489077996 0.000754031353 0.0359394811
v 0.00749249104 0.0256818179 0.0352497026
v -0.00604257826 -0.0434927829 0.0328780264
v 0.000489077996 0.0256818142 0.0359394811
v 0.00749249477 0.0459356382 0.0352496989
v 0.000489081547 0.045935642 0.0359394811
v -0.00651433459 0.000754031353 0.0352497101
v -0.0123232268 -0.0434927829 0.0309728142
v -0.00651433459 0.0256818105 0.0352497101
v -0.00651433179 0.045935642 0.0352497064
v -0.0132486112 0.000754031353 0.0332068913
v -0.0181115083 -0.0434927829 0.0278789178
v -0.0132486112 0.0256818086 0.0332068913
v -0.0132486084 0.045935642 0.0332068875
v -0.0194549561 0.000754031353 0.0298895296
v -0.02318497 -0.0434927829 0.0237152223
v -0.0194549561 0.0256818105 0.0298895296
v -0.0194549523 0.0459356382 0.0298895258
v -0.0248948596 0.000754031353 0.0254251156
v -0.0273486599 -0.0434927829 0.0186417606
v -0.0293592773 0.000754031353 0.0199852102
v -0.0248948596 0.0256818105 0.0254251119
v -0.0248948578 0.0459356382 0.0254251119
v -0.0293592773 0.0256818105 0.0199852083
v -0.0326766334 0.000754031353 0.0137788635
v -0.0293592699 0.0459356382 0.0199852083
v -0.0326766334 0.0256818105 0.0137788597
v -0.0326766334 0.0459356382 0.0137788597
v 0.0363873653 0.000754030189 4.11482324E-05
v 0.0339692123 -0.0434927829 4.11529545E-05
v 0.0333259068 -0.0434927829 0.0065728086
v 0.0356975943 0.000754030596 0.00704456307
v 0.0363873653 0.0256818105 4.114685E-05
v 0.0314207003 -0.0434927829 0.0128534539
v 0.0356975943 0.0256818105 0.00704456167
v 0.036387369 0.0459356382 4.114685E-05
v 0.035697598 0.0459356345 0.00704456167
v 0.0336547829 0.000754031353 0.0137788421
v 0.0283268057 -0.0434927829 0.0186417345
v 0.0336547829 0.0256818105 0.0137788383
v 0.0336547829 0.045935642 0.0137788383
v 0.0303374268 0.000754031353 0.0199851897
v 0.0241631214 -0.0434927829 0.0237152092
v 0.0303374268 0.0256818105 0.0199851859
v 0.0303374287 0.045935642 0.0199851859
v 0.0258730128 0.000754031353 0.0254251007
v 0.0190896541 -0.0434927829 0.0278789047
v 0.0258730128 0.0256818105 0.025425097
v 0.0258730184 0.0459356345 0.025425097
v 0.0204331074 0.000754031353 0.0298895165
v 0.0133013763 -0.0434927829 0.0309728011
v 0.0204331074 0.0256818105 0.0298895165
v 0.0204331111 0.0459356382 0.0298895128
v 0.0142267635 0.000754031353 0.0332068801
v 0.00702073285 -0.0434927829 0.0328780189
v 0.00749249104 0.000754031353 0.0352497026
v 0.0142267635 0.0256818105 0.0332068801
v 0.01422677 0.0459356382 0.0332068764
v 0.00749249104 0.0256818179 0.0352497026
v 0.00749249477 0.0459356382 0.0352496989
v -0.0293592773 0.000754031353 0.0199852102
v -0.0273486599 -0.0434927829 0.0186417606
v -0.0304425582 -0.0434927829 0.012853479
v -0.0326766334 0.000754031353 0.0137788635
v -0.0323477723 -0.0434927829 0.00657283328
v -0.034719456 0.000754030596 0.00704458915
v -0.0326766334 0.0256818105 0.0137788597
v -0.0329910815 -0.0434927829 4.11804176E-05
v -0.034719456 0.0256818105 0.00704458915
v -0.0326766334 0.0459356382 0.0137788597
v -0.0347194523 0.045935642 0.00704458589
v -0.0354092307 0.000754030189 4.11801811E-05
v -0.0323477685 -0.0434927829 -0.00649047224
v -0.0354092307 0.0256818105 4.11804176E-05
v -0.035409227 0.0459356382 4.11773653E-05
v -0.0347194523 0.000754029839 -0.00696222903
v -0.0304425582 -0.0434927829 -0.0127711147
v -0.0347194523 0.0256818105 -0.0069622281
v -0.0347194523 0.0459356382 -0.0069622281
v -0.0326766334 0.000754029839 -0.0136964992
v -0.0273486599 -0.0434927829 -0.0185593907
v -0.0326766334 0.0256818105 -0.013696502
v -0.0326766334 0.0459356382 -0.0136965057
v -0.0293592773 0.000754029839 -0.0199028403
v -0.02318497 -0.0434927829 -0.0236328542
v -0.0293592773 0.0256818105 -0.019902844
v -0.0293592699 0.0459356382 -0.0199028403
v -0.0248948596 0.000754029839 -0.0253427438
v -0.0181115102 -0.0434927829 -0.0277965423
v -0.0248948596 0.0256818105 -0.0253427476
v -0.0248948578 0.0459356382 -0.0253427457
v -0.0194549579 0.000754028326 -0.0298071615
v -0.0123232324 -0.0434927791 -0.0308904406
v -0.0194549579 0.0256818105 -0.0298071615
v -0.0194549561 0.0459356382 -0.0298071615
v -0.0132486206 0.000754028326 -0.0331245214
v -0.00604258617 -0.0434927791 -0.0327956527
v -0.00651434297 0.000754028326 -0.0351673439
v -0.0132486206 0.0256818105 -0.0331245251
v -0.0132486168 0.0459356382 -0.0331245251
v -0.00651434297 0.0256818086 -0.0351673439
v -0.00651434017 0.0459356345 -0.0351673439
v 0.0423595868 -0.0493538566 -0.00828742329
v 0.043179892 -0.0705417469 4.11437977E-05
v 0.043179892 -0.0493538603 4.114685E-05
v 0.0423595868 -0.0705417469 -0.0082874205
v 0.0399302244 -0.0493538603 -0.0162959322
v 0.0399302244 -0.0705417469 -0.0162959285
v 0.0359851606 -0.049353864 -0.0236766115
v 0.0359851606 -0.0705417469 -0.0236766078
v 0.0306759998 -0.049353864 -0.030145824
v 0.0306759998 -0.0705417469 -0.030145824
v 0.0242067687 -0.0493538603 -0.0354549699
v 0.0242067687 -0.0705417469 -0.0354549699
v 0.0168260802 -0.049353864 -0.0394000188
v 0.0168260802 -0.0705417469 -0.0394000188
v 0.00881756935 -0.049353864 -0.0418293625
v 0.00881757028 -0.0705417469 -0.0418293625
v 0.000489066471 -0.049353864 -0.0426496416
v 0.000489067694 -0.0705417469 -0.0426496416
v -0.00783949904 -0.0493538603 -0.0418293476
v -0.00783949811 -0.0705417469 -0.0418293476
v 0.00881757028 -0.0705417469 -0.0418293625
v 0.000489067694 -0.0705417469 -0.0426496416
v -0.00783949811 -0.0705417469 -0.0418293476
v 0.0168260802 -0.0705417469 -0.0394000188
v -0.0158480071 -0.0705417469 -0.0393999964
v 0.0242067687 -0.0705417469 -0.0354549699
v -0.0232286863 -0.0705417469 -0.0354549363
v 0.0306759998 -0.0705417469 -0.030145824
v -0.0296979025 -0.0705417469 -0.0301457811
v 0.0359851606 -0.0705417469 -0.0236766078
v -0.0350070558 -0.0705417469 -0.0236765612
v 0.0399302244 -0.0705417469 -0.0162959285
v -0.0389521122 -0.0705417469 -0.0162958801
v 0.0423595868 -0.0705417469 -0.0082874205
v -0.0413814634 -0.0705417469 -0.00828738417
v 0.043179892 -0.0705417469 4.11437977E-05
v -0.0422017574 -0.0705417469 4.11865221E-05
v 0.0423596017 -0.0705417469 0.00836972054
v -0.0413814634 -0.0705417469 0.00836975034
v 0.0399302579 -0.0705417469 0.0163782276
v -0.0389521122 -0.0705417469 0.0163782518
v 0.035985209 -0.0705417469 0.0237589162
v -0.0350070558 -0.0705417469 0.0237589404
v 0.0306760576 -0.0705417469 0.0302281417
v -0.0296979025 -0.0705417469 0.0302281603
v 0.0242068376 -0.0705417469 0.0355372988
v -0.0232286807 -0.0705417469 0.0355373099
v 0.0168261565 -0.0705417469 0.0394823551
v -0.0158479977 -0.0705417469 0.0394823775
v 0.00881765131 -0.0705417469 0.041911725
v -0.0078394888 -0.0705417469 0.041911725
v 0.000489081547 -0.0705417469 0.0427320115
v -0.0158480071 -0.049353864 -0.0393999964
v -0.00783949811 -0.0705417469 -0.0418293476
v -0.00783949904 -0.0493538603 -0.0418293476
v -0.0158480071 -0.0705417469 -0.0393999964
v -0.0232286863 -0.049353864 -0.0354549363
v -0.0232286863 -0.0705417469 -0.0354549363
v -0.0296979025 -0.0493538566 -0.0301457811
v -0.0296979025 -0.0705417469 -0.0301457811
v -0.0350070558 -0.0493538603 -0.0236765649
v -0.0350070558 -0.0705417469 -0.0236765612
v -0.0389521122 -0.049353864 -0.0162958857
v -0.0389521122 -0.0705417469 -0.0162958801
v -0.0413814634 -0.0493538566 -0.00828738045
v -0.0413814634 -0.0705417469 -0.00828738417
v -0.0422017574 -0.0493538603 4.11834699E-05
v -0.0422017574 -0.0705417469 4.11865221E-05
v -0.0413814634 -0.0493538603 0.00836975034
v -0.0413814634 -0.0705417469 0.00836975034
v -0.0389521122 -0.0493538603 0.0163782518
v -0.0389521122 -0.0705417469 0.0163782518
v 0.00881765038 -0.0493538566 0.0419117175
v 0.00881765131 -0.0705417469 0.041911725
v 0.000489081547 -0.0705417469 0.0427320115
v 0.000489080383 -0.0493538566 0.0427320115
v -0.0078394888 -0.0705417469 0.041911725
v -0.00783948973 -0.0493538566 0.041911725
v -0.0158479977 -0.0705417469 0.0394823775
v -0.0158480015 -0.0493538566 0.0394823737
v -0.0232286807 -0.0705417469 0.0355373099
v -0.0232286807 -0.0493538566 0.0355373099
v -0.0296979025 -0.0705417469 0.0302281603
v -0.0296979025 -0.0493538603 0.0302281603
v -0.0350070558 -0.0705417469 0.0237589404
v -0.0350070558 -0.0493538603 0.0237589404
v -0.0389521122 -0.0705417469 0.0163782518
v -0.0389521122 -0.0493538603 0.0163782518
v 0.0168261565 -0.0493538566 0.0394823588
v 0.00881765131 -0.0705417469 0.041911725
v 0.00881765038 -0.0493538566 0.0419117175
v 0.0168261565 -0.0705417469 0.0394823551
v 0.0242068376 -0.0493538566 0.0355372988
v 0.0242068376 -0.0705417469 0.0355372988
v 0.0306760576 -0.0493538603 0.0302281417
v 0.0306760576 -0.0705417469 0.0302281417
v 0.035985209 -0.0493538603 0.0237589162
v 0.035985209 -0.0705417469 0.0237589162
v 0.0399302579 -0.0493538603 0.0163782276
v 0.0399302579 -0.0705417469 0.0163782276
v 0.0423596017 -0.0493538603 0.00836972054
v 0.0423596017 -0.0705417469 0.00836972054
v 0.043179892 -0.0493538603 4.114685E-05
v 0.043179892 -0.0705417469 4.11437977E-05
v -0.00173822918 0.0526869111 -0.011156207
v 0.000489068567 0.0526869111 -0.01137558
v 0.00271634921 0.0526869111 -0.0111562135
v 0.00485805515 0.0526869111 -0.0105065368
v -0.00387993432 0.0526869111 -0.0105065303
v 0.00683186343 0.0526869111 -0.0094515197
v -0.0058537391 0.0526869111 -0.00945150759
v 0.00856192131 0.0526869111 -0.00803169515
v -0.00758379325 0.0526869111 -0.00803168956
v 0.00998174399 0.0526869111 -0.00630164798
v -0.00900361501 0.0526869111 -0.00630163541
v 0.0175461601 0.050178051 -0.0113560362
v 0.0149949212 0.0501780473 -0.0144647155
v 0.0110367667 0.0526869111 -0.00432783784
v -0.0100586349 0.0526869111 -0.00432782574
v 0.019441897 0.0501780473 -0.00780936889
v 0.011686448 0.0526869111 -0.00218613888
v -0.0107083116 0.0526869111 -0.00218612654
v 0.0206092894 0.0501780473 -0.00396100432
v 0.011905821 0.0526869111 4.11621077E-05
v -0.0109276846 0.0526869111 4.11743167E-05
v 0.0210034754 0.0501780473 4.11560031E-05
v 0.0116864517 0.0526869111 0.00226846314
v -0.0107083162 0.0526869111 0.00226847222
v 0.0206092987 0.0501780473 0.00404332252
v 0.011036776 0.0526869111 0.00441016816
v -0.0100586349 0.0526869111 0.00441017468
v 0.019441912 0.0501780473 0.00789168663
v 0.00998175703 0.0526869111 0.00638397504
v -0.00900361501 0.0526869111 0.00638398109
v 0.0175461825 0.050178051 0.0114383604
v 0.00856193807 0.0526869111 0.00811403152
v -0.00758379325 0.0526869111 0.00811403804
v 0.0149949547 0.0501780473 0.0145470453
v 0.00683188252 0.0526869111 0.00953385606
v -0.0058537377 0.0526869111 0.00953385886
v 0.0118862726 0.0501780473 0.0170982778
v 0.00485807564 0.0526869111 0.0105888788
v -0.00387993152 0.0526869111 0.0105888788
v -0.00173822651 0.0526869111 0.0112385582
v 0.00271637086 0.0526869111 0.0112385582
v 0.000489072234 0.0526869111 0.0114579285
v 0.0216193348 0.0488271266 0.0141599486
v 0.0184588861 0.0488271266 0.0180109739
v 0.0146078644 0.0488271229 0.0211714264
v 0.0239677578 0.0488271303 0.00976634771
v 0.0102142682 0.0488271303 0.0235198569
v 0.00833960157 0.0501780435 0.0189940147
v 0.0254139062 0.0488271303 0.00499901408
v 0.0054469374 0.0488271266 0.0249660145
v 0.00449123932 0.050178051 0.0201614033
v 0.0259022079 0.0488271266 4.11529545E-05
v 0.000489077589 0.0488271266 0.02545432
v 0.000489075668 0.0501780473 0.0205555838
v 0.0254138969 0.0488271266 -0.00491670519
v -0.00446878187 0.0488271266 0.0249660145
v -0.00351308775 0.0501780473 0.0201614071
v 0.0239677392 0.0488271266 -0.00968403928
v -0.00923611503 0.0488271229 0.0235198624
v -0.0073614507 0.050178051 0.0189940203
v 0.0216193087 0.0488271266 -0.0140776364
v -0.013629715 0.0488271229 0.0211714376
v -0.0109081212 0.0501780473 0.0170982853
v 0.0184588488 0.0488271266 -0.0179286487
v 0.0118862381 0.0501780473 -0.0170159489
v -0.0174807366 0.0488271303 0.0180109832
v -0.0140168052 0.0501780473 0.0145470519
v 0.0146078244 0.0488271266 -0.0210890993
v 0.00833956525 0.0501780473 -0.0189116746
v -0.0206411835 0.0488271229 0.0141599635
v -0.0165680349 0.050178051 0.0114383698
v 0.0102142235 0.0488271266 -0.0234375186
v 0.00449120067 0.0501780473 -0.0200790577
v -0.0229896121 0.0488271266 0.00976636354
v -0.0184637718 0.0501780473 0.00789169874
v 0.00544688897 0.0488271266 -0.024883667
v 0.000489069032 0.0501780473 -0.0204732362
v -0.024435766 0.0488271303 0.00499903224
v -0.0196311586 0.0501780435 0.00404333463
v 0.000489069265 0.0488271266 -0.025371965
v -0.00351309241 0.0501780473 -0.0200790521
v -0.0249240715 0.0488271266 4.11773653E-05
v -0.0200253353 0.0501780473 4.11743167E-05
v -0.00446878839 0.0488271266 -0.024883654
v -0.00736145396 0.0501780473 -0.0189116634
v -0.0244357623 0.0488271266 -0.00491668098
v -0.0196311548 0.0501780473 -0.00396098616
v -0.00923611969 0.0488271266 -0.0234375056
v -0.0109081231 0.0501780473 -0.0170159303
v -0.0229896121 0.0488271303 -0.00968400855
v -0.0184637718 0.0501780473 -0.00780934421
v -0.0136297178 0.0488271266 -0.0210890733
v -0.0140168052 0.0501780473 -0.0144646969
v -0.0206411835 0.0488271266 -0.0140776057
v -0.0165680349 0.0501780435 -0.0113560176
v -0.0174807366 0.0488271266 -0.0179286245
v -0.0347194523 0.0459356382 -0.0069622281
v -0.035409227 0.0459356382 4.11773653E-05
v -0.0326766334 0.0459356382 -0.0136965057
v -0.0293592699 0.0459356382 -0.0199028403
v -0.0347194523 0.045935642 0.00704458589
v -0.0248948578 0.0459356382 -0.0253427457
v -0.0194549561 0.0459356382 -0.0298071615
v -0.0326766334 0.0459356382 0.0137788597
v -0.0132486168 0.0459356382 -0.0331245251
v -0.0293592699 0.0459356382 0.0199852083
v -0.00651434017 0.0459356345 -0.0351673439
v -0.0248948578 0.0459356382 0.0254251119
v 0.000489069906 0.0459356345 -0.0358571261
v -0.0194549523 0.0459356382 0.0298895258
v 0.00749242632 0.0459356345 -0.0351673551
v -0.0132486084 0.045935642 0.0332068875
v 0.014226703 0.0459356382 -0.0331245437
v -0.00651433179 0.045935642 0.0352497064
v 0.0204330552 0.0459356382 -0.0298071988
v 0.000489081547 0.045935642 0.0359394811
v 0.0258729644 0.0459356382 -0.0253427811
v 0.00749249477 0.0459356382 0.0352496989
v 0.0303373933 0.0459356382 -0.0199028831
v 0.01422677 0.0459356382 0.0332068764
v 0.0336547568 0.0459356382 -0.013696542
v 0.0204331111 0.0459356382 0.0298895128
v 0.0356975868 0.0459356382 -0.00696226489
v 0.0258730184 0.0459356345 0.025425097
v 0.036387369 0.0459356382 4.114685E-05
v 0.0303374287 0.045935642 0.0199851859
v 0.035697598 0.0459356345 0.00704456167
v 0.0336547829 0.045935642 0.0137788383
v -0.00173822918 0.0526869111 -0.011156207
v -0.00173822918 0.0767934322 -0.011156207
v 0.000489068567 0.0767934322 -0.01137558
v 0.000489068567 0.0526869111 -0.01137558
v 0.00271634921 0.0767934322 -0.0111562135
v 0.00271634921 0.0526869111 -0.0111562135
v 0.00485805515 0.0767934322 -0.0105065368
v 0.00485805515 0.0526869111 -0.0105065368
v 0.00683186343 0.0767934322 -0.0094515197
v 0.00683186343 0.0526869111 -0.0094515197
v 0.00856192131 0.0767934322 -0.00803170167
v 0.00856192131 0.0526869111 -0.00803169515
v 0.0118862726 0.0501780473 0.0170982778
v 0.0118862726 0.0742845684 0.0170982778
v 0.00683188252 0.0767934322 0.00953385606
v 0.00683188252 0.0526869111 0.00953385606
v 0.000489075668 0.0501780473 0.0205555838
v 0.00449123932 0.0742845759 0.0201614015
v 0.00449123932 0.050178051 0.0201614033
v 0.000489075668 0.0742845833 0.0205555838
v -0.00351308775 0.0501780473 0.0201614071
v -0.00351308775 0.0742845833 0.0201614071
v -0.0073614507 0.050178051 0.0189940203
v -0.0073614507 0.0742845759 0.0189940184
v -0.0109081212 0.0501780473 0.0170982853
v -0.0109081212 0.0742845833 0.0170982853
v -0.0140168052 0.0501780473 0.0145470519
v -0.0140168052 0.0742845833 0.0145470519
v -0.0165680349 0.050178051 0.0114383698
v -0.0165680349 0.0742845759 0.011438366
v -0.0184637718 0.0501780473 0.00789169874
v -0.0184637718 0.0742845759 0.00789169874
v 0.00833960157 0.0501780435 0.0189940147
v 0.0118862726 0.0742845684 0.0170982778
v 0.0118862726 0.0501780473 0.0170982778
v 0.00833960157 0.0742845759 0.0189940184
v 0.00449123932 0.050178051 0.0201614033
v 0.00449123932 0.0742845759 0.0201614015
v -0.0107083162 0.0526869111 0.00226847222
v -0.0109276846 0.0767934322 4.11743167E-05
v -0.0109276846 0.0526869111 4.11743167E-05
v -0.0107083162 0.0767934322 0.00226846919
v -0.0100586349 0.0526869111 0.00441017468
v -0.0100586349 0.0767934322 0.00441017468
v -0.00900361501 0.0526869111 0.00638398109
v -0.00900361501 0.0767934322 0.0063839783
v -0.00758379325 0.0526869111 0.00811403804
v -0.00758379325 0.0767934322 0.00811403804
v -0.0058537377 0.0526869111 0.00953385886
v -0.0058537377 0.0767934322 0.00953385606
v -0.00387993152 0.0526869111 0.0105888788
v -0.00387993152 0.0767934322 0.0105888788
v -0.00173822651 0.0526869111 0.0112385582
v -0.00173822651 0.0767934322 0.0112385554
v 0.000489072234 0.0526869111 0.0114579285
v 0.000489072234 0.0767934322 0.0114579285
v 0.00271637086 0.0526869111 0.0112385582
v 0.00271637086 0.0767934322 0.0112385554
v 0.000489069032 0.0501780473 -0.0204732362
v -0.00351309241 0.0742845684 -0.0200790521
v -0.00351309241 0.0501780473 -0.0200790521
v 0.000489069032 0.0742845759 -0.0204732288
v 0.00449120067 0.0501780473 -0.0200790577
v 0.00449120067 0.0742845833 -0.0200790577
v 0.00833956525 0.0501780473 -0.0189116746
v 0.00833956525 0.0742845759 -0.018911669
v 0.0118862381 0.0501780473 -0.0170159489
v 0.0118862381 0.0742845759 -0.0170159414
v 0.0149949212 0.0501780473 -0.0144647155
v 0.0149949212 0.0742845833 -0.0144647155
v -0.0109276846 0.0526869111 4.11743167E-05
v -0.0109276846 0.0767934322 4.11743167E-05
v -0.0107083116 0.0767934322 -0.00218612654
v -0.0107083116 0.0526869111 -0.00218612654
v -0.0100586349 0.0767934322 -0.00432782574
v -0.0100586349 0.0526869111 -0.00432782574
v -0.00900361501 0.0767934322 -0.00630163541
v -0.00900361501 0.0526869111 -0.00630163541
v -0.00758379325 0.0767934322 -0.00803168956
v -0.00758379325 0.0526869111 -0.00803168956
v -0.0058537391 0.0767934322 -0.00945150759
v -0.0058537391 0.0526869111 -0.00945150759
v -0.00387993432 0.0767934322 -0.0105065303
v -0.00387993432 0.0526869111 -0.0105065303
v -0.00173822918 0.0767934322 -0.011156207
v -0.00173822918 0.0526869111 -0.011156207
v 0.00833960157 0.0742845759 0.0189940184
v 0.00683188252 0.0767934322 0.00953385606
v 0.0118862726 0.0742845684 0.0170982778
v 0.00485807564 0.0767934322 0.0105888788
v 0.00449123932 0.0742845759 0.0201614015
v 0.00271637086 0.0767934322 0.0112385554
v 0.000489075668 0.0742845833 0.0205555838
v 0.000489072234 0.0767934322 0.0114579285
v -0.00351308775 0.0742845833 0.0201614071
v -0.00173822651 0.0767934322 0.0112385554
v -0.0073614507 0.0742845759 0.0189940184
v -0.00387993152 0.0767934322 0.0105888788
v -0.0109081212 0.0742845833 0.0170982853
v -0.0058537377 0.0767934322 0.00953385606
v -0.0140168052 0.0742845833 0.0145470519
v -0.00758379325 0.0767934322 0.00811403804
v -0.0165680349 0.0742845759 0.011438366
v -0.00900361501 0.0767934322 0.0063839783
v -0.0184637718 0.0742845759 0.00789169874
v -0.0100586349 0.0767934322 0.00441017468
v -0.0196311586 0.0742845759 0.00404333463
v -0.0107083162 0.0767934322 0.00226846919
v -0.0200253353 0.0742845759 4.11743167E-05
v -0.0109276846 0.0767934322 4.11743167E-05
v -0.0196311548 0.0742845684 -0.00396098616
v -0.0107083116 0.0767934322 -0.00218612654
v -0.0184637718 0.0742845759 -0.00780935027
v -0.0100586349 0.0767934322 -0.00432782574
v -0.0165680349 0.0742845759 -0.0113560176
v -0.00900361501 0.0767934322 -0.00630163541
v -0.0140168052 0.0742845684 -0.0144646969
v -0.00758379325 0.0767934322 -0.00803168956
v -0.0109081231 0.0742845684 -0.0170159303
v -0.0058537391 0.0767934322 -0.00945150759
v -0.00736145396 0.0742845833 -0.0189116634
v -0.00387993432 0.0767934322 -0.0105065303
v -0.00351309241 0.0742845684 -0.0200790521
v -0.00173822918 0.0767934322 -0.011156207
v 0.000489069032 0.0742845759 -0.0204732288
v 0.000489068567 0.0767934322 -0.01137558
v 0.00449120067 0.0742845833 -0.0200790577
v 0.00271634921 0.0767934322 -0.0111562135
v 0.00833956525 0.0742845759 -0.018911669
v 0.00485805515 0.0767934322 -0.0105065368
v 0.0118862381 0.0742845759 -0.0170159414
v 0.00683186343 0.0767934322 -0.0094515197
v 0.0149949212 0.0742845833 -0.0144647155
v 0.00856192131 0.0767934322 -0.00803170167
v -0.0196311586 0.0501780435 0.00404333463
v -0.0184637718 0.0742845759 0.00789169874
v -0.0184637718 0.0501780473 0.00789169874
v -0.0196311586 0.0742845759 0.00404333463
v -0.0200253353 0.0501780473 4.11743167E-05
v -0.0200253353 0.0742845759 4.11743167E-05
v -0.0196311548 0.0501780473 -0.00396098616
v -0.0196311548 0.0742845684 -0.00396098616
v -0.0184637718 0.0501780473 -0.00780934421
v -0.0184637718 0.0742845759 -0.00780935027
v -0.0165680349 0.0501780435 -0.0113560176
v -0.0165680349 0.0742845759 -0.0113560176
v -0.0140168052 0.0501780473 -0.0144646969
v -0.0140168052 0.0742845684 -0.0144646969
v -0.0109081231 0.0501780473 -0.0170159303
v -0.0109081231 0.0742845684 -0.0170159303
v -0.00736145396 0.0501780473 -0.0189116634
v -0.00736145396 0.0742845833 -0.0189116634
v -0.00351309241 0.0501780473 -0.0200790521
v -0.00351309241 0.0742845684 -0.0200790521
v 0.00485807564 0.0526869111 0.0105888788
v 0.00271637086 0.0767934322 0.0112385554
v 0.00271637086 0.0526869111 0.0112385582
v 0.00485807564 0.0767934322 0.0105888788
v 0.00683188252 0.0526869111 0.00953385606
v 0.00683188252 0.0767934322 0.00953385606
v 0.00856192131 0.0526869111 -0.00803169515
v 0.00856192131 0.0767934322 -0.00803170167
v 0.0149949212 0.0742845833 -0.0144647155
v 0.0149949212 0.0501780473 -0.0144647155
v -0.0323477685 -0.0434927829 -0.00649047224
v -0.0413814634 -0.0493538566 -0.00828738045
v -0.0389521122 -0.049353864 -0.0162958857
v -0.0304425582 -0.0434927829 -0.0127711147
v -0.0329910815 -0.0434927829 4.11804176E-05
v -0.0350070558 -0.0493538603 -0.0236765649
v -0.0422017574 -0.0493538603 4.11834699E-05
v -0.0273486599 -0.0434927829 -0.0185593907
v -0.0323477723 -0.0434927829 0.00657283328
v -0.0296979025 -0.0493538566 -0.0301457811
v -0.0413814634 -0.0493538603 0.00836975034
v -0.02318497 -0.0434927829 -0.0236328542
v -0.0304425582 -0.0434927829 0.012853479
v -0.0232286863 -0.049353864 -0.0354549363
v -0.0389521122 -0.0493538603 0.0163782518
v -0.0181115102 -0.0434927829 -0.0277965423
v -0.0273486599 -0.0434927829 0.0186417606
v -0.0158480071 -0.049353864 -0.0393999964
v -0.0350070558 -0.0493538603 0.0237589404
v -0.0123232324 -0.0434927791 -0.0308904406
v -0.02318497 -0.0434927829 0.0237152223
v -0.00783949904 -0.0493538603 -0.0418293476
v -0.0296979025 -0.0493538603 0.0302281603
v -0.00604258617 -0.0434927791 -0.0327956527
v -0.0181115083 -0.0434927829 0.0278789178
v 0.000489066471 -0.049353864 -0.0426496416
v -0.0232286807 -0.0493538566 0.0355373099
v 0.000489066006 -0.0434927829 -0.0334389657
v -0.0123232268 -0.0434927829 0.0309728142
v 0.00881756935 -0.049353864 -0.0418293625
v -0.0158480015 -0.0493538566 0.0394823737
v 0.00702066859 -0.0434927791 -0.0327956639
v -0.00604257826 -0.0434927829 0.0328780264
v 0.0168260802 -0.049353864 -0.0394000188
v -0.00783948973 -0.0493538566 0.041911725
v 0.0133013176 -0.0434927829 -0.0308904592
v 0.000489076891 -0.0434927829 0.0335213356
v 0.0242067687 -0.0493538603 -0.0354549699
v 0.000489080383 -0.0493538566 0.0427320115
v 0.0190896019 -0.0434927791 -0.0277965683
v 0.00702073285 -0.0434927829 0.0328780189
v 0.0306759998 -0.049353864 -0.030145824
v 0.00881765038 -0.0493538566 0.0419117175
v 0.0241630767 -0.0434927829 -0.0236328878
v 0.0133013763 -0.0434927829 0.0309728011
v 0.0359851606 -0.049353864 -0.0236766115
v 0.0168261565 -0.0493538566 0.0394823588
v 0.0283267684 -0.0434927829 -0.0185594261
v 0.0190896541 -0.0434927829 0.0278789047
v 0.0399302244 -0.0493538603 -0.0162959322
v 0.0242068376 -0.0493538566 0.0355372988
v 0.0314206742 -0.0434927829 -0.0127711482
v 0.0241631214 -0.0434927829 0.0237152092
v 0.0423595868 -0.0493538566 -0.00828742329
v 0.0306760576 -0.0493538603 0.0302281417
v 0.0333258957 -0.0434927829 -0.00649050297
v 0.0283268057 -0.0434927829 0.0186417345
v 0.043179892 -0.0493538603 4.114685E-05
v 0.035985209 -0.0493538603 0.0237589162
v 0.0339692123 -0.0434927829 4.11529545E-05
v 0.0314207003 -0.0434927829 0.0128534539
v 0.0423596017 -0.0493538603 0.00836972054
v 0.0399302579 -0.0493538603 0.0163782276
v 0.0333259068 -0.0434927829 0.0065728086
vt 0.895019531 0.592773438
vt 0.885253906 0.396728516
vt 0.871582031 0.396972656
vt 0.879882812 0.593261719
vt 0.895019531 0.703125
vt 0.853515625 0.397216797
vt 0.879882812 0.703613281
vt 0.895019531 0.79296875
vt 0.879882812 0.79296875
vt 0.860351562 0.593261719
vt 0.831054688 0.397460938
vt 0.860351562 0.703613281
vt 0.860351562 0.793457031
vt 0.836914062 0.593261719
vt 0.806152344 0.397705078
vt 0.836914062 0.703613281
vt 0.836914062 0.793457031
vt 0.810058594 0.59375
vt 0.779296875 0.397705078
vt 0.810058594 0.704101562
vt 0.810058594 0.793457031
vt 0.78125 0.59375
vt 0.751464844 0.397705078
vt 0.78125 0.704101562
vt 0.78125 0.793945312
vt 0.750976562 0.59375
vt 0.723632812 0.397705078
vt 0.750976562 0.704101562
vt 0.750976562 0.793945312
vt 0.721191406 0.59375
vt 0.697265625 0.397705078
vt 0.721191406 0.704101562
vt 0.721191406 0.793945312
vt 0.692871094 0.59375
vt 0.672851562 0.397460938
vt 0.666992188 0.593261719
vt 0.692871094 0.704101562
vt 0.692871094 0.793457031
vt 0.666992188 0.703613281
vt 0.666992188 0.793457031
vt 1 0.196166992
vt 0.995117188 0.000151991844
vt 0.969238281 0.000256538391
vt 0.972167969 0.196289062
vt 1 0.306396484
vt 0.941894531 0.000309944153
vt 0.972167969 0.306640625
vt 1 0.396240234
vt 0.972167969 0.396240234
vt 0.942871094 0.196289062
vt 0.9140625 0.000309944153
vt 0.942871094 0.306640625
vt 0.942871094 0.396240234
vt 0.913085938 0.196289062
vt 0.886230469 0.000256538391
vt 0.913085938 0.306640625
vt 0.913085938 0.396240234
vt 0.883300781 0.196289062
vt 0.860351562 0.000151991844
vt 0.883300781 0.306640625
vt 0.883300781 0.396240234
vt 0.855957031 0.196166992
vt 0.837402344 0
vt 0.830566406 0.195922852
vt 0.855957031 0.306396484
vt 0.855957031 0.396240234
vt 0.830566406 0.306396484
vt 0.809570312 0.195800781
vt 0.830566406 0.395996094
vt 0.809570312 0.306152344
vt 0.809570312 0.395751953
vt 0.809570312 0.196044922
vt 0.802734375 0
vt 0.779785156 0.000173449516
vt 0.78515625 0.196166992
vt 0.809570312 0.306396484
vt 0.754394531 0.000294923782
vt 0.78515625 0.306640625
vt 0.809570312 0.395996094
vt 0.78515625 0.396240234
vt 0.757324219 0.196289062
vt 0.727050781 0.000359773636
vt 0.757324219 0.306640625
vt 0.757324219 0.396240234
vt 0.728027344 0.196411133
vt 0.698730469 0.000365495682
vt 0.728027344 0.306640625
vt 0.728027344 0.396484375
vt 0.698242188 0.196411133
vt 0.671386719 0.000311613083
vt 0.698242188 0.306640625
vt 0.698242188 0.396484375
vt 0.668457031 0.196289062
vt 0.645507812 0.000200629234
vt 0.668457031 0.306640625
vt 0.668457031 0.396240234
vt 0.640625 0.196166992
vt 0.622070312 3.6418438E-05
vt 0.615234375 0.196044922
vt 0.640625 0.306640625
vt 0.640625 0.396240234
vt 0.615234375 0.306396484
vt 0.615234375 0.395996094
vt 0.362304688 0.200805664
vt 0.370361328 0.396728516
vt 0.390136719 0.396484375
vt 0.383300781 0.200561523
vt 0.413330078 0.396240234
vt 0.408447266 0.200317383
vt 0.383300781 0.0902099609
vt 0.439208984 0.396240234
vt 0.408203125 0.0899658203
vt 0.383300781 0.000528335571
vt 0.408203125 0.000303983688
vt 0.436035156 0.200195312
vt 0.466796875 0.395996094
vt 0.436035156 0.0897827148
vt 0.435791016 0.000137329102
vt 0.465576172 0.200073242
vt 0.494628906 0.395996094
vt 0.465332031 0.0897216797
vt 0.465332031 3.46899033E-05
vt 0.495605469 0.200073242
vt 0.521972656 0.395996094
vt 0.495361328 0.0896606445
vt 0.495361328 0
vt 0.524902344 0.200073242
vt 0.547851562 0.396240234
vt 0.524902344 0.0897216797
vt 0.524902344 3.46899033E-05
vt 0.552734375 0.200195312
vt 0.571289062 0.396240234
vt 0.552734375 0.0897827148
vt 0.552246094 0.000137329102
vt 0.577636719 0.200317383
vt 0.590820312 0.396484375
vt 0.577636719 0.0899658203
vt 0.577148438 0.000303983688
vt 0.598632812 0.200561523
vt 0.606445312 0.396728516
vt 0.615234375 0.200805664
vt 0.598632812 0.0902099609
vt 0.598632812 0.000528335571
vt 0.615234375 0.0904541016
vt 0.615234375 0.000801563263
vt 0.985351562 0.646484375
vt 0.895019531 0.678222656
vt 0.984863281 0.678710938
vt 0.895019531 0.645996094
vt 0.985351562 0.611328125
vt 0.895507812 0.610839844
vt 0.985839844 0.574707031
vt 0.895507812 0.57421875
vt 0.985839844 0.537597656
vt 0.895507812 0.537109375
vt 0.985839844 0.501953125
vt 0.895507812 0.501464844
vt 0.985839844 0.46875
vt 0.895507812 0.468505859
vt 0.985351562 0.439453125
vt 0.895507812 0.439208984
vt 0.985351562 0.415283203
vt 0.895019531 0.415039062
vt 0.984863281 0.396972656
vt 0.895019531 0.396728516
vt 0 0.206665039
vt 0.00695800781 0.243041992
vt 0.020614624 0.277099609
vt 0 0.169555664
vt 0.040435791 0.308105469
vt 0.00695800781 0.133300781
vt 0.0656738281 0.334228516
vt 0.020614624 0.0989990234
vt 0.0953369141 0.354736328
vt 0.040435791 0.0681762695
vt 0.128295898 0.368896484
vt 0.0656738281 0.0419921875
vt 0.163208008 0.376220703
vt 0.0953369141 0.0214080811
vt 0.198974609 0.376220703
vt 0.128295898 0.00722885132
vt 0.233886719 0.368896484
vt 0.163208008 0
vt 0.266845703 0.354736328
vt 0.198974609 0
vt 0.296630859 0.334228516
vt 0.233886719 0.00722885132
vt 0.321777344 0.308105469
vt 0.266845703 0.0214080811
vt 0.341552734 0.277099609
vt 0.296630859 0.0419921875
vt 0.355224609 0.243041992
vt 0.321777344 0.0681762695
vt 0.362304688 0.206665039
vt 0.341552734 0.0989990234
vt 0.362304688 0.169555664
vt 0.355224609 0.133300781
vt 0.362792969 0.733886719
vt 0.453369141 0.713378906
vt 0.363037109 0.713378906
vt 0.452880859 0.733886719
vt 0.362548828 0.760253906
vt 0.452636719 0.759765625
vt 0.362304688 0.791015625
vt 0.452636719 0.790527344
vt 0.362304688 0.825195312
vt 0.452636719 0.825195312
vt 0.362304688 0.861328125
vt 0.452636719 0.861328125
vt 0.362304688 0.8984375
vt 0.452636719 0.8984375
vt 0.362548828 0.935058594
vt 0.452636719 0.934570312
vt 0.362792969 0.969238281
vt 0.452880859 0.96875
vt 0.363037109 1
vt 0.453369141 1
vt 0.0911254883 0.987792969
vt 0.181396484 0.987792969
vt 0.181274414 0.953613281
vt 0.0909423828 0.953613281
vt 0.181152344 0.916992188
vt 0.0908203125 0.917480469
vt 0.181030273 0.879882812
vt 0.0907592773 0.880371094
vt 0.181030273 0.84375
vt 0.0907592773 0.84375
vt 0.181152344 0.809570312
vt 0.0908203125 0.809570312
vt 0.181274414 0.778808594
vt 0.0909423828 0.778808594
vt 0.181396484 0.752441406
vt 0.0911254883 0.752441406
vt 0.000215530396 0.783691406
vt 0.0907592773 0.752441406
vt 0.000422954559 0.752441406
vt 0.0905151367 0.783691406
vt 7.27772713E-05 0.818359375
vt 0.0903930664 0.818359375
vt 0 0.854492188
vt 0.0903320312 0.854492188
vt 0 0.891601562
vt 0.0903320312 0.891601562
vt 7.28368759E-05 0.927734375
vt 0.0903930664 0.927734375
vt 0.000215649605 0.961914062
vt 0.0905151367 0.961914062
vt 0.000422954559 0.9921875
vt 0.0907592773 0.9921875
vt 0.562988281 0.560058594
vt 0.562988281 0.549804688
vt 0.561035156 0.540527344
vt 0.557617188 0.53125
vt 0.561035156 0.569824219
vt 0.552246094 0.522949219
vt 0.557617188 0.578613281
vt 0.545410156 0.516113281
vt 0.552246094 0.586914062
vt 0.537597656 0.510253906
vt 0.545410156 0.594238281
vt 0.555664062 0.474853516
vt 0.569824219 0.484863281
vt 0.528808594 0.506835938
vt 0.537597656 0.599609375
vt 0.540039062 0.468017578
vt 0.519042969 0.504882812
vt 0.528808594 0.603515625
vt 0.522949219 0.464599609
vt 0.509765625 0.504882812
vt 0.519042969 0.60546875
vt 0.505859375 0.464599609
vt 0.500488281 0.506835938
vt 0.509765625 0.60546875
vt 0.489013672 0.468017578
vt 0.491455078 0.510253906
vt 0.500488281 0.603515625
vt 0.473388672 0.474853516
vt 0.483642578 0.516113281
vt 0.491455078 0.599609375
vt 0.458984375 0.484863281
vt 0.476806641 0.522949219
vt 0.483642578 0.594238281
vt 0.446777344 0.497314453
vt 0.471679688 0.53125
vt 0.476806641 0.586914062
vt 0.437255859 0.512207031
vt 0.468017578 0.540527344
vt 0.471679688 0.578613281
vt 0.468017578 0.569824219
vt 0.466064453 0.549804688
vt 0.466064453 0.560058594
vt 0.445800781 0.468017578
vt 0.430664062 0.483642578
vt 0.418945312 0.501953125
vt 0.463378906 0.455810547
vt 0.410888672 0.522460938
vt 0.430908203 0.528808594
vt 0.483154297 0.447265625
vt 0.406738281 0.543945312
vt 0.427490234 0.545898438
vt 0.50390625 0.443115234
vt 0.406738281 0.565917969
vt 0.427490234 0.563964844
vt 0.524902344 0.443115234
vt 0.410888672 0.587890625
vt 0.430908203 0.581542969
vt 0.545898438 0.447265625
vt 0.418945312 0.607910156
vt 0.437255859 0.59765625
vt 0.565429688 0.455810547
vt 0.430664062 0.626464844
vt 0.446777344 0.612792969
vt 0.583007812 0.468017578
vt 0.58203125 0.497314453
vt 0.445800781 0.642089844
vt 0.458984375 0.625
vt 0.598144531 0.483642578
vt 0.591796875 0.512207031
vt 0.463378906 0.654296875
vt 0.473388672 0.635253906
vt 0.609863281 0.501953125
vt 0.598144531 0.528808594
vt 0.483154297 0.662597656
vt 0.489013672 0.642089844
vt 0.618164062 0.522460938
vt 0.6015625 0.545898438
vt 0.50390625 0.666992188
vt 0.505859375 0.645507812
vt 0.622070312 0.543945312
vt 0.6015625 0.563964844
vt 0.524902344 0.666992188
vt 0.522949219 0.645507812
vt 0.622070312 0.565917969
vt 0.598144531 0.581542969
vt 0.545898438 0.662597656
vt 0.540039062 0.642089844
vt 0.618164062 0.587890625
vt 0.591796875 0.59765625
vt 0.565429688 0.654296875
vt 0.555664062 0.635253906
vt 0.609863281 0.607910156
vt 0.58203125 0.612792969
vt 0.583007812 0.642089844
vt 0.569824219 0.625
vt 0.598144531 0.626464844
vt 0.559082031 0.70703125
vt 0.529296875 0.713378906
vt 0.586425781 0.6953125
vt 0.611816406 0.677734375
vt 0.499511719 0.713378906
vt 0.6328125 0.655761719
vt 0.649414062 0.629882812
vt 0.469970703 0.70703125
vt 0.661132812 0.601074219
vt 0.442382812 0.6953125
vt 0.666992188 0.570800781
vt 0.417480469 0.677734375
vt 0.666992188 0.539550781
vt 0.396240234 0.655761719
vt 0.661132812 0.508789062
vt 0.379638672 0.629882812
vt 0.649414062 0.479980469
vt 0.368164062 0.601074219
vt 0.6328125 0.454101562
vt 0.362304688 0.570800781
vt 0.611816406 0.432128906
vt 0.362304688 0.539550781
vt 0.586425781 0.414794922
vt 0.368164062 0.508789062
vt 0.559082031 0.402832031
vt 0.379638672 0.479980469
vt 0.529296875 0.396728516
vt 0.396240234 0.454101562
vt 0.499511719 0.396728516
vt 0.417480469 0.432128906
vt 0.469970703 0.402832031
vt 0.442382812 0.414794922
vt 0.831542969 0.793945312
vt 0.831542969 0.900390625
vt 0.840332031 0.900390625
vt 0.840332031 0.793945312
vt 0.849609375 0.900390625
vt 0.849609375 0.793945312
vt 0.859375 0.900390625
vt 0.859375 0.793945312
vt 0.868652344 0.900390625
vt 0.868652344 0.793945312
vt 0.877441406 0.900390625
vt 0.877441406 0.793945312
vt 0.634765625 0.938476562
vt 0.634765625 0.831542969
vt 0.595703125 0.8203125
vt 0.595703125 0.927246094
vt 0.666992188 0.810058594
vt 0.76953125 0.793945312
vt 0.666992188 0.793945312
vt 0.770019531 0.810058594
vt 0.666992188 0.827636719
vt 0.770019531 0.827636719
vt 0.666992188 0.845703125
vt 0.770019531 0.845703125
vt 0.666992188 0.862792969
vt 0.770019531 0.862792969
vt 0.666992188 0.879394531
vt 0.76953125 0.879394531
vt 0.666992188 0.894042969
vt 0.76953125 0.894042969
vt 0.666992188 0.906738281
vt 0.76953125 0.906738281
vt 0.648925781 0.8203125
vt 0.665039062 0.927246094
vt 0.665039062 0.820800781
vt 0.648925781 0.927246094
vt 0.634765625 0.8203125
vt 0.634765625 0.927246094
vt 0.348876953 0.752441406
vt 0.357177734 0.859375
vt 0.357177734 0.752441406
vt 0.348876953 0.859375
vt 0.33984375 0.752441406
vt 0.33984375 0.859375
vt 0.330322266 0.752441406
vt 0.330322266 0.859375
vt 0.320800781 0.752441406
vt 0.320800781 0.859375
vt 0.311767578 0.752441406
vt 0.311767578 0.859375
vt 0.303222656 0.752441406
vt 0.303222656 0.859375
vt 0.295654297 0.752441406
vt 0.295654297 0.859375
vt 0.289306641 0.752441406
vt 0.289306641 0.859375
vt 0.284667969 0.752929688
vt 0.284667969 0.859375
vt 0.65234375 0.713378906
vt 0.660644531 0.819824219
vt 0.660644531 0.713378906
vt 0.65234375 0.819824219
vt 0.641113281 0.713378906
vt 0.641113281 0.8203125
vt 0.627441406 0.713378906
vt 0.627441406 0.8203125
vt 0.612304688 0.713867188
vt 0.612304688 0.8203125
vt 0.595703125 0.713867188
vt 0.595703125 0.8203125
vt 0.770019531 0.793945312
vt 0.770019531 0.900878906
vt 0.777832031 0.900390625
vt 0.777832031 0.793945312
vt 0.786621094 0.900390625
vt 0.786621094 0.793945312
vt 0.795898438 0.900390625
vt 0.795898438 0.793945312
vt 0.805175781 0.900390625
vt 0.805175781 0.793945312
vt 0.814453125 0.900390625
vt 0.814453125 0.793945312
vt 0.823730469 0.900390625
vt 0.823730469 0.793945312
vt 0.831542969 0.900390625
vt 0.831542969 0.793945312
vt 0.581542969 0.723632812
vt 0.571289062 0.764648438
vt 0.595703125 0.733398438
vt 0.563476562 0.758789062
vt 0.565917969 0.716796875
vt 0.554199219 0.755371094
vt 0.548828125 0.713378906
vt 0.544921875 0.753417969
vt 0.531738281 0.713378906
vt 0.535644531 0.753417969
vt 0.515136719 0.716796875
vt 0.526367188 0.755371094
vt 0.499023438 0.723632812
vt 0.517578125 0.758789062
vt 0.484863281 0.733398438
vt 0.509277344 0.764648438
vt 0.47265625 0.74609375
vt 0.502441406 0.771484375
vt 0.463134766 0.760742188
vt 0.497314453 0.779785156
vt 0.456542969 0.77734375
vt 0.493652344 0.7890625
vt 0.453369141 0.794433594
vt 0.491943359 0.798828125
vt 0.453369141 0.8125
vt 0.491943359 0.80859375
vt 0.456542969 0.830078125
vt 0.493652344 0.818359375
vt 0.463134766 0.846191406
vt 0.497314453 0.827636719
vt 0.47265625 0.861328125
vt 0.502441406 0.835449219
vt 0.484863281 0.874023438
vt 0.509277344 0.842773438
vt 0.499023438 0.883789062
vt 0.517578125 0.848144531
vt 0.515136719 0.890625
vt 0.526367188 0.852050781
vt 0.531738281 0.894042969
vt 0.535644531 0.854003906
vt 0.548828125 0.894042969
vt 0.544921875 0.854003906
vt 0.565917969 0.890625
vt 0.554199219 0.852050781
vt 0.581542969 0.883789062
vt 0.563476562 0.848144531
vt 0.595703125 0.873535156
vt 0.571289062 0.842773438
vt 0.284423828 0.875488281
vt 0.181640625 0.890136719
vt 0.284423828 0.890136719
vt 0.181518555 0.875488281
vt 0.284179688 0.858886719
vt 0.181518555 0.858886719
vt 0.284179688 0.841308594
vt 0.181396484 0.841308594
vt 0.284179688 0.823730469
vt 0.181396484 0.823730469
vt 0.284179688 0.806152344
vt 0.181518555 0.806152344
vt 0.284423828 0.789550781
vt 0.181518555 0.789550781
vt 0.284423828 0.774902344
vt 0.181640625 0.774902344
vt 0.284667969 0.762207031
vt 0.181762695 0.762207031
vt 0.284667969 0.752441406
vt 0.182006836 0.752441406
vt 0.901367188 0.678710938
vt 0.906738281 0.785644531
vt 0.906738281 0.678710938
vt 0.901367188 0.785644531
vt 0.895019531 0.678710938
vt 0.895019531 0.785644531
vt 0.877441406 0.8046875
vt 0.877441406 0.911621094
vt 0.916015625 0.900390625
vt 0.916015625 0.793945312
vt 0.0905761719 0.678710938
vt 0.0656738281 0.710449219
vt 0.0953369141 0.730957031
vt 0.113830566 0.6953125
vt 0.0708007812 0.658203125
vt 0.128295898 0.745117188
vt 0.040435791 0.684082031
vt 0.139648438 0.706054688
vt 0.0552368164 0.634277344
vt 0.163208008 0.752441406
vt 0.020614624 0.653320312
vt 0.167114258 0.711914062
vt 0.0445251465 0.607421875
vt 0.198974609 0.752441406
vt 0.00695800781 0.619140625
vt 0.195068359 0.711914062
vt 0.0390625 0.579101562
vt 0.233886719 0.745117188
vt 5.96046448E-08 0.583007812
vt 0.22253418 0.706054688
vt 0.0390625 0.549804688
vt 0.266845703 0.730957031
vt 0 0.545898438
vt 0.248413086 0.6953125
vt 0.0445251465 0.521484375
vt 0.296630859 0.710449219
vt 0.00695800781 0.509277344
vt 0.271728516 0.678710938
vt 0.0552368164 0.494384766
vt 0.321777344 0.684082031
vt 0.020614624 0.475341797
vt 0.291503906 0.658203125
vt 0.0708007812 0.470214844
vt 0.341552734 0.653320312
vt 0.040435791 0.444335938
vt 0.306884766 0.634277344
vt 0.0905761719 0.449707031
vt 0.355224609 0.619140625
vt 0.0656738281 0.418212891
vt 0.317626953 0.607421875
vt 0.113830566 0.43359375
vt 0.362304688 0.583007812
vt 0.0953369141 0.397705078
vt 0.323242188 0.579101562
vt 0.139648438 0.422363281
vt 0.362304688 0.545898438
vt 0.128295898 0.383544922
vt 0.323242188 0.549804688
vt 0.167114258 0.416748047
vt 0.355224609 0.509277344
vt 0.163208008 0.376220703
vt 0.317626953 0.521484375
vt 0.195068359 0.416748047
vt 0.341552734 0.475341797
vt 0.198974609 0.376220703
vt 0.306884766 0.494384766
vt 0.22253418 0.422363281
vt 0.321777344 0.444335938
vt 0.233886719 0.383544922
vt 0.291503906 0.470214844
vt 0.248413086 0.43359375
vt 0.296630859 0.418212891
vt 0.266845703 0.397705078
vt 0.271728516 0.449707031
vn -0.195068359 -0.0272521973 -0.98046875
vn -0.95703125 -0.268066406 0.108520508
vn -2.62260437E-06 -0.998535156 0.0531616211
vn -2.38418579E-07 -0.0272521973 -0.999511719
vn -0.195068359 -5.96046448E-08 -0.980957031
vn 0.95703125 -0.268066406 0.108520508
vn -2.38418579E-07 -1.1920929E-07 -1
vn -0.157714844 0.588378906 -0.79296875
vn -2.38418579E-07 0.588378906 -0.80859375
vn 0.195068359 -0.0272521973 -0.98046875
vn 0.969726562 -0.138549805 0.200317383
vn 0.195068359 -1.1920929E-07 -0.980957031
vn 0.157714844 0.588378906 -0.79296875
vn 0.382568359 -0.0272521973 -0.923339844
vn 0.951171875 -0.0935668945 0.293457031
vn 0.382568359 -1.1920929E-07 -0.923828125
vn 0.309570312 0.588378906 -0.747070312
vn 0.555175781 -0.0272521973 -0.831054688
vn 0.920410156 -0.071105957 0.385009766
vn 0.555664062 -1.1920929E-07 -0.831542969
vn 0.44921875 0.588378906 -0.672363281
vn 0.70703125 -0.0272521973 -0.70703125
vn 0.879394531 -0.057800293 0.472900391
vn 0.70703125 -1.1920929E-07 -0.70703125
vn 0.571777344 0.588378906 -0.571777344
vn 0.831054688 -0.0272521973 -0.555175781
vn 0.829101562 -0.049041748 0.556640625
vn 0.831542969 -1.1920929E-07 -0.555664062
vn 0.672363281 0.588378906 -0.44921875
vn 0.923339844 -0.0272521973 -0.382568359
vn 0.770996094 -0.04296875 0.635253906
vn 0.923828125 -1.78813934E-07 -0.382568359
vn 0.747070312 0.588378906 -0.309570312
vn 0.98046875 -0.0272521973 -0.195068359
vn 0.705566406 -0.0385742188 0.707519531
vn 0.999511719 -0.0272521973 -8.94069672E-07
vn 0.980957031 -1.78813934E-07 -0.195068359
vn 0.79296875 0.588378906 -0.157714844
vn 1 -5.96046448E-08 -8.94069672E-07
vn 0.80859375 0.588378906 -6.55651093E-07
vn 0.195068359 -0.0272521973 0.98046875
vn 0.0978393555 -0.0274047852 0.994628906
vn 2.38418579E-07 -0.0272827148 0.999511719
vn 4.76837158E-07 -0.0272521973 0.999511719
vn 0.195068359 5.96046448E-08 0.980957031
vn -0.0978393555 -0.0274047852 0.994628906
vn 6.55651093E-07 5.96046448E-08 1
vn 0.157714844 0.588378906 0.79296875
vn 7.74860382E-07 0.588378906 0.80859375
vn -0.195068359 -0.0272521973 0.98046875
vn -0.194702148 -0.0278167725 0.98046875
vn -0.195068359 5.96046448E-08 0.980957031
vn -0.157714844 0.588378906 0.79296875
vn -0.382568359 -0.0272521973 0.923339844
vn -0.289794922 -0.028503418 0.956542969
vn -0.382568359 1.1920929E-07 0.923828125
vn -0.309570312 0.588378906 0.747070312
vn -0.555175781 -0.0272521973 0.831054688
vn -0.382080078 -0.0295257568 0.923828125
vn -0.555664062 1.1920929E-07 0.831542969
vn -0.44921875 0.588378906 0.672363281
vn -0.70703125 -0.0272521973 0.70703125
vn -0.470458984 -0.0309295654 0.881835938
vn -0.831054688 -0.0272521973 0.555175781
vn -0.70703125 1.1920929E-07 0.70703125
vn -0.571777344 0.588378906 0.571777344
vn -0.831542969 1.1920929E-07 0.555664062
vn -0.923339844 -0.0272521973 0.382568359
vn -0.672363281 0.588378906 0.44921875
vn -0.923828125 1.1920929E-07 0.382568359
vn -0.747070312 0.588378906 0.309570312
vn 0.999511719 -0.0272521973 -8.94069672E-07
vn 0.705566406 -0.0385742188 0.707519531
vn 0.633300781 -0.0352783203 0.7734375
vn 0.98046875 -0.0272521973 0.195068359
vn 1 -5.96046448E-08 -8.94069672E-07
vn 0.5546875 -0.0328063965 0.831542969
vn 0.980957031 -0 0.195068359
vn 0.80859375 0.588378906 -6.55651093E-07
vn 0.79296875 0.588378906 0.157714844
vn 0.923339844 -0.0272521973 0.382568359
vn 0.470458984 -0.0309295654 0.881835938
vn 0.923828125 0 0.382568359
vn 0.747070312 0.588378906 0.309570312
vn 0.831054688 -0.0272521973 0.555175781
vn 0.382080078 -0.0295257568 0.923828125
vn 0.831542969 -5.96046448E-08 0.555664062
vn 0.672363281 0.588378906 0.44921875
vn 0.70703125 -0.0272521973 0.70703125
vn 0.289794922 -0.028503418 0.956542969
vn 0.70703125 -5.96046448E-08 0.70703125
vn 0.571777344 0.588378906 0.571777344
vn 0.555175781 -0.0272521973 0.831054688
vn 0.194702148 -0.0278167725 0.98046875
vn 0.555664062 0 0.831542969
vn 0.44921875 0.588378906 0.672363281
vn 0.382568359 -0.0272521973 0.923339844
vn 0.0978393555 -0.0274047852 0.994628906
vn 0.195068359 -0.0272521973 0.98046875
vn 0.382568359 5.96046448E-08 0.923828125
vn 0.309570312 0.588378906 0.747070312
vn 0.195068359 5.96046448E-08 0.980957031
vn 0.157714844 0.588378906 0.79296875
vn -0.831054688 -0.0272521973 0.555175781
vn -0.470458984 -0.0309295654 0.881835938
vn -0.5546875 -0.0328063965 0.831542969
vn -0.923339844 -0.0272521973 0.382568359
vn -0.633300781 -0.0352783203 0.7734375
vn -0.98046875 -0.0272521973 0.195068359
vn -0.923828125 1.1920929E-07 0.382568359
vn -0.705566406 -0.0385742188 0.707519531
vn -0.980957031 5.96046448E-08 0.195068359
vn -0.747070312 0.588378906 0.309570312
vn -0.79296875 0.588378906 0.157714844
vn -0.999511719 -0.0272521973 -2.38418579E-07
vn -0.770996094 -0.04296875 0.635253906
vn -1 5.96046448E-08 -2.38418579E-07
vn -0.80859375 0.588378906 -2.98023224E-07
vn -0.98046875 -0.0272521973 -0.195068359
vn -0.829101562 -0.049041748 0.556640625
vn -0.980957031 5.96046448E-08 -0.195068359
vn -0.79296875 0.588378906 -0.157714844
vn -0.923339844 -0.0272521973 -0.382568359
vn -0.879394531 -0.057800293 0.472900391
vn -0.923828125 5.96046448E-08 -0.382568359
vn -0.747070312 0.588378906 -0.309570312
vn -0.831054688 -0.0272521973 -0.555175781
vn -0.920410156 -0.071105957 0.385009766
vn -0.831542969 5.96046448E-08 -0.555664062
vn -0.672363281 0.588378906 -0.44921875
vn -0.70703125 -0.0272521973 -0.70703125
vn -0.951171875 -0.0935668945 0.293457031
vn -0.70703125 5.96046448E-08 -0.70703125
vn -0.571777344 0.588378906 -0.571777344
vn -0.555175781 -0.0272521973 -0.831054688
vn -0.969726562 -0.138549805 0.200317383
vn -0.555664062 0 -0.831542969
vn -0.44921875 0.588378906 -0.672363281
vn -0.382568359 -0.0272521973 -0.923339844
vn -0.95703125 -0.268066406 0.108520508
vn -0.195068359 -0.0272521973 -0.98046875
vn -0.382568359 -0 -0.923828125
vn -0.309570312 0.588378906 -0.747070312
vn -0.195068359 -5.96046448E-08 -0.980957031
vn -0.157714844 0.588378906 -0.79296875
vn 0.866210938 0.468994141 -0.172363281
vn 0.728027344 -0.685546875 -7.15255737E-07
vn 0.883300781 0.468994141 -7.15255737E-07
vn 0.713867188 -0.685546875 -0.141967773
vn 0.815917969 0.468994141 -0.337890625
vn 0.672363281 -0.685546875 -0.278564453
vn 0.734375 0.468994141 -0.490722656
vn 0.604980469 -0.685546875 -0.404296875
vn 0.624511719 0.468994141 -0.624511719
vn 0.514648438 -0.685546875 -0.514648438
vn 0.490722656 0.468994141 -0.734375
vn 0.404296875 -0.685546875 -0.604980469
vn 0.337890625 0.468994141 -0.815917969
vn 0.278564453 -0.685546875 -0.672363281
vn 0.172363281 0.468994141 -0.866210938
vn 0.141967773 -0.685546875 -0.713867188
vn -2.98023224E-07 0.468994141 -0.883300781
vn -2.38418579E-07 -0.685546875 -0.728027344
vn -0.172363281 0.468994141 -0.866210938
vn -0.141967773 -0.685546875 -0.713867188
vn 0.141967773 -0.685546875 -0.713867188
vn -2.38418579E-07 -0.685546875 -0.728027344
vn -0.141967773 -0.685546875 -0.713867188
vn 0.278564453 -0.685546875 -0.672363281
vn -0.278564453 -0.685546875 -0.672363281
vn 0.404296875 -0.685546875 -0.604980469
vn -0.404296875 -0.685546875 -0.604980469
vn 0.514648438 -0.685546875 -0.514648438
vn -0.514648438 -0.685546875 -0.514648438
vn 0.604980469 -0.685546875 -0.404296875
vn -0.604980469 -0.685546875 -0.404296875
vn 0.672363281 -0.685546875 -0.278564453
vn -0.672363281 -0.685546875 -0.278564453
vn 0.713867188 -0.685546875 -0.141967773
vn -0.713867188 -0.685546875 -0.141967773
vn 0.728027344 -0.685546875 -7.15255737E-07
vn -0.728027344 -0.685546875 0
vn 0.713867188 -0.685546875 0.141967773
vn -0.713867188 -0.685546875 0.141967773
vn 0.672363281 -0.685546875 0.278564453
vn -0.672363281 -0.685546875 0.278564453
vn 0.604980469 -0.685546875 0.404296875
vn -0.604980469 -0.685546875 0.404296875
vn 0.514648438 -0.685546875 0.514648438
vn -0.514648438 -0.685546875 0.514648438
vn 0.404296875 -0.685546875 0.604980469
vn -0.404296875 -0.685546875 0.604980469
vn 0.278564453 -0.685546875 0.672363281
vn -0.278564453 -0.685546875 0.672363281
vn 0.141967773 -0.685546875 0.713867188
vn -0.141967773 -0.685546875 0.713867188
vn 0 -0.685546875 0.728027344
vn -0.337890625 0.468994141 -0.815917969
vn -0.141967773 -0.685546875 -0.713867188
vn -0.172363281 0.468994141 -0.866210938
vn -0.278564453 -0.685546875 -0.672363281
vn -0.490722656 0.468994141 -0.734375
vn -0.404296875 -0.685546875 -0.604980469
vn -0.624511719 0.468994141 -0.624511719
vn -0.514648438 -0.685546875 -0.514648438
vn -0.734375 0.468994141 -0.490722656
vn -0.604980469 -0.685546875 -0.404296875
vn -0.815917969 0.468994141 -0.337890625
vn -0.672363281 -0.685546875 -0.278564453
vn -0.866210938 0.468994141 -0.172363281
vn -0.713867188 -0.685546875 -0.141967773
vn -0.883300781 0.468994141 -1.1920929E-07
vn -0.728027344 -0.685546875 0
vn -0.866210938 0.468994141 0.172363281
vn -0.713867188 -0.685546875 0.141967773
vn -0.815917969 0.468994141 0.337890625
vn -0.672363281 -0.685546875 0.278564453
vn 0.172363281 0.468994141 0.866210938
vn 0.141967773 -0.685546875 0.713867188
vn 0 -0.685546875 0.728027344
vn 5.96046448E-08 0.468994141 0.883300781
vn -0.141967773 -0.685546875 0.713867188
vn -0.172363281 0.468994141 0.866210938
vn -0.278564453 -0.685546875 0.672363281
vn -0.337890625 0.468994141 0.815917969
vn -0.404296875 -0.685546875 0.604980469
vn -0.490722656 0.468994141 0.734375
vn -0.514648438 -0.685546875 0.514648438
vn -0.624511719 0.468994141 0.624511719
vn -0.604980469 -0.685546875 0.404296875
vn -0.734375 0.468994141 0.490722656
vn -0.672363281 -0.685546875 0.278564453
vn -0.815917969 0.468994141 0.337890625
vn 0.337890625 0.468994141 0.815917969
vn 0.141967773 -0.685546875 0.713867188
vn 0.172363281 0.468994141 0.866210938
vn 0.278564453 -0.685546875 0.672363281
vn 0.490722656 0.468994141 0.734375
vn 0.404296875 -0.685546875 0.604980469
vn 0.624511719 0.468994141 0.624511719
vn 0.514648438 -0.685546875 0.514648438
vn 0.734375 0.468994141 0.490722656
vn 0.604980469 -0.685546875 0.404296875
vn 0.815917969 0.468994141 0.337890625
vn 0.672363281 -0.685546875 0.278564453
vn 0.866210938 0.468994141 0.172363281
vn 0.713867188 -0.685546875 0.141967773
vn 0.883300781 0.468994141 -7.15255737E-07
vn 0.728027344 -0.685546875 -7.15255737E-07
vn 0.141967773 0.685546875 0.713867188
vn 6.55651093E-07 0.685546875 0.728027344
vn -0.141967773 0.685546875 0.713867188
vn -0.278564453 0.685546875 0.672363281
vn 0.278564453 0.685546875 0.672363281
vn -0.404296875 0.685546875 0.604980469
vn 0.404296875 0.685546875 0.604980469
vn 0.126831055 0.890625 0.437011719
vn 0.514648438 0.685546875 0.514648438
vn 0.118347168 0.989746094 -0.0791015625
vn 0.604980469 0.685546875 0.404296875
vn 0.221069336 0.963867188 -0.147705078
vn 0.512207031 0.833007812 -0.210327148
vn 0.131469727 0.989746094 -0.054473877
vn 0.672363281 0.685546875 0.278564453
vn 0.245605469 0.963867188 -0.101745605
vn 0.139648438 0.989746094 -0.0277709961
vn 0.713867188 0.685546875 0.141967773
vn 0.260742188 0.963867188 -0.0518493652
vn 0.142333984 0.989746094 -4.17232513E-07
vn 0.728027344 0.685546875 6.55651093E-07
vn 0.265869141 0.963867188 -4.76837158E-07
vn 0.139648438 0.989746094 0.0277709961
vn 0.713867188 0.685546875 -0.141967773
vn 0.260742188 0.963867188 0.0518493652
vn 0.131469727 0.989746094 0.054473877
vn 0.672363281 0.685546875 -0.278564453
vn 0.245605469 0.963867188 0.101745605
vn 0.118347168 0.989746094 0.0791015625
vn 0.604980469 0.685546875 -0.404296875
vn 0.221069336 0.963867188 0.147705078
vn 0.100646973 0.989746094 0.100646973
vn 0.514648438 0.685546875 -0.514648438
vn 0.187988281 0.963867188 0.187988281
vn 0.209716797 0.890625 -0.403808594
vn 0.404296875 0.685546875 -0.604980469
vn 0.461181641 0.833007812 0.306152344
vn -0.278564453 0.685546875 -0.672363281
vn 0.278564453 0.685546875 -0.672363281
vn 0.141967773 0.685546875 -0.713867188
vn -0.141967773 0.685546875 -0.713867188
vn -0 0.685546875 -0.728027344
vn 0.221069336 0.963867188 0.147705078
vn 0.187988281 0.963867188 0.187988281
vn 0.147705078 0.963867188 0.221069336
vn 0.245605469 0.963867188 0.101745605
vn 0.101745605 0.963867188 0.245605469
vn 0.298828125 0.625 0.721191406
vn 0.260742188 0.963867188 0.0518493652
vn 0.0518493652 0.963867188 0.260742188
vn 0.15234375 0.625 0.765625
vn 0.265869141 0.963867188 -1.78813934E-07
vn 1.1920929E-07 0.963867188 0.265869141
vn 1.78813934E-07 0.625 0.780761719
vn 0.260742188 0.963867188 -0.0518493652
vn -0.0518493652 0.963867188 0.260742188
vn -0.15234375 0.625 0.765625
vn 0.245605469 0.963867188 -0.101745605
vn -0.101745605 0.963867188 0.245605469
vn -0.298828125 0.625 0.721191406
vn 0.221069336 0.963867188 -0.147705078
vn -0.147705078 0.963867188 0.221069336
vn -0.433837891 0.625 0.649414062
vn 0.187988281 0.963867188 -0.187988281
vn 0.433837891 0.625 -0.649414062
vn -0.187988281 0.963867188 0.187988281
vn -0.552246094 0.625 0.552246094
vn 0.147705078 0.963867188 -0.221069336
vn 0.298828125 0.625 -0.721191406
vn -0.221069336 0.963867188 0.147705078
vn -0.649414062 0.625 0.433837891
vn 0.101745605 0.963867188 -0.245605469
vn 0.15234375 0.625 -0.765625
vn -0.245605469 0.963867188 0.101745605
vn -0.721191406 0.625 0.298828125
vn 0.0518493652 0.963867188 -0.260742188
vn -3.57627869E-07 0.625 -0.780761719
vn -0.260742188 0.963867188 0.0518493652
vn -0.765625 0.625 0.15234375
vn -1.78813934E-07 0.963867188 -0.265869141
vn -0.15234375 0.625 -0.765625
vn -0.265869141 0.963867188 -1.1920929E-07
vn -0.780761719 0.625 -1.78813934E-07
vn -0.0518493652 0.963867188 -0.260742188
vn -0.298828125 0.625 -0.721191406
vn -0.260742188 0.963867188 -0.0518493652
vn -0.765625 0.625 -0.15234375
vn -0.101745605 0.963867188 -0.245605469
vn -0.433837891 0.625 -0.649414062
vn -0.245605469 0.963867188 -0.101745605
vn -0.721191406 0.625 -0.298828125
vn -0.147705078 0.963867188 -0.221069336
vn -0.552246094 0.625 -0.552246094
vn -0.221069336 0.963867188 -0.147705078
vn -0.649414062 0.625 -0.433837891
vn -0.187988281 0.963867188 -0.187988281
vn -0.79296875 0.588378906 -0.157714844
vn -0.80859375 0.588378906 -2.98023224E-07
vn -0.747070312 0.588378906 -0.309570312
vn -0.672363281 0.588378906 -0.44921875
vn -0.79296875 0.588378906 0.157714844
vn -0.571777344 0.588378906 -0.571777344
vn -0.44921875 0.588378906 -0.672363281
vn -0.747070312 0.588378906 0.309570312
vn -0.309570312 0.588378906 -0.747070312
vn -0.672363281 0.588378906 0.44921875
vn -0.157714844 0.588378906 -0.79296875
vn -0.571777344 0.588378906 0.571777344
vn -2.38418579E-07 0.588378906 -0.80859375
vn -0.44921875 0.588378906 0.672363281
vn 0.157714844 0.588378906 -0.79296875
vn -0.309570312 0.588378906 0.747070312
vn 0.309570312 0.588378906 -0.747070312
vn -0.157714844 0.588378906 0.79296875
vn 0.44921875 0.588378906 -0.672363281
vn 7.74860382E-07 0.588378906 0.80859375
vn 0.571777344 0.588378906 -0.571777344
vn 0.157714844 0.588378906 0.79296875
vn 0.672363281 0.588378906 -0.44921875
vn 0.309570312 0.588378906 0.747070312
vn 0.747070312 0.588378906 -0.309570312
vn 0.44921875 0.588378906 0.672363281
vn 0.79296875 0.588378906 -0.157714844
vn 0.571777344 0.588378906 0.571777344
vn 0.80859375 0.588378906 -6.55651093E-07
vn 0.672363281 0.588378906 0.44921875
vn 0.79296875 0.588378906 0.157714844
vn 0.747070312 0.588378906 0.309570312
vn 0.141967773 0.685546875 0.713867188
vn 0.111694336 0.819824219 0.561523438
vn -2.98023224E-07 0.819824219 0.572265625
vn 6.55651093E-07 0.685546875 0.728027344
vn -0.111694336 0.819824219 0.561523438
vn -0.141967773 0.685546875 0.713867188
vn -0.219116211 0.819824219 0.528808594
vn -0.278564453 0.685546875 0.672363281
vn -0.318115234 0.819824219 0.476074219
vn -0.404296875 0.685546875 0.604980469
vn 0.0853881836 0.665039062 0.7421875
vn 0.126831055 0.890625 0.437011719
vn 0.461181641 0.833007812 0.306152344
vn 0.839355469 0.486083984 0.242919922
vn 0.228515625 0.665039062 -0.7109375
vn 0.209716797 0.890625 -0.403808594
vn 1.78813934E-07 0.625 0.780761719
vn 0.157714844 0.588378906 0.79296875
vn 0.15234375 0.625 0.765625
vn 5.96046448E-07 0.588378906 0.80859375
vn -0.15234375 0.625 0.765625
vn -0.157714844 0.588378906 0.79296875
vn -0.298828125 0.625 0.721191406
vn -0.309570312 0.588378906 0.747070312
vn -0.433837891 0.625 0.649414062
vn -0.44921875 0.588378906 0.672363281
vn -0.552246094 0.625 0.552246094
vn -0.571777344 0.588378906 0.571777344
vn -0.649414062 0.625 0.433837891
vn -0.672363281 0.588378906 0.44921875
vn -0.721191406 0.625 0.298828125
vn -0.747070312 0.588378906 0.309570312
vn 0.298828125 0.625 0.721191406
vn 0.839355469 0.486083984 0.242919922
vn 0.461181641 0.833007812 0.306152344
vn 0.309570312 0.588378906 0.747070312
vn 0.15234375 0.625 0.765625
vn 0.157714844 0.588378906 0.79296875
vn 0.713867188 0.685546875 -0.141967773
vn 0.572265625 0.819824219 1.31130219E-06
vn 0.728027344 0.685546875 6.55651093E-07
vn 0.561523438 0.819824219 -0.111694336
vn 0.672363281 0.685546875 -0.278564453
vn 0.528808594 0.819824219 -0.219116211
vn 0.604980469 0.685546875 -0.404296875
vn 0.476074219 0.819824219 -0.318115234
vn 0.514648438 0.685546875 -0.514648438
vn 0.404785156 0.819824219 -0.404785156
vn 0.404296875 0.685546875 -0.604980469
vn 0.318115234 0.819824219 -0.476074219
vn 0.278564453 0.685546875 -0.672363281
vn 0.219116211 0.819824219 -0.528808594
vn 0.141967773 0.685546875 -0.713867188
vn 0.111694336 0.819824219 -0.561523438
vn -0 0.685546875 -0.728027344
vn 5.36441803E-07 0.819824219 -0.572265625
vn -0.141967773 0.685546875 -0.713867188
vn -0.111694336 0.819824219 -0.561523438
vn -3.57627869E-07 0.625 -0.780761719
vn -0.157714844 0.588378906 -0.79296875
vn -0.15234375 0.625 -0.765625
vn -8.94069672E-07 0.588378906 -0.80859375
vn 0.15234375 0.625 -0.765625
vn 0.157714844 0.588378906 -0.79296875
vn 0.298828125 0.625 -0.721191406
vn 0.309570312 0.588378906 -0.747070312
vn 0.433837891 0.625 -0.649414062
vn 0.44921875 0.588378906 -0.672363281
vn 0.512207031 0.833007812 -0.210327148
vn 0.870605469 0.486083984 -0.0745239258
vn 0.728027344 0.685546875 6.55651093E-07
vn 0.572265625 0.819824219 1.31130219E-06
vn 0.561523438 0.819824219 0.111694336
vn 0.713867188 0.685546875 0.141967773
vn 0.528808594 0.819824219 0.219116211
vn 0.672363281 0.685546875 0.278564453
vn 0.476074219 0.819824219 0.318115234
vn 0.604980469 0.685546875 0.404296875
vn 0.404785156 0.819824219 0.404785156
vn 0.514648438 0.685546875 0.514648438
vn 0.318115234 0.819824219 0.476074219
vn 0.404296875 0.685546875 0.604980469
vn 0.219116211 0.819824219 0.528808594
vn 0.278564453 0.685546875 0.672363281
vn 0.111694336 0.819824219 0.561523438
vn 0.141967773 0.685546875 0.713867188
vn 0.309570312 0.588378906 0.747070312
vn 0.228515625 0.665039062 -0.7109375
vn 0.839355469 0.486083984 0.242919922
vn -0.219116211 0.819824219 -0.528808594
vn 0.157714844 0.588378906 0.79296875
vn -0.111694336 0.819824219 -0.561523438
vn 5.96046448E-07 0.588378906 0.80859375
vn 5.36441803E-07 0.819824219 -0.572265625
vn -0.157714844 0.588378906 0.79296875
vn 0.111694336 0.819824219 -0.561523438
vn -0.309570312 0.588378906 0.747070312
vn 0.219116211 0.819824219 -0.528808594
vn -0.44921875 0.588378906 0.672363281
vn 0.318115234 0.819824219 -0.476074219
vn -0.571777344 0.588378906 0.571777344
vn 0.404785156 0.819824219 -0.404785156
vn -0.672363281 0.588378906 0.44921875
vn 0.476074219 0.819824219 -0.318115234
vn -0.747070312 0.588378906 0.309570312
vn 0.528808594 0.819824219 -0.219116211
vn -0.79296875 0.588378906 0.157714844
vn 0.561523438 0.819824219 -0.111694336
vn -0.80859375 0.588378906 2.38418579E-07
vn 0.572265625 0.819824219 1.31130219E-06
vn -0.79296875 0.588378906 -0.157714844
vn 0.561523438 0.819824219 0.111694336
vn -0.747070312 0.588378906 -0.309570312
vn 0.528808594 0.819824219 0.219116211
vn -0.672363281 0.588378906 -0.44921875
vn 0.476074219 0.819824219 0.318115234
vn -0.571777344 0.588378906 -0.571777344
vn 0.404785156 0.819824219 0.404785156
vn -0.44921875 0.588378906 -0.672363281
vn 0.318115234 0.819824219 0.476074219
vn -0.309570312 0.588378906 -0.747070312
vn 0.219116211 0.819824219 0.528808594
vn -0.157714844 0.588378906 -0.79296875
vn 0.111694336 0.819824219 0.561523438
vn -8.94069672E-07 0.588378906 -0.80859375
vn -2.98023224E-07 0.819824219 0.572265625
vn 0.157714844 0.588378906 -0.79296875
vn -0.111694336 0.819824219 0.561523438
vn 0.309570312 0.588378906 -0.747070312
vn -0.219116211 0.819824219 0.528808594
vn 0.44921875 0.588378906 -0.672363281
vn -0.318115234 0.819824219 0.476074219
vn 0.870605469 0.486083984 -0.0745239258
vn 0.0853881836 0.665039062 0.7421875
vn -0.765625 0.625 0.15234375
vn -0.747070312 0.588378906 0.309570312
vn -0.721191406 0.625 0.298828125
vn -0.79296875 0.588378906 0.157714844
vn -0.780761719 0.625 -1.78813934E-07
vn -0.80859375 0.588378906 2.38418579E-07
vn -0.765625 0.625 -0.15234375
vn -0.79296875 0.588378906 -0.157714844
vn -0.721191406 0.625 -0.298828125
vn -0.747070312 0.588378906 -0.309570312
vn -0.649414062 0.625 -0.433837891
vn -0.672363281 0.588378906 -0.44921875
vn -0.552246094 0.625 -0.552246094
vn -0.571777344 0.588378906 -0.571777344
vn -0.433837891 0.625 -0.649414062
vn -0.44921875 0.588378906 -0.672363281
vn -0.298828125 0.625 -0.721191406
vn -0.309570312 0.588378906 -0.747070312
vn -0.15234375 0.625 -0.765625
vn -0.157714844 0.588378906 -0.79296875
vn -0.278564453 0.685546875 -0.672363281
vn -0.111694336 0.819824219 -0.561523438
vn -0.141967773 0.685546875 -0.713867188
vn -0.219116211 0.819824219 -0.528808594
vn 0.209716797 0.890625 -0.403808594
vn 0.228515625 0.665039062 -0.7109375
vn 0.126831055 0.890625 0.437011719
vn 0.0853881836 0.665039062 0.7421875
vn 0.870605469 0.486083984 -0.0745239258
vn 0.512207031 0.833007812 -0.210327148
vn -0.403076172 0.645996094 0.647949219
vn -0.866210938 0.468994141 -0.172363281
vn -0.815917969 0.468994141 -0.337890625
vn -0.403076172 0.685546875 0.605957031
vn -0.388916016 0.611328125 0.689453125
vn -0.734375 0.468994141 -0.490722656
vn -0.883300781 0.468994141 -1.1920929E-07
vn -0.385986328 0.729492188 0.564453125
vn -0.363037109 0.581542969 0.728027344
vn -0.624511719 0.468994141 -0.624511719
vn -0.866210938 0.468994141 0.172363281
vn -0.349121094 0.775878906 0.525878906
vn -0.327392578 0.556640625 0.763183594
vn -0.490722656 0.468994141 -0.734375
vn -0.815917969 0.468994141 0.337890625
vn -0.290283203 0.821289062 0.491455078
vn -0.283935547 0.536621094 0.794433594
vn -0.337890625 0.468994141 -0.815917969
vn -0.734375 0.468994141 0.490722656
vn -0.209594727 0.860351562 0.464355469
vn -0.23425293 0.520507812 0.821289062
vn -0.172363281 0.468994141 -0.866210938
vn -0.624511719 0.468994141 0.624511719
vn -0.110229492 0.887695312 0.447021484
vn -0.1796875 0.508300781 0.842285156
vn -2.98023224E-07 0.468994141 -0.883300781
vn -0.490722656 0.468994141 0.734375
vn -2.38418579E-07 0.897460938 0.440917969
vn -0.121704102 0.499755859 0.857421875
vn 0.172363281 0.468994141 -0.866210938
vn -0.337890625 0.468994141 0.815917969
vn 0.110229492 0.887695312 0.447021484
vn -0.0614318848 0.494873047 0.866699219
vn 0.337890625 0.468994141 -0.815917969
vn -0.172363281 0.468994141 0.866210938
vn 0.209594727 0.860351562 0.464355469
vn 5.96046448E-08 0.493164062 0.870117188
vn 0.490722656 0.468994141 -0.734375
vn 5.96046448E-08 0.468994141 0.883300781
vn 0.290283203 0.821289062 0.491455078
vn 0.0614318848 0.494873047 0.866699219
vn 0.624511719 0.468994141 -0.624511719
vn 0.172363281 0.468994141 0.866210938
vn 0.349121094 0.775878906 0.525878906
vn 0.121704102 0.499755859 0.857421875
vn 0.734375 0.468994141 -0.490722656
vn 0.337890625 0.468994141 0.815917969
vn 0.385986328 0.729492188 0.564453125
vn 0.1796875 0.508300781 0.842285156
vn 0.815917969 0.468994141 -0.337890625
vn 0.490722656 0.468994141 0.734375
vn 0.403076172 0.685546875 0.605957031
vn 0.23425293 0.520507812 0.821289062
vn 0.866210938 0.468994141 -0.172363281
vn 0.624511719 0.468994141 0.624511719
vn 0.403076172 0.645996094 0.647949219
vn 0.283935547 0.536621094 0.794433594
vn 0.883300781 0.468994141 -7.15255737E-07
vn 0.734375 0.468994141 0.490722656
vn 0.388916016 0.611328125 0.689453125
vn 0.327392578 0.556640625 0.763183594
vn 0.866210938 0.468994141 0.172363281
vn 0.815917969 0.468994141 0.337890625
vn 0.363037109 0.581542969 0.728027344
g nitro_cylinder_0
f 3/3/3 2/2/2 1/1/1
f 4/4/4 3/3/3 1/1/1
f 1/1/1 5/5/5 4/4/4
f 6/6/6 3/3/3 4/4/4
f 5/5/5 7/7/7 4/4/4
f 5/5/5 8/8/8 7/7/7
f 8/8/8 9/9/9 7/7/7
f 10/10/10 6/6/6 4/4/4
f 4/4/4 7/7/7 10/10/10
f 11/11/11 6/6/6 10/10/10
f 7/7/7 9/9/9 12/12/12
f 7/7/7 12/12/12 10/10/10
f 9/9/9 13/13/13 12/12/12
f 14/14/14 11/11/11 10/10/10
f 10/10/10 12/12/12 14/14/14
f 15/15/15 11/11/11 14/14/14
f 12/12/12 13/13/13 16/16/16
f 12/12/12 16/16/16 14/14/14
f 13/13/13 17/17/17 16/16/16
f 18/18/18 15/15/15 14/14/14
f 14/14/14 16/16/16 18/18/18
f 19/19/19 15/15/15 18/18/18
f 16/16/16 17/17/17 20/20/20
f 16/16/16 20/20/20 18/18/18
f 17/17/17 21/21/21 20/20/20
f 22/22/22 19/19/19 18/18/18
f 18/18/18 20/20/20 22/22/22
f 23/23/23 19/19/19 22/22/22
f 20/20/20 21/21/21 24/24/24
f 20/20/20 24/24/24 22/22/22
f 21/21/21 25/25/25 24/24/24
f 26/26/26 23/23/23 22/22/22
f 22/22/22 24/24/24 26/26/26
f 27/27/27 23/23/23 26/26/26
f 24/24/24 25/25/25 28/28/28
f 24/24/24 28/28/28 26/26/26
f 25/25/25 29/29/29 28/28/28
f 30/30/30 27/27/27 26/26/26
f 26/26/26 28/28/28 30/30/30
f 31/31/31 27/27/27 30/30/30
f 28/28/28 29/29/29 32/32/32
f 28/28/28 32/32/32 30/30/30
f 29/29/29 33/33/33 32/32/32
f 34/34/34 31/31/31 30/30/30
f 30/30/30 32/32/32 34/34/34
f 35/35/35 31/31/31 34/34/34
f 36/36/36 35/35/35 34/34/34
f 32/32/32 33/33/33 37/37/37
f 32/32/32 37/37/37 34/34/34
f 34/34/34 37/37/37 36/36/36
f 33/33/33 38/38/38 37/37/37
f 37/37/37 39/39/39 36/36/36
f 37/37/37 38/38/38 39/39/39
f 38/38/38 40/40/40 39/39/39
f 43/43/43 42/42/42 41/41/41
f 44/44/44 43/43/43 41/41/41
f 41/41/41 45/45/45 44/44/44
f 46/46/46 43/43/43 44/44/44
f 45/45/45 47/47/47 44/44/44
f 45/45/45 48/48/48 47/47/47
f 48/48/48 49/49/49 47/47/47
f 50/50/50 46/46/46 44/44/44
f 44/44/44 47/47/47 50/50/50
f 51/51/51 46/46/46 50/50/50
f 47/47/47 49/49/49 52/52/52
f 47/47/47 52/52/52 50/50/50
f 49/49/49 53/53/53 52/52/52
f 54/54/54 51/51/51 50/50/50
f 50/50/50 52/52/52 54/54/54
f 55/55/55 51/51/51 54/54/54
f 52/52/52 53/53/53 56/56/56
f 52/52/52 56/56/56 54/54/54
f 53/53/53 57/57/57 56/56/56
f 58/58/58 55/55/55 54/54/54
f 54/54/54 56/56/56 58/58/58
f 59/59/59 55/55/55 58/58/58
f 56/56/56 57/57/57 60/60/60
f 56/56/56 60/60/60 58/58/58
f 57/57/57 61/61/61 60/60/60
f 62/62/62 59/59/59 58/58/58
f 58/58/58 60/60/60 62/62/62
f 63/63/63 59/59/59 62/62/62
f 64/64/64 63/63/63 62/62/62
f 60/60/60 61/61/61 65/65/65
f 60/60/60 65/65/65 62/62/62
f 62/62/62 65/65/65 64/64/64
f 61/61/61 66/66/66 65/65/65
f 65/65/65 67/67/67 64/64/64
f 65/65/65 66/66/66 67/67/67
f 64/64/64 67/67/67 68/68/68
f 66/66/66 69/69/69 67/67/67
f 67/67/67 70/70/70 68/68/68
f 67/67/67 69/69/69 70/70/70
f 69/69/69 71/71/71 70/70/70
f 74/74/74 73/73/73 72/72/72
f 75/75/75 74/74/74 72/72/72
f 72/72/72 76/76/76 75/75/75
f 77/77/77 74/74/74 75/75/75
f 76/76/76 78/78/78 75/75/75
f 76/76/76 79/79/79 78/78/78
f 79/79/79 80/80/80 78/78/78
f 81/81/81 77/77/77 75/75/75
f 75/75/75 78/78/78 81/81/81
f 82/82/82 77/77/77 81/81/81
f 78/78/78 80/80/80 83/83/83
f 78/78/78 83/83/83 81/81/81
f 80/80/80 84/84/84 83/83/83
f 85/85/85 82/82/82 81/81/81
f 81/81/81 83/83/83 85/85/85
f 86/86/86 82/82/82 85/85/85
f 83/83/83 84/84/84 87/87/87
f 83/83/83 87/87/87 85/85/85
f 84/84/84 88/88/88 87/87/87
f 89/89/89 86/86/86 85/85/85
f 85/85/85 87/87/87 89/89/89
f 90/90/90 86/86/86 89/89/89
f 87/87/87 88/88/88 91/91/91
f 87/87/87 91/91/91 89/89/89
f 88/88/88 92/92/92 91/91/91
f 93/93/93 90/90/90 89/89/89
f 89/89/89 91/91/91 93/93/93
f 94/94/94 90/90/90 93/93/93
f 91/91/91 92/92/92 95/95/95
f 91/91/91 95/95/95 93/93/93
f 92/92/92 96/96/96 95/95/95
f 97/97/97 94/94/94 93/93/93
f 93/93/93 95/95/95 97/97/97
f 98/98/98 94/94/94 97/97/97
f 99/99/99 98/98/98 97/97/97
f 95/95/95 96/96/96 100/100/100
f 95/95/95 100/100/100 97/97/97
f 97/97/97 100/100/100 99/99/99
f 96/96/96 101/101/101 100/100/100
f 100/100/100 102/102/102 99/99/99
f 100/100/100 101/101/101 102/102/102
f 101/101/101 103/103/103 102/102/102
f 106/106/106 105/105/105 104/104/104
f 107/107/107 106/106/106 104/104/104
f 108/108/108 106/106/106 107/107/107
f 109/109/109 108/108/108 107/107/107
f 107/107/107 110/110/110 109/109/109
f 111/111/111 108/108/108 109/109/109
f 110/110/110 112/112/112 109/109/109
f 110/110/110 113/113/113 112/112/112
f 113/113/113 114/114/114 112/112/112
f 115/115/115 111/111/111 109/109/109
f 109/109/109 112/112/112 115/115/115
f 116/116/116 111/111/111 115/115/115
f 112/112/112 114/114/114 117/117/117
f 112/112/112 117/117/117 115/115/115
f 114/114/114 118/118/118 117/117/117
f 119/119/119 116/116/116 115/115/115
f 115/115/115 117/117/117 119/119/119
f 120/120/120 116/116/116 119/119/119
f 117/117/117 118/118/118 121/121/121
f 117/117/117 121/121/121 119/119/119
f 118/118/118 122/122/122 121/121/121
f 123/123/123 120/120/120 119/119/119
f 119/119/119 121/121/121 123/123/123
f 124/124/124 120/120/120 123/123/123
f 121/121/121 122/122/122 125/125/125
f 121/121/121 125/125/125 123/123/123
f 122/122/122 126/126/126 125/125/125
f 127/127/127 124/124/124 123/123/123
f 123/123/123 125/125/125 127/127/127
f 128/128/128 124/124/124 127/127/127
f 125/125/125 126/126/126 129/129/129
f 125/125/125 129/129/129 127/127/127
f 126/126/126 130/130/130 129/129/129
f 131/131/131 128/128/128 127/127/127
f 127/127/127 129/129/129 131/131/131
f 132/132/132 128/128/128 131/131/131
f 129/129/129 130/130/130 133/133/133
f 129/129/129 133/133/133 131/131/131
f 130/130/130 134/134/134 133/133/133
f 135/135/135 132/132/132 131/131/131
f 131/131/131 133/133/133 135/135/135
f 136/136/136 132/132/132 135/135/135
f 133/133/133 134/134/134 137/137/137
f 133/133/133 137/137/137 135/135/135
f 134/134/134 138/138/138 137/137/137
f 139/139/139 136/136/136 135/135/135
f 135/135/135 137/137/137 139/139/139
f 140/140/140 136/136/136 139/139/139
f 141/141/141 140/140/140 139/139/139
f 137/137/137 138/138/138 142/142/142
f 137/137/137 142/142/142 139/139/139
f 139/139/139 142/142/142 141/141/141
f 138/138/138 143/143/143 142/142/142
f 142/142/142 144/144/144 141/141/141
f 142/142/142 143/143/143 144/144/144
f 143/143/143 145/145/145 144/144/144
f 148/148/148 147/147/147 146/146/146
f 147/147/147 149/149/149 146/146/146
f 146/146/146 149/149/149 150/150/150
f 149/149/149 151/151/151 150/150/150
f 150/150/150 151/151/151 152/152/152
f 151/151/151 153/153/153 152/152/152
f 152/152/152 153/153/153 154/154/154
f 153/153/153 155/155/155 154/154/154
f 154/154/154 155/155/155 156/156/156
f 155/155/155 157/157/157 156/156/156
f 156/156/156 157/157/157 158/158/158
f 157/157/157 159/159/159 158/158/158
f 158/158/158 159/159/159 160/160/160
f 159/159/159 161/161/161 160/160/160
f 160/160/160 161/161/161 162/162/162
f 161/161/161 163/163/163 162/162/162
f 162/162/162 163/163/163 164/164/164
f 163/163/163 165/165/165 164/164/164
f 168/168/168 167/167/167 166/166/166
f 166/166/166 169/169/169 168/168/168
f 169/169/169 170/170/170 168/168/168
f 169/169/169 171/171/171 170/170/170
f 171/171/171 172/172/172 170/170/170
f 171/171/171 173/173/173 172/172/172
f 173/173/173 174/174/174 172/172/172
f 173/173/173 175/175/175 174/174/174
f 175/175/175 176/176/176 174/174/174
f 175/175/175 177/177/177 176/176/176
f 177/177/177 178/178/178 176/176/176
f 177/177/177 179/179/179 178/178/178
f 179/179/179 180/180/180 178/178/178
f 179/179/179 181/181/181 180/180/180
f 181/181/181 182/182/182 180/180/180
f 181/181/181 183/183/183 182/182/182
f 183/183/183 184/184/184 182/182/182
f 183/183/183 185/185/185 184/184/184
f 185/185/185 186/186/186 184/184/184
f 185/185/185 187/187/187 186/186/186
f 187/187/187 188/188/188 186/186/186
f 187/187/187 189/189/189 188/188/188
f 189/189/189 190/190/190 188/188/188
f 189/189/189 191/191/191 190/190/190
f 191/191/191 192/192/192 190/190/190
f 191/191/191 193/193/193 192/192/192
f 193/193/193 194/194/194 192/192/192
f 193/193/193 195/195/195 194/194/194
f 195/195/195 196/196/196 194/194/194
f 195/195/195 197/197/197 196/196/196
f 200/200/200 199/199/199 198/198/198
f 199/199/199 201/201/201 198/198/198
f 198/198/198 201/201/201 202/202/202
f 201/201/201 203/203/203 202/202/202
f 202/202/202 203/203/203 204/204/204
f 203/203/203 205/205/205 204/204/204
f 204/204/204 205/205/205 206/206/206
f 205/205/205 207/207/207 206/206/206
f 206/206/206 207/207/207 208/208/208
f 207/207/207 209/209/209 208/208/208
f 208/208/208 209/209/209 210/210/210
f 209/209/209 211/211/211 210/210/210
f 210/210/210 211/211/211 212/212/212
f 211/211/211 213/213/213 212/212/212
f 212/212/212 213/213/213 214/214/214
f 213/213/213 215/215/215 214/214/214
f 214/214/214 215/215/215 216/216/216
f 215/215/215 217/217/217 216/216/216
f 220/220/220 219/219/219 218/218/218
f 221/221/221 220/220/220 218/218/218
f 222/222/222 220/220/220 221/221/221
f 223/223/223 222/222/222 221/221/221
f 224/224/224 222/222/222 223/223/223
f 225/225/225 224/224/224 223/223/223
f 226/226/226 224/224/224 225/225/225
f 227/227/227 226/226/226 225/225/225
f 228/228/228 226/226/226 227/227/227
f 229/229/229 228/228/228 227/227/227
f 230/230/230 228/228/228 229/229/229
f 231/231/231 230/230/230 229/229/229
f 232/232/232 230/230/230 231/231/231
f 233/233/233 232/232/232 231/231/231
f 236/236/236 235/235/235 234/234/234
f 235/235/235 237/237/237 234/234/234
f 234/234/234 237/237/237 238/238/238
f 237/237/237 239/239/239 238/238/238
f 238/238/238 239/239/239 240/240/240
f 239/239/239 241/241/241 240/240/240
f 240/240/240 241/241/241 242/242/242
f 241/241/241 243/243/243 242/242/242
f 242/242/242 243/243/243 244/244/244
f 243/243/243 245/245/245 244/244/244
f 244/244/244 245/245/245 246/246/246
f 245/245/245 247/247/247 246/246/246
f 246/246/246 247/247/247 248/248/248
f 247/247/247 249/249/249 248/248/248
f 252/252/252 251/251/251 250/250/250
f 250/250/250 253/253/253 252/252/252
f 250/250/250 254/254/254 253/253/253
f 254/254/254 255/255/255 253/253/253
f 254/254/254 256/256/256 255/255/255
f 256/256/256 257/257/257 255/255/255
f 256/256/256 258/258/258 257/257/257
f 258/258/258 259/259/259 257/257/257
f 258/258/258 260/260/260 259/259/259
f 257/257/257 259/259/259 261/261/261
f 262/262/262 257/257/257 261/261/261
f 260/260/260 263/263/263 259/259/259
f 260/260/260 264/264/264 263/263/263
f 261/261/261 259/259/259 265/265/265
f 259/259/259 263/263/263 265/265/265
f 264/264/264 266/266/266 263/263/263
f 264/264/264 267/267/267 266/266/266
f 265/265/265 263/263/263 268/268/268
f 263/263/263 266/266/266 268/268/268
f 267/267/267 269/269/269 266/266/266
f 267/267/267 270/270/270 269/269/269
f 268/268/268 266/266/266 271/271/271
f 266/266/266 269/269/269 271/271/271
f 270/270/270 272/272/272 269/269/269
f 270/270/270 273/273/273 272/272/272
f 271/271/271 269/269/269 274/274/274
f 269/269/269 272/272/272 274/274/274
f 273/273/273 275/275/275 272/272/272
f 273/273/273 276/276/276 275/275/275
f 274/274/274 272/272/272 277/277/277
f 272/272/272 275/275/275 277/277/277
f 276/276/276 278/278/278 275/275/275
f 276/276/276 279/279/279 278/278/278
f 277/277/277 275/275/275 280/280/280
f 275/275/275 278/278/278 280/280/280
f 279/279/279 281/281/281 278/278/278
f 279/279/279 282/282/282 281/281/281
f 280/280/280 278/278/278 283/283/283
f 278/278/278 281/281/281 283/283/283
f 282/282/282 284/284/284 281/281/281
f 282/282/282 285/285/285 284/284/284
f 281/281/281 284/284/284 286/286/286
f 283/283/283 281/281/281 286/286/286
f 285/285/285 287/287/287 284/284/284
f 285/285/285 288/288/288 287/287/287
f 288/288/288 289/289/289 287/287/287
f 289/289/289 290/290/290 287/287/287
f 289/289/289 291/291/291 290/290/290
f 277/277/277 280/280/280 292/292/292
f 280/280/280 283/283/283 293/293/293
f 292/292/292 280/280/280 293/293/293
f 283/283/283 286/286/286 294/294/294
f 293/293/293 283/283/283 294/294/294
f 295/295/295 277/277/277 292/292/292
f 274/274/274 277/277/277 295/295/295
f 294/294/294 286/286/286 296/296/296
f 286/286/286 297/297/297 296/296/296
f 298/298/298 274/274/274 295/295/295
f 271/271/271 274/274/274 298/298/298
f 296/296/296 297/297/297 299/299/299
f 297/297/297 300/300/300 299/299/299
f 301/301/301 271/271/271 298/298/298
f 268/268/268 271/271/271 301/301/301
f 299/299/299 300/300/300 302/302/302
f 300/300/300 303/303/303 302/302/302
f 304/304/304 268/268/268 301/301/301
f 265/265/265 268/268/268 304/304/304
f 302/302/302 303/303/303 305/305/305
f 303/303/303 306/306/306 305/305/305
f 307/307/307 265/265/265 304/304/304
f 261/261/261 265/265/265 307/307/307
f 305/305/305 306/306/306 308/308/308
f 306/306/306 309/309/309 308/308/308
f 310/310/310 261/261/261 307/307/307
f 262/262/262 261/261/261 310/310/310
f 308/308/308 309/309/309 311/311/311
f 309/309/309 312/312/312 311/311/311
f 313/313/313 262/262/262 310/310/310
f 314/314/314 262/262/262 313/313/313
f 311/311/311 312/312/312 315/315/315
f 312/312/312 316/316/316 315/315/315
f 317/317/317 314/314/314 313/313/313
f 318/318/318 314/314/314 317/317/317
f 315/315/315 316/316/316 319/319/319
f 316/316/316 320/320/320 319/319/319
f 321/321/321 318/318/318 317/317/317
f 322/322/322 318/318/318 321/321/321
f 319/319/319 320/320/320 323/323/323
f 320/320/320 324/324/324 323/323/323
f 325/325/325 322/322/322 321/321/321
f 326/326/326 322/322/322 325/325/325
f 323/323/323 324/324/324 327/327/327
f 324/324/324 328/328/328 327/327/327
f 329/329/329 326/326/326 325/325/325
f 330/330/330 326/326/326 329/329/329
f 327/327/327 328/328/328 331/331/331
f 328/328/328 332/332/332 331/331/331
f 333/333/333 330/330/330 329/329/329
f 334/334/334 330/330/330 333/333/333
f 331/331/331 332/332/332 335/335/335
f 332/332/332 336/336/336 335/335/335
f 337/337/337 334/334/334 333/333/333
f 338/338/338 334/334/334 337/337/337
f 335/335/335 336/336/336 339/339/339
f 336/336/336 340/340/340 339/339/339
f 341/341/341 338/338/338 337/337/337
f 342/342/342 338/338/338 341/341/341
f 339/339/339 340/340/340 343/343/343
f 340/340/340 344/344/344 343/343/343
f 344/344/344 342/342/342 345/345/345
f 345/345/345 342/342/342 341/341/341
f 343/343/343 344/344/344 345/345/345
f 331/331/331 335/335/335 346/346/346
f 347/347/347 331/331/331 346/346/346
f 346/346/346 335/335/335 348/348/348
f 335/335/335 339/339/339 348/348/348
f 327/327/327 331/331/331 347/347/347
f 348/348/348 339/339/339 349/349/349
f 339/339/339 343/343/343 349/349/349
f 350/350/350 327/327/327 347/347/347
f 349/349/349 343/343/343 351/351/351
f 343/343/343 345/345/345 351/351/351
f 323/323/323 327/327/327 350/350/350
f 351/351/351 345/345/345 352/352/352
f 353/353/353 323/323/323 350/350/350
f 345/345/345 341/341/341 352/352/352
f 319/319/319 323/323/323 353/353/353
f 352/352/352 341/341/341 354/354/354
f 355/355/355 319/319/319 353/353/353
f 341/341/341 337/337/337 354/354/354
f 315/315/315 319/319/319 355/355/355
f 354/354/354 337/337/337 356/356/356
f 357/357/357 315/315/315 355/355/355
f 337/337/337 333/333/333 356/356/356
f 311/311/311 315/315/315 357/357/357
f 356/356/356 333/333/333 358/358/358
f 359/359/359 311/311/311 357/357/357
f 333/333/333 329/329/329 358/358/358
f 308/308/308 311/311/311 359/359/359
f 358/358/358 329/329/329 360/360/360
f 361/361/361 308/308/308 359/359/359
f 329/329/329 325/325/325 360/360/360
f 305/305/305 308/308/308 361/361/361
f 360/360/360 325/325/325 362/362/362
f 363/363/363 305/305/305 361/361/361
f 325/325/325 321/321/321 362/362/362
f 302/302/302 305/305/305 363/363/363
f 362/362/362 321/321/321 364/364/364
f 365/365/365 302/302/302 363/363/363
f 321/321/321 317/317/317 364/364/364
f 299/299/299 302/302/302 365/365/365
f 364/364/364 317/317/317 366/366/366
f 367/367/367 299/299/299 365/365/365
f 317/317/317 313/313/313 366/366/366
f 296/296/296 299/299/299 367/367/367
f 366/366/366 313/313/313 368/368/368
f 369/369/369 296/296/296 367/367/367
f 313/313/313 310/310/310 368/368/368
f 294/294/294 296/296/296 369/369/369
f 368/368/368 310/310/310 370/370/370
f 371/371/371 294/294/294 369/369/369
f 310/310/310 307/307/307 370/370/370
f 293/293/293 294/294/294 371/371/371
f 370/370/370 307/307/307 372/372/372
f 373/373/373 293/293/293 371/371/371
f 307/307/307 304/304/304 372/372/372
f 292/292/292 293/293/293 373/373/373
f 372/372/372 304/304/304 374/374/374
f 375/375/375 292/292/292 373/373/373
f 304/304/304 301/301/301 374/374/374
f 295/295/295 292/292/292 375/375/375
f 374/374/374 301/301/301 376/376/376
f 377/377/377 295/295/295 375/375/375
f 301/301/301 298/298/298 376/376/376
f 298/298/298 295/295/295 377/377/377
f 376/376/376 298/298/298 377/377/377
f 380/380/380 379/379/379 378/378/378
f 381/381/381 380/380/380 378/378/378
f 382/382/382 380/380/380 381/381/381
f 383/383/383 382/382/382 381/381/381
f 384/384/384 382/382/382 383/383/383
f 385/385/385 384/384/384 383/383/383
f 386/386/386 384/384/384 385/385/385
f 387/387/387 386/386/386 385/385/385
f 388/388/388 386/386/386 387/387/387
f 389/389/389 388/388/388 387/387/387
f 392/392/392 391/391/391 390/390/390
f 393/393/393 392/392/392 390/390/390
f 396/396/396 395/395/395 394/394/394
f 395/395/395 397/397/397 394/394/394
f 394/394/394 397/397/397 398/398/398
f 397/397/397 399/399/399 398/398/398
f 398/398/398 399/399/399 400/400/400
f 399/399/399 401/401/401 400/400/400
f 400/400/400 401/401/401 402/402/402
f 401/401/401 403/403/403 402/402/402
f 402/402/402 403/403/403 404/404/404
f 403/403/403 405/405/405 404/404/404
f 404/404/404 405/405/405 406/406/406
f 405/405/405 407/407/407 406/406/406
f 406/406/406 407/407/407 408/408/408
f 407/407/407 409/409/409 408/408/408
f 412/412/412 411/411/411 410/410/410
f 411/411/411 413/413/413 410/410/410
f 410/410/410 413/413/413 414/414/414
f 413/413/413 415/415/415 414/414/414
f 418/418/418 417/417/417 416/416/416
f 417/417/417 419/419/419 416/416/416
f 416/416/416 419/419/419 420/420/420
f 419/419/419 421/421/421 420/420/420
f 420/420/420 421/421/421 422/422/422
f 421/421/421 423/423/423 422/422/422
f 422/422/422 423/423/423 424/424/424
f 423/423/423 425/425/425 424/424/424
f 424/424/424 425/425/425 426/426/426
f 425/425/425 427/427/427 426/426/426
f 426/426/426 427/427/427 428/428/428
f 427/427/427 429/429/429 428/428/428
f 428/428/428 429/429/429 430/430/430
f 429/429/429 431/431/431 430/430/430
f 430/430/430 431/431/431 432/432/432
f 431/431/431 433/433/433 432/432/432
f 432/432/432 433/433/433 434/434/434
f 433/433/433 435/435/435 434/434/434
f 438/438/438 437/437/437 436/436/436
f 437/437/437 439/439/439 436/436/436
f 436/436/436 439/439/439 440/440/440
f 439/439/439 441/441/441 440/440/440
f 440/440/440 441/441/441 442/442/442
f 441/441/441 443/443/443 442/442/442
f 442/442/442 443/443/443 444/444/444
f 443/443/443 445/445/445 444/444/444
f 444/444/444 445/445/445 446/446/446
f 445/445/445 447/447/447 446/446/446
f 450/450/450 449/449/449 448/448/448
f 451/451/451 450/450/450 448/448/448
f 452/452/452 450/450/450 451/451/451
f 453/453/453 452/452/452 451/451/451
f 454/454/454 452/452/452 453/453/453
f 455/455/455 454/454/454 453/453/453
f 456/456/456 454/454/454 455/455/455
f 457/457/457 456/456/456 455/455/455
f 458/458/458 456/456/456 457/457/457
f 459/459/459 458/458/458 457/457/457
f 460/460/460 458/458/458 459/459/459
f 461/461/461 460/460/460 459/459/459
f 462/462/462 460/460/460 461/461/461
f 463/463/463 462/462/462 461/461/461
f 466/466/466 465/465/465 464/464/464
f 465/465/465 467/467/467 464/464/464
f 464/464/464 467/467/467 468/468/468
f 467/467/467 469/469/469 468/468/468
f 468/468/468 469/469/469 470/470/470
f 469/469/469 471/471/471 470/470/470
f 470/470/470 471/471/471 472/472/472
f 471/471/471 473/473/473 472/472/472
f 472/472/472 473/473/473 474/474/474
f 473/473/473 475/475/475 474/474/474
f 474/474/474 475/475/475 476/476/476
f 475/475/475 477/477/477 476/476/476
f 476/476/476 477/477/477 478/478/478
f 477/477/477 479/479/479 478/478/478
f 478/478/478 479/479/479 480/480/480
f 479/479/479 481/481/481 480/480/480
f 480/480/480 481/481/481 482/482/482
f 481/481/481 483/483/483 482/482/482
f 482/482/482 483/483/483 484/484/484
f 483/483/483 485/485/485 484/484/484
f 484/484/484 485/485/485 486/486/486
f 485/485/485 487/487/487 486/486/486
f 486/486/486 487/487/487 488/488/488
f 487/487/487 489/489/489 488/488/488
f 488/488/488 489/489/489 490/490/490
f 489/489/489 491/491/491 490/490/490
f 490/490/490 491/491/491 492/492/492
f 491/491/491 493/493/493 492/492/492
f 492/492/492 493/493/493 494/494/494
f 493/493/493 495/495/495 494/494/494
f 494/494/494 495/495/495 496/496/496
f 495/495/495 497/497/497 496/496/496
f 496/496/496 497/497/497 498/498/498
f 497/497/497 499/499/499 498/498/498
f 498/498/498 499/499/499 500/500/500
f 499/499/499 501/501/501 500/500/500
f 500/500/500 501/501/501 502/502/502
f 501/501/501 503/503/503 502/502/502
f 502/502/502 503/503/503 504/504/504
f 503/503/503 505/505/505 504/504/504
f 504/504/504 505/505/505 506/506/506
f 505/505/505 507/507/507 506/506/506
f 506/506/506 507/507/507 508/508/508
f 507/507/507 509/509/509 508/508/508
f 508/508/508 509/509/509 510/510/510
f 509/509/509 511/511/511 510/510/510
f 514/514/514 513/513/513 512/512/512
f 513/513/513 515/515/515 512/512/512
f 512/512/512 515/515/515 516/516/516
f 515/515/515 517/517/517 516/516/516
f 516/516/516 517/517/517 518/518/518
f 517/517/517 519/519/519 518/518/518
f 518/518/518 519/519/519 520/520/520
f 519/519/519 521/521/521 520/520/520
f 520/520/520 521/521/521 522/522/522
f 521/521/521 523/523/523 522/522/522
f 522/522/522 523/523/523 524/524/524
f 523/523/523 525/525/525 524/524/524
f 524/524/524 525/525/525 526/526/526
f 525/525/525 527/527/527 526/526/526
f 526/526/526 527/527/527 528/528/528
f 527/527/527 529/529/529 528/528/528
f 528/528/528 529/529/529 530/530/530
f 529/529/529 531/531/531 530/530/530
f 534/534/534 533/533/533 532/532/532
f 533/533/533 535/535/535 532/532/532
f 532/532/532 535/535/535 536/536/536
f 535/535/535 537/537/537 536/536/536
f 540/540/540 539/539/539 538/538/538
f 541/541/541 540/540/540 538/538/538
f 544/544/544 543/543/543 542/542/542
f 545/545/545 544/544/544 542/542/542
f 542/542/542 543/543/543 546/546/546
f 547/547/547 544/544/544 545/545/545
f 543/543/543 548/548/548 546/546/546
f 549/549/549 547/547/547 545/545/545
f 546/546/546 548/548/548 550/550/550
f 551/551/551 547/547/547 549/549/549
f 548/548/548 552/552/552 550/550/550
f 553/553/553 551/551/551 549/549/549
f 550/550/550 552/552/552 554/554/554
f 555/555/555 551/551/551 553/553/553
f 552/552/552 556/556/556 554/554/554
f 557/557/557 555/555/555 553/553/553
f 554/554/554 556/556/556 558/558/558
f 559/559/559 555/555/555 557/557/557
f 556/556/556 560/560/560 558/558/558
f 561/561/561 559/559/559 557/557/557
f 558/558/558 560/560/560 562/562/562
f 563/563/563 559/559/559 561/561/561
f 560/560/560 564/564/564 562/562/562
f 565/565/565 563/563/563 561/561/561
f 562/562/562 564/564/564 566/566/566
f 567/567/567 563/563/563 565/565/565
f 564/564/564 568/568/568 566/566/566
f 569/569/569 567/567/567 565/565/565
f 566/566/566 568/568/568 570/570/570
f 571/571/571 567/567/567 569/569/569
f 568/568/568 572/572/572 570/570/570
f 573/573/573 571/571/571 569/569/569
f 570/570/570 572/572/572 574/574/574
f 575/575/575 571/571/571 573/573/573
f 572/572/572 576/576/576 574/574/574
f 577/577/577 575/575/575 573/573/573
f 574/574/574 576/576/576 578/578/578
f 579/579/579 575/575/575 577/577/577
f 576/576/576 580/580/580 578/578/578
f 581/581/581 579/579/579 577/577/577
f 578/578/578 580/580/580 582/582/582
f 583/583/583 579/579/579 581/581/581
f 580/580/580 584/584/584 582/582/582
f 585/585/585 583/583/583 581/581/581
f 582/582/582 584/584/584 586/586/586
f 587/587/587 583/583/583 585/585/585
f 584/584/584 588/588/588 586/586/586
f 589/589/589 587/587/587 585/585/585
f 586/586/586 588/588/588 590/590/590
f 591/591/591 587/587/587 589/589/589
f 588/588/588 592/592/592 590/590/590
f 593/593/593 591/591/591 589/589/589
f 590/590/590 592/592/592 594/594/594
f 595/595/595 591/591/591 593/593/593
f 592/592/592 596/596/596 594/594/594
f 597/597/597 595/595/595 593/593/593
f 594/594/594 596/596/596 598/598/598
f 599/599/599 595/595/595 597/597/597
f 596/596/596 600/600/600 598/598/598
f 601/601/601 599/599/599 597/597/597
f 598/598/598 600/600/600 602/602/602
f 603/603/603 599/599/599 601/601/601
f 600/600/600 604/604/604 602/602/602
f 605/605/605 603/603/603 601/601/601
f 602/602/602 604/604/604 605/605/605
f 604/604/604 603/603/603 605/605/605
