g roadRampLongCurvedWall
v -0.299999982 0.0632232577 0.276789606
v -0.299999982 0.0867767334 0.323210388
v -0.299999982 0.0749999955 0.299999982
v -0.299999982 0.000531304802 0.0260217525
v -0.299999982 0 0.599999964
v -0.299999982 0 0
v -0.299999982 0.00212433422 0.0520001352
v -0.299999982 0.00477643171 0.0778918192
v -0.299999982 0.00848317705 0.103653684
v -0.299999982 0.0132383965 0.129242808
v -0.299999982 0.0190341529 0.154616416
v -0.299999982 0.0258608013 0.179732382
v -0.299999982 0.0337069482 0.204548746
v -0.299999982 0.0425595306 0.229024157
v -0.299999982 0.0524037592 0.25311777
v -0.299999982 0.0632232577 0.276789606
v -0.299999982 0.0749999955 0.299999982
v -0.299999982 0.0867767334 0.323210388
v -0.299999982 0.0975962356 0.346882164
v -0.299999982 0.107440464 0.370975763
v -0.299999982 0.116293035 0.395451277
v -0.299999982 0.124139182 0.420267582
v -0.299999982 0.130965829 0.445383579
v -0.299999982 0.136761591 0.470757276
v -0.299999982 0.141516834 0.496346354
v -0.299999982 0.145223543 0.522108257
v -0.299999982 0.147875667 0.54799974
v -0.299999982 0.14946869 0.573978305
v -0.299999982 0.149999991 0.599999964
v -0 0.149999991 0.599999964
v -0.299999982 0.149999991 0.599999964
v -0.0244957823 0.149999991 0.599999964
v -0.275504202 0.149999991 0.599999964
v -0.0464594699 0.152999982 0.599999964
v -0.0244957823 0.155999988 0.599999964
v -0.0464594699 0.155999988 0.599999964
v -0.253540546 0.152999982 0.599999964
v -0.275504202 0.155999988 0.599999964
v -0.253540546 0.155999988 0.599999964
v -0 0.000531304802 0.0260217525
v -0.0244957823 0 0
v -0 0 0
v -0.0244957823 0 0
v -0.0244957823 0.000531304802 0.0260217525
v -0 0.00212433422 0.0520001352
v -0.0244957823 0.00212433422 0.0520001352
v -0 0.00477643171 0.0778918192
v -0.0244957823 0.00477643171 0.0778918192
v -0 0.00848317705 0.103653684
v -0.0244957823 0.00848317705 0.103653684
v -0 0.0132383965 0.129242808
v -0.0244957823 0.0132383965 0.129242808
v -0 0.0190341529 0.154616416
v -0.0244957823 0.0190341529 0.154616416
v -0 0.0258608013 0.179732382
v -0.0244957823 0.0258608013 0.179732382
v -0 0.0337069482 0.204548746
v -0.0244957823 0.0337069482 0.204548746
v -0 0.0425595306 0.229024157
v -0.0244957823 0.0425595306 0.229024157
v -0 0.0524037592 0.25311777
v -0.0244957823 0.0524037592 0.25311777
v -0 0.0632232577 0.276789606
v -0.0244957823 0.0632232577 0.276789606
v -0 0.0867767334 0.323210388
v -0.0244957823 0.0867767334 0.323210388
v -0 0.0975962356 0.346882164
v -0.0244957823 0.0975962356 0.346882164
v -0 0.107440464 0.370975763
v -0.0244957823 0.107440464 0.370975763
v -0 0.116293035 0.395451277
v -0.0244957823 0.116293035 0.395451277
v -0 0.124139182 0.420267582
v -0.0244957823 0.124139182 0.420267582
v -0 0.130965829 0.445383579
v -0.0244957823 0.130965829 0.445383579
v -0 0.136761591 0.470757276
v -0.0244957823 0.136761591 0.470757276
v -0 0.141516834 0.496346354
v -0.0244957823 0.141516834 0.496346354
v -0 0.145223543 0.522108257
v -0.0244957823 0.145223543 0.522108257
v -0 0.147875667 0.54799974
v -0.0244957823 0.147875667 0.54799974
v -0 0.14946869 0.573978305
v -0.0244957823 0.14946869 0.573978305
v -0 0.149999991 0.599999964
v -0.0244957823 0.149999991 0.599999964
v -0.299999982 0 0.599999964
v -0 0.149999991 0.599999964
v -0 0 0.599999964
v -0.299999982 0.149999991 0.599999964
v -0.299999982 0.14946869 0.573978305
v -0.275504202 0.149999991 0.599999964
v -0.299999982 0.149999991 0.599999964
v -0.275504202 0.14946869 0.573978305
v -0.299999982 0.147875667 0.54799974
v -0.275504202 0.147875667 0.54799974
v -0.299999982 0.145223543 0.522108257
v -0.275504202 0.145223543 0.522108257
v -0.299999982 0.141516834 0.496346354
v -0.275504202 0.141516834 0.496346354
v -0.299999982 0.136761591 0.470757276
v -0.275504202 0.136761591 0.470757276
v -0.299999982 0.130965829 0.445383579
v -0.275504202 0.130965829 0.445383579
v -0.299999982 0.124139182 0.420267582
v -0.275504202 0.124139182 0.420267582
v -0.299999982 0.116293035 0.395451277
v -0.275504202 0.116293035 0.395451277
v -0.299999982 0.107440464 0.370975763
v -0.275504202 0.107440464 0.370975763
v -0.299999982 0.0975962356 0.346882164
v -0.275504202 0.0975962356 0.346882164
v -0.299999982 0.0867767334 0.323210388
v -0.275504202 0.0867767334 0.323210388
v -0.299999982 0.0632232577 0.276789606
v -0.275504202 0.0749999955 0.299999982
v -0.275504202 0.0632232577 0.276789606
v -0.299999982 0.0524037592 0.25311777
v -0.275504202 0.0524037592 0.25311777
v -0.299999982 0.0425595306 0.229024157
v -0.275504202 0.0425595306 0.229024157
v -0.299999982 0.0337069482 0.204548746
v -0.275504202 0.0337069482 0.204548746
v -0.299999982 0.0258608013 0.179732382
v -0.275504202 0.0258608013 0.179732382
v -0.299999982 0.0190341529 0.154616416
v -0.275504202 0.0190341529 0.154616416
v -0.299999982 0.0132383965 0.129242808
v -0.275504202 0.0132383965 0.129242808
v -0.299999982 0.00848317705 0.103653684
v -0.275504202 0.00848317705 0.103653684
v -0.299999982 0.00477643171 0.0778918192
v -0.275504202 0.00477643171 0.0778918192
v -0.299999982 0.00212433422 0.0520001352
v -0.275504202 0.00212433422 0.0520001352
v -0.299999982 0.000531304802 0.0260217525
v -0.275504202 0.000531304802 0.0260217525
v -0.299999982 0 0
v -0.275504202 0 0
v -0 0.14946869 0.573978305
v -0 0 0.599999964
v -0 0.149999991 0.599999964
v -0 0.147875667 0.54799974
v -0 0.145223543 0.522108257
v -0 0.141516834 0.496346354
v -0 0.136761591 0.470757276
v -0 0.130965829 0.445383579
v -0 0.124139182 0.420267582
v -0 0.116293035 0.395451277
v -0 0.107440464 0.370975763
v -0 0.0975962356 0.346882164
v -0 0.0867767334 0.323210388
v -0 0.0632232577 0.276789606
v -0 0.0524037592 0.25311777
v -0 0.0425595306 0.229024157
v -0 0.0337069482 0.204548746
v -0 0.0258608013 0.179732382
v -0 0.0190341529 0.154616416
v -0 0.0132383965 0.129242808
v -0 0.00848317705 0.103653684
v -0 0.00477643171 0.0778918192
v -0 0.00212433422 0.0520001352
v -0 0.000531304802 0.0260217525
v -0 0 0
v -0.0464594699 0.00599999959 0
v -0.0464594699 0.00353130559 0.0260217525
v -0.0464594699 0.00299999979 0
v -0.0464594699 0.00653130561 0.0260217525
v -0.0464594699 0.00512433285 0.0520001352
v -0.0464594699 0.00812433194 0.0520001352
v -0.0464594699 0.00777643127 0.0778918192
v -0.0464594699 0.0107764313 0.0778918192
v -0.0464594699 0.0114831775 0.103653684
v -0.0464594699 0.0144831771 0.103653684
v -0.0464594699 0.0162383933 0.129242808
v -0.0464594699 0.0192383938 0.129242808
v -0.0464594699 0.0220341552 0.154616416
v -0.0464594699 0.0250341557 0.154616416
v -0.0464594699 0.0288607944 0.179732382
v -0.0464594699 0.031860806 0.179732382
v -0.0464594699 0.0367069468 0.204548746
v -0.0464594699 0.0397069454 0.204548746
v -0.0464594699 0.0455595255 0.229024157
v -0.0464594699 0.0485595278 0.229024157
v -0.0464594699 0.0554037541 0.25311777
v -0.0464594699 0.0584037565 0.25311777
v -0.0464594699 0.0662232563 0.276789606
v -0.0464594699 0.0692232549 0.276789606
v -0.0464594699 0.089776732 0.323210388
v -0.0464594699 0.0927767009 0.323210388
v -0.0464594699 0.100596234 0.346882164
v -0.0464594699 0.103596233 0.346882164
v -0.0464594699 0.110440463 0.370975763
v -0.0464594699 0.113440461 0.370975763
v -0.0464594699 0.119293042 0.395451277
v -0.0464594699 0.12229304 0.395451277
v -0.0464594699 0.127139181 0.420267582
v -0.0464594699 0.130139202 0.420267582
v -0.0464594699 0.133965835 0.445383579
v -0.0464594699 0.136965826 0.445383579
v -0.0464594699 0.139761582 0.470757276
v -0.0464594699 0.142761588 0.470757276
v -0.0464594699 0.144516811 0.496346354
v -0.0464594699 0.147516802 0.496346354
v -0.0464594699 0.148223534 0.522108257
v -0.0464594699 0.15122354 0.522108257
v -0.0464594699 0.150875628 0.54799974
v -0.0464594699 0.153875664 0.54799974
v -0.0464594699 0.152468696 0.573978305
v -0.0464594699 0.155468658 0.573978305
v -0.0464594699 0.152999982 0.599999964
v -0.0464594699 0.155999988 0.599999964
v -0.253540546 0.155468658 0.573978305
v -0.253540546 0.152999982 0.599999964
v -0.253540546 0.155999988 0.599999964
v -0.253540546 0.152468696 0.573978305
v -0.253540546 0.153875664 0.54799974
v -0.253540546 0.150875628 0.54799974
v -0.253540546 0.15122354 0.522108257
v -0.253540546 0.148223534 0.522108257
v -0.253540546 0.147516802 0.496346354
v -0.253540546 0.144516811 0.496346354
v -0.253540546 0.142761588 0.470757276
v -0.253540546 0.139761582 0.470757276
v -0.253540546 0.136965826 0.445383579
v -0.253540546 0.133965835 0.445383579
v -0.253540546 0.130139202 0.420267582
v -0.253540546 0.127139181 0.420267582
v -0.253540546 0.12229304 0.395451277
v -0.253540546 0.119293042 0.395451277
v -0.253540546 0.113440461 0.370975763
v -0.253540546 0.110440463 0.370975763
v -0.253540546 0.103596233 0.346882164
v -0.253540546 0.100596234 0.346882164
v -0.253540546 0.089776732 0.323210388
v -0.253540546 0.0927767009 0.323210388
v -0.253540546 0.0692232549 0.276789606
v -0.253540546 0.0662232563 0.276789606
v -0.253540546 0.0584037565 0.25311777
v -0.253540546 0.0554037541 0.25311777
v -0.253540546 0.0485595278 0.229024157
v -0.253540546 0.0455595255 0.229024157
v -0.253540546 0.0397069454 0.204548746
v -0.253540546 0.0367069468 0.204548746
v -0.253540546 0.031860806 0.179732382
v -0.253540546 0.0288607944 0.179732382
v -0.253540546 0.0250341557 0.154616416
v -0.253540546 0.0220341552 0.154616416
v -0.253540546 0.0192383938 0.129242808
v -0.253540546 0.0162383933 0.129242808
v -0.253540546 0.0144831771 0.103653684
v -0.253540546 0.0114831775 0.103653684
v -0.253540546 0.0107764313 0.0778918192
v -0.253540546 0.00777643127 0.0778918192
v -0.253540546 0.00812433194 0.0520001352
v -0.253540546 0.00512433285 0.0520001352
v -0.253540546 0.00653130561 0.0260217525
v -0.253540546 0.00353130559 0.0260217525
v -0.253540546 0.00599999959 0
v -0.253540546 0.00299999979 0
v -0.0244957823 0.130139202 0.420267582
v -0.0464594699 0.12229304 0.395451277
v -0.0244957823 0.12229304 0.395451277
v -0.0464594699 0.130139202 0.420267582
v -0.0464594699 0.0107764313 0.0778918192
v -0.0244957823 0.0144831771 0.103653684
v -0.0464594699 0.0144831771 0.103653684
v -0.0244957823 0.0107764313 0.0778918192
v -0.0464594699 0.00812433194 0.0520001352
v -0.0244957823 0.00812433194 0.0520001352
v -0.275504202 0.103596233 0.346882164
v -0.253540546 0.113440461 0.370975763
v -0.275504202 0.113440461 0.370975763
v -0.253540546 0.103596233 0.346882164
v -0.275504202 0.147516802 0.496346354
v -0.253540546 0.15122354 0.522108257
v -0.275504202 0.15122354 0.522108257
v -0.253540546 0.147516802 0.496346354
v -0.0244957823 0.12229304 0.395451277
v -0.0464594699 0.113440461 0.370975763
v -0.0244957823 0.113440461 0.370975763
v -0.0464594699 0.12229304 0.395451277
v -0.0464594699 0.0692232549 0.276789606
v -0.0244957823 0.0927767009 0.323210388
v -0.0464594699 0.0927767009 0.323210388
v -0.0244957823 0.0692232549 0.276789606
v -0.0244957823 0.155468658 0.573978305
v -0.0464594699 0.153875664 0.54799974
v -0.0244957823 0.153875664 0.54799974
v -0.0464594699 0.155468658 0.573978305
v -0.0244957823 0.00653130561 0.0260217525
v -0.0464594699 0.00599999959 0
v -0.0244957823 0.00599999959 0
v -0.0464594699 0.00653130561 0.0260217525
v -0.0244957823 0.153875664 0.54799974
v -0.0464594699 0.15122354 0.522108257
v -0.0244957823 0.15122354 0.522108257
v -0.0464594699 0.153875664 0.54799974
v -0.0244957823 0.00812433194 0.0520001352
v -0.0464594699 0.00653130561 0.0260217525
v -0.0244957823 0.00653130561 0.0260217525
v -0.0464594699 0.00812433194 0.0520001352
v -0.0464594699 0.155468658 0.573978305
v -0.0244957823 0.155999988 0.599999964
v -0.0464594699 0.155999988 0.599999964
v -0.0244957823 0.155468658 0.573978305
v -0.0464594699 0.130139202 0.420267582
v -0.0244957823 0.136965826 0.445383579
v -0.0464594699 0.136965826 0.445383579
v -0.0244957823 0.130139202 0.420267582
v -0.0244957823 0.00812433194 0.0520001352
v -0.0244957823 0.00212433422 0.0520001352
v -0.0244957823 0.0107764313 0.0778918192
v -0.0244957823 0.000531304802 0.0260217525
v -0.0244957823 0.00653130561 0.0260217525
v -0.0244957823 0 0
v -0.0244957823 0.00599999959 0
v -0.0244957823 0.0192383938 0.129242808
v -0.0244957823 0.00848317705 0.103653684
v -0.0244957823 0.0132383965 0.129242808
v -0.0244957823 0.0144831771 0.103653684
v -0.0244957823 0.00477643171 0.0778918192
v -0.0244957823 0.0107764313 0.0778918192
v -0.0244957823 0.00212433422 0.0520001352
v -0.0244957823 0.0192383938 0.129242808
v -0.0244957823 0.0132383965 0.129242808
v -0.0244957823 0.0250341557 0.154616416
v -0.0244957823 0.0190341529 0.154616416
v -0.0244957823 0.031860806 0.179732382
v -0.0244957823 0.0258608013 0.179732382
v -0.0244957823 0.0397069454 0.204548746
v -0.0244957823 0.0337069482 0.204548746
v -0.0244957823 0.0485595278 0.229024157
v -0.0244957823 0.0425595306 0.229024157
v -0.0244957823 0.0584037565 0.25311777
v -0.0244957823 0.0524037592 0.25311777
v -0.0244957823 0.0692232549 0.276789606
v -0.0244957823 0.0632232577 0.276789606
v -0.0244957823 0.0927767009 0.323210388
v -0.0244957823 0.0867767334 0.323210388
v -0.0244957823 0.103596233 0.346882164
v -0.0244957823 0.0975962356 0.346882164
v -0.0244957823 0.113440461 0.370975763
v -0.0244957823 0.107440464 0.370975763
v -0.0244957823 0.12229304 0.395451277
v -0.0244957823 0.116293035 0.395451277
v -0.0244957823 0.130139202 0.420267582
v -0.0244957823 0.124139182 0.420267582
v -0.0244957823 0.136965826 0.445383579
v -0.0244957823 0.130965829 0.445383579
v -0.0244957823 0.142761588 0.470757276
v -0.0244957823 0.136761591 0.470757276
v -0.0244957823 0.147516802 0.496346354
v -0.0244957823 0.141516834 0.496346354
v -0.0244957823 0.15122354 0.522108257
v -0.0244957823 0.145223543 0.522108257
v -0.0244957823 0.153875664 0.54799974
v -0.0244957823 0.147875667 0.54799974
v -0.0244957823 0.155468658 0.573978305
v -0.0244957823 0.14946869 0.573978305
v -0.0244957823 0.155999988 0.599999964
v -0.0244957823 0.149999991 0.599999964
v -0.0244957823 0.0485595278 0.229024157
v -0.0464594699 0.0397069454 0.204548746
v -0.0244957823 0.0397069454 0.204548746
v -0.0464594699 0.0485595278 0.229024157
v -0.0244957823 0.103596233 0.346882164
v -0.0464594699 0.0927767009 0.323210388
v -0.0244957823 0.0927767009 0.323210388
v -0.0464594699 0.103596233 0.346882164
v -0.275504202 0.0584037565 0.25311777
v -0.253540546 0.0692232549 0.276789606
v -0.275504202 0.0692232549 0.276789606
v -0.253540546 0.0584037565 0.25311777
v -0.0244957823 0.0584037565 0.25311777
v -0.0464594699 0.0485595278 0.229024157
v -0.0244957823 0.0485595278 0.229024157
v -0.0464594699 0.0584037565 0.25311777
v -0.275504202 0.031860806 0.179732382
v -0.253540546 0.0397069454 0.204548746
v -0.275504202 0.0397069454 0.204548746
v -0.253540546 0.031860806 0.179732382
v -0.275504202 0.00653130561 0.0260217525
v -0.253540546 0.00812433194 0.0520001352
v -0.275504202 0.00812433194 0.0520001352
v -0.253540546 0.00653130561 0.0260217525
v -0.0244957823 0.147516802 0.496346354
v -0.0464594699 0.142761588 0.470757276
v -0.0244957823 0.142761588 0.470757276
v -0.0464594699 0.147516802 0.496346354
v -0.275504202 0.130139202 0.420267582
v -0.253540546 0.136965826 0.445383579
v -0.275504202 0.136965826 0.445383579
v -0.253540546 0.130139202 0.420267582
v -0.253540546 0.155999988 0.599999964
v -0.275504202 0.155468658 0.573978305
v -0.253540546 0.155468658 0.573978305
v -0.275504202 0.155999988 0.599999964
v -0.253540546 0.147516802 0.496346354
v -0.275504202 0.142761588 0.470757276
v -0.253540546 0.142761588 0.470757276
v -0.275504202 0.147516802 0.496346354
v -0.253540546 0.0485595278 0.229024157
v -0.275504202 0.0397069454 0.204548746
v -0.253540546 0.0397069454 0.204548746
v -0.275504202 0.0485595278 0.229024157
v -0.0464594699 0.0584037565 0.25311777
v -0.0244957823 0.0692232549 0.276789606
v -0.0464594699 0.0692232549 0.276789606
v -0.0244957823 0.0584037565 0.25311777
v -0.0464594699 0.0192383938 0.129242808
v -0.0244957823 0.0250341557 0.154616416
v -0.0464594699 0.0250341557 0.154616416
v -0.0244957823 0.0192383938 0.129242808
v -0.253540546 0.031860806 0.179732382
v -0.275504202 0.0250341557 0.154616416
v -0.253540546 0.0250341557 0.154616416
v -0.275504202 0.031860806 0.179732382
v -0.275504202 0.153875664 0.54799974
v -0.253540546 0.155468658 0.573978305
v -0.275504202 0.155468658 0.573978305
v -0.253540546 0.153875664 0.54799974
v -0.0244957823 0.031860806 0.179732382
v -0.0464594699 0.0250341557 0.154616416
v -0.0244957823 0.0250341557 0.154616416
v -0.0464594699 0.031860806 0.179732382
v -0.253540546 0.0584037565 0.25311777
v -0.275504202 0.0485595278 0.229024157
v -0.253540546 0.0485595278 0.229024157
v -0.275504202 0.0584037565 0.25311777
v -0.275504202 0.00599999959 0
v -0.275504202 0.000531304802 0.0260217525
v -0.275504202 0 0
v -0.275504202 0.00653130561 0.0260217525
v -0.275504202 0.00212433422 0.0520001352
v -0.275504202 0.00812433194 0.0520001352
v -0.275504202 0.00477643171 0.0778918192
v -0.275504202 0.0107764313 0.0778918192
v -0.275504202 0.00848317705 0.103653684
v -0.275504202 0.0144831771 0.103653684
v -0.275504202 0.0132383965 0.129242808
v -0.275504202 0.0192383938 0.129242808
v -0.275504202 0.0190341529 0.154616416
v -0.275504202 0.0250341557 0.154616416
v -0.275504202 0.0258608013 0.179732382
v -0.275504202 0.031860806 0.179732382
v -0.275504202 0.0337069482 0.204548746
v -0.275504202 0.0397069454 0.204548746
v -0.275504202 0.0425595306 0.229024157
v -0.275504202 0.0485595278 0.229024157
v -0.275504202 0.0524037592 0.25311777
v -0.275504202 0.0584037565 0.25311777
v -0.275504202 0.0632232577 0.276789606
v -0.275504202 0.0692232549 0.276789606
v -0.275504202 0.0749999955 0.299999982
v -0.275504202 0.0927767009 0.323210388
v -0.275504202 0.0867767334 0.323210388
v -0.275504202 0.0975962356 0.346882164
v -0.275504202 0.103596233 0.346882164
v -0.275504202 0.107440464 0.370975763
v -0.275504202 0.113440461 0.370975763
v -0.275504202 0.116293035 0.395451277
v -0.275504202 0.12229304 0.395451277
v -0.275504202 0.124139182 0.420267582
v -0.275504202 0.130139202 0.420267582
v -0.275504202 0.130965829 0.445383579
v -0.275504202 0.136965826 0.445383579
v -0.275504202 0.136761591 0.470757276
v -0.275504202 0.142761588 0.470757276
v -0.275504202 0.141516834 0.496346354
v -0.275504202 0.147516802 0.496346354
v -0.275504202 0.145223543 0.522108257
v -0.275504202 0.15122354 0.522108257
v -0.275504202 0.147875667 0.54799974
v -0.275504202 0.153875664 0.54799974
v -0.275504202 0.14946869 0.573978305
v -0.275504202 0.155468658 0.573978305
v -0.275504202 0.149999991 0.599999964
v -0.275504202 0.155999988 0.599999964
v -0.0244957823 0.0397069454 0.204548746
v -0.0464594699 0.031860806 0.179732382
v -0.0244957823 0.031860806 0.179732382
v -0.0464594699 0.0397069454 0.204548746
v -0.0244957823 0.0192383938 0.129242808
v -0.0464594699 0.0144831771 0.103653684
v -0.0244957823 0.0144831771 0.103653684
v -0.0464594699 0.0192383938 0.129242808
v -0.0244957823 0.113440461 0.370975763
v -0.0464594699 0.103596233 0.346882164
v -0.0244957823 0.103596233 0.346882164
v -0.0464594699 0.113440461 0.370975763
v -0.253540546 0.0107764313 0.0778918192
v -0.275504202 0.00812433194 0.0520001352
v -0.253540546 0.00812433194 0.0520001352
v -0.275504202 0.0107764313 0.0778918192
v -0.0244957823 0.15122354 0.522108257
v -0.0464594699 0.147516802 0.496346354
v -0.0244957823 0.147516802 0.496346354
v -0.0464594699 0.15122354 0.522108257
v -0.253540546 0.103596233 0.346882164
v -0.275504202 0.0927767009 0.323210388
v -0.253540546 0.0927767009 0.323210388
v -0.275504202 0.103596233 0.346882164
v -0.253540546 0.130139202 0.420267582
v -0.275504202 0.12229304 0.395451277
v -0.253540546 0.12229304 0.395451277
v -0.275504202 0.130139202 0.420267582
v -0.0244957823 0.142761588 0.470757276
v -0.0464594699 0.136965826 0.445383579
v -0.0244957823 0.136965826 0.445383579
v -0.0464594699 0.142761588 0.470757276
v -0.253540546 0.0144831771 0.103653684
v -0.275504202 0.0107764313 0.0778918192
v -0.253540546 0.0107764313 0.0778918192
v -0.275504202 0.0144831771 0.103653684
v -0.253540546 0.0192383938 0.129242808
v -0.275504202 0.0192383938 0.129242808
v -0.253540546 0.0250341557 0.154616416
v -0.275504202 0.0250341557 0.154616416
v -0.253540546 0.142761588 0.470757276
v -0.275504202 0.136965826 0.445383579
v -0.253540546 0.136965826 0.445383579
v -0.275504202 0.142761588 0.470757276
v -0.253540546 0.12229304 0.395451277
v -0.275504202 0.113440461 0.370975763
v -0.253540546 0.113440461 0.370975763
v -0.275504202 0.12229304 0.395451277
v -0.253540546 0.0927767009 0.323210388
v -0.275504202 0.0692232549 0.276789606
v -0.253540546 0.0692232549 0.276789606
v -0.275504202 0.0927767009 0.323210388
v -0.253540546 0.00653130561 0.0260217525
v -0.275504202 0.00599999959 0
v -0.253540546 0.00599999959 0
v -0.275504202 0.00653130561 0.0260217525
v -0.253540546 0.153875664 0.54799974
v -0.275504202 0.15122354 0.522108257
v -0.253540546 0.15122354 0.522108257
v -0.275504202 0.153875664 0.54799974
v -0.0464594699 0.127139181 0.420267582
v -0.253540546 0.119293042 0.395451277
v -0.0464594699 0.119293042 0.395451277
v -0.253540546 0.127139181 0.420267582
v -0.0464594699 0.119293042 0.395451277
v -0.253540546 0.110440463 0.370975763
v -0.0464594699 0.110440463 0.370975763
v -0.253540546 0.119293042 0.395451277
v -0.0464594699 0.0114831775 0.103653684
v -0.253540546 0.00777643127 0.0778918192
v -0.0464594699 0.00777643127 0.0778918192
v -0.253540546 0.0114831775 0.103653684
v -0.0464594699 0.0455595255 0.229024157
v -0.253540546 0.0367069468 0.204548746
v -0.0464594699 0.0367069468 0.204548746
v -0.253540546 0.0455595255 0.229024157
v -0.253540546 0.127139181 0.420267582
v -0.0464594699 0.133965835 0.445383579
v -0.253540546 0.133965835 0.445383579
v -0.0464594699 0.127139181 0.420267582
v -0.0464594699 0.00512433285 0.0520001352
v -0.253540546 0.00353130559 0.0260217525
v -0.0464594699 0.00353130559 0.0260217525
v -0.253540546 0.00512433285 0.0520001352
v -0.0464594699 0.150875628 0.54799974
v -0.253540546 0.148223534 0.522108257
v -0.0464594699 0.148223534 0.522108257
v -0.253540546 0.150875628 0.54799974
v -0.0464594699 0.0554037541 0.25311777
v -0.253540546 0.0455595255 0.229024157
v -0.0464594699 0.0455595255 0.229024157
v -0.253540546 0.0554037541 0.25311777
v -0.253540546 0.152468696 0.573978305
v -0.0464594699 0.152999982 0.599999964
v -0.253540546 0.152999982 0.599999964
v -0.0464594699 0.152468696 0.573978305
v -0.0464594699 0.0662232563 0.276789606
v -0.253540546 0.0554037541 0.25311777
v -0.0464594699 0.0554037541 0.25311777
v -0.253540546 0.0662232563 0.276789606
v -0.0464594699 0.0288607944 0.179732382
v -0.253540546 0.0220341552 0.154616416
v -0.0464594699 0.0220341552 0.154616416
v -0.253540546 0.0288607944 0.179732382
v -0.253540546 0.089776732 0.323210388
v -0.0464594699 0.100596234 0.346882164
v -0.253540546 0.100596234 0.346882164
v -0.0464594699 0.089776732 0.323210388
v -0.0464594699 0.00777643127 0.0778918192
v -0.253540546 0.00512433285 0.0520001352
v -0.0464594699 0.00512433285 0.0520001352
v -0.253540546 0.00777643127 0.0778918192
v -0.0464594699 0.0367069468 0.204548746
v -0.253540546 0.0288607944 0.179732382
v -0.0464594699 0.0288607944 0.179732382
v -0.253540546 0.0367069468 0.204548746
v -0.253540546 0.139761582 0.470757276
v -0.0464594699 0.144516811 0.496346354
v -0.253540546 0.144516811 0.496346354
v -0.0464594699 0.139761582 0.470757276
v -0.0464594699 0.139761582 0.470757276
v -0.253540546 0.133965835 0.445383579
v -0.0464594699 0.133965835 0.445383579
v -0.253540546 0.139761582 0.470757276
v -0.0464594699 0.0162383933 0.129242808
v -0.253540546 0.0114831775 0.103653684
v -0.0464594699 0.0114831775 0.103653684
v -0.253540546 0.0162383933 0.129242808
v -0.0464594699 0.148223534 0.522108257
v -0.253540546 0.144516811 0.496346354
v -0.0464594699 0.144516811 0.496346354
v -0.253540546 0.148223534 0.522108257
v -0.0464594699 0.152468696 0.573978305
v -0.253540546 0.150875628 0.54799974
v -0.0464594699 0.150875628 0.54799974
v -0.253540546 0.152468696 0.573978305
v -0.0464594699 0.00353130559 0.0260217525
v -0.253540546 0.00299999979 0
v -0.0464594699 0.00299999979 0
v -0.253540546 0.00353130559 0.0260217525
v -0.0464594699 0.110440463 0.370975763
v -0.253540546 0.100596234 0.346882164
v -0.0464594699 0.100596234 0.346882164
v -0.253540546 0.110440463 0.370975763
v -0.0464594699 0.089776732 0.323210388
v -0.253540546 0.0662232563 0.276789606
v -0.0464594699 0.0662232563 0.276789606
v -0.253540546 0.089776732 0.323210388
v -0.0464594699 0.0220341552 0.154616416
v -0.253540546 0.0162383933 0.129242808
v -0.0464594699 0.0162383933 0.129242808
v -0.253540546 0.0220341552 0.154616416
vt 3.8046875 39.25
vt 3.8046875 39.90625
vt 3.8046875 39.5625
vt 0.330078125 35.75
vt 7.609375 35.75
vt 0 35.75
vt 0.659667969 35.78125
vt 0.987792969 35.8125
vt 1.31445312 35.84375
vt 1.63964844 35.90625
vt 1.9609375 36
vt 2.27929688 36.0625
vt 2.59375 36.1875
vt 2.90429688 36.28125
vt 3.2109375 36.40625
vt 3.51171875 36.5625
vt 3.8046875 36.6875
vt 4.1015625 36.84375
vt 4.3984375 36.96875
vt 4.70703125 37.09375
vt 5.015625 37.21875
vt 5.33203125 37.3125
vt 5.6484375 37.40625
vt 5.97265625 37.46875
vt 6.296875 37.53125
vt 6.62109375 37.59375
vt 6.94921875 37.625
vt 7.28125 37.65625
vt 7.609375 37.65625
vt -0 37.65625
vt -3.8046875 37.65625
vt -0.310791016 37.65625
vt -3.49414062 37.65625
vt -0.589355469 37.6875
vt -0.310791016 37.71875
vt -0.589355469 37.71875
vt -3.21679688 37.6875
vt -3.49414062 37.71875
vt -3.21679688 37.71875
vt 0.257324219 0.397705078
vt 0.259765625 0.417724609
vt 0.260009766 0.396728516
vt 0.259765625 0.417724609
vt 0.257324219 0.415039062
vt 0.255371094 0.398925781
vt 0.255126953 0.409912109
vt 0.254150391 0.400146484
vt 0.254150391 0.408203125
vt 0.253173828 0.401123047
vt 0.253173828 0.407470703
vt 0.252441406 0.402099609
vt 0.252685547 0.406738281
vt 0.251953125 0.402832031
vt 0.251953125 0.406738281
vt 0.251464844 0.403564453
vt 0.251708984 0.407226562
vt 0.251220703 0.404541016
vt 0.251220703 0.407714844
vt 0.250732422 0.405517578
vt 0.250976562 0.408691406
vt 0.250488281 0.406738281
vt 0.250488281 0.409667969
vt 0.25 0.407958984
vt 0.250244141 0.410888672
vt 0.249389648 0.410644531
vt 0.249511719 0.413574219
vt 0.249023438 0.411865234
vt 0.249145508 0.415039062
vt 0.248657227 0.413085938
vt 0.248779297 0.416015625
vt 0.248291016 0.4140625
vt 0.248413086 0.417236328
vt 0.247924805 0.415039062
vt 0.248046875 0.41796875
vt 0.247558594 0.415771484
vt 0.247680664 0.418945312
vt 0.247192383 0.416259766
vt 0.247314453 0.419433594
vt 0.246826172 0.416748047
vt 0.246948242 0.419921875
vt 0.246459961 0.417236328
vt 0.246459961 0.420410156
vt 0.24609375 0.417480469
vt 0.24609375 0.420654297
vt 0.245727539 0.417480469
vt 0.245727539 0.420654297
vt 0.245361328 0.417480469
vt 0.245361328 0.420654297
vt 0.241088867 0.396728516
vt 0.245361328 0.417480469
vt 0.245483398 0.398193359
vt 0.240966797 0.416259766
vt 0.251953125 0.392822266
vt 0.252441406 0.396728516
vt 0.252441406 0.392822266
vt 0.251953125 0.396728516
vt 0.251464844 0.392822266
vt 0.251464844 0.396728516
vt 0.250976562 0.392822266
vt 0.250976562 0.396728516
vt 0.250488281 0.392822266
vt 0.250488281 0.396728516
vt 0.25 0.392822266
vt 0.25 0.396728516
vt 0.249633789 0.392822266
vt 0.249633789 0.396728516
vt 0.249145508 0.392822266
vt 0.249145508 0.396728516
vt 0.248657227 0.392822266
vt 0.248657227 0.396728516
vt 0.248168945 0.392822266
vt 0.248168945 0.396728516
vt 0.247680664 0.392822266
vt 0.247680664 0.396728516
vt 0.247192383 0.392822266
vt 0.247192383 0.396728516
vt 0.24621582 0.392822266
vt 0.246704102 0.396728516
vt 0.24621582 0.396728516
vt 0.245849609 0.392822266
vt 0.245849609 0.396728516
vt 0.245361328 0.392822266
vt 0.245361328 0.396728516
vt 0.244873047 0.392822266
vt 0.244873047 0.396728516
vt 0.244384766 0.392822266
vt 0.244384766 0.396728516
vt 0.243896484 0.392822266
vt 0.243896484 0.396728516
vt 0.243408203 0.392822266
vt 0.243408203 0.396728516
vt 0.242919922 0.392822266
vt 0.242919922 0.396728516
vt 0.242431641 0.392822266
vt 0.242431641 0.396728516
vt 0.241943359 0.392822266
vt 0.241943359 0.396728516
vt 0.241455078 0.392822266
vt 0.241455078 0.396728516
vt 0.240966797 0.392822266
vt 0.240966797 0.396728516
vt 0.245727539 0.417480469
vt 0.245483398 0.398193359
vt 0.245361328 0.417480469
vt 0.24609375 0.417480469
vt 0.246459961 0.417236328
vt 0.246826172 0.416748047
vt 0.247192383 0.416259766
vt 0.247558594 0.415771484
vt 0.247924805 0.415039062
vt 0.248291016 0.4140625
vt 0.248657227 0.413085938
vt 0.249023438 0.411865234
vt 0.249389648 0.410644531
vt 0.25 0.407958984
vt 0.250488281 0.406738281
vt 0.250732422 0.405517578
vt 0.251220703 0.404541016
vt 0.251464844 0.403564453
vt 0.251953125 0.402832031
vt 0.252441406 0.402099609
vt 0.253173828 0.401123047
vt 0.254150391 0.400146484
vt 0.255371094 0.398925781
vt 0.257324219 0.397705078
vt 0.260009766 0.396728516
vt -0 35.8125
vt 0.330078125 35.78125
vt -0 35.78125
vt 0.330078125 35.84375
vt 0.659667969 35.8125
vt 0.659667969 35.84375
vt 0.987792969 35.84375
vt 0.987792969 35.875
vt 1.31445312 35.90625
vt 1.31445312 35.9375
vt 1.63964844 35.9375
vt 1.63964844 36
vt 1.9609375 36.03125
vt 1.9609375 36.0625
vt 2.27929688 36.125
vt 2.27929688 36.15625
vt 2.59375 36.21875
vt 2.59375 36.25
vt 2.90429688 36.3125
vt 2.90429688 36.375
vt 3.2109375 36.4375
vt 3.2109375 36.5
vt 3.51171875 36.59375
vt 3.51171875 36.625
vt 4.1015625 36.875
vt 4.1015625 36.9375
vt 4.3984375 37.03125
vt 4.3984375 37.0625
vt 4.70703125 37.15625
vt 4.70703125 37.1875
vt 5.015625 37.25
vt 5.015625 37.3125
vt 5.33203125 37.34375
vt 5.33203125 37.40625
vt 5.6484375 37.4375
vt 5.6484375 37.46875
vt 5.97265625 37.53125
vt 5.97265625 37.5625
vt 6.296875 37.59375
vt 6.296875 37.625
vt 6.62109375 37.625
vt 6.62109375 37.65625
vt 6.94921875 37.65625
vt 6.94921875 37.6875
vt 7.28125 37.6875
vt 7.28125 37.71875
vt 7.609375 37.6875
vt 7.609375 37.71875
vt -7.28125 37.71875
vt -7.609375 37.6875
vt -7.609375 37.71875
vt -7.28125 37.6875
vt -6.94921875 37.6875
vt -6.94921875 37.65625
vt -6.62109375 37.65625
vt -6.62109375 37.625
vt -6.296875 37.625
vt -6.296875 37.59375
vt -5.97265625 37.5625
vt -5.97265625 37.53125
vt -5.6484375 37.46875
vt -5.6484375 37.4375
vt -5.33203125 37.40625
vt -5.33203125 37.34375
vt -5.015625 37.3125
vt -5.015625 37.25
vt -4.70703125 37.1875
vt -4.70703125 37.15625
vt -4.3984375 37.0625
vt -4.3984375 37.03125
vt -4.1015625 36.875
vt -4.1015625 36.9375
vt -3.51171875 36.625
vt -3.51171875 36.59375
vt -3.2109375 36.5
vt -3.2109375 36.4375
vt -2.90429688 36.375
vt -2.90429688 36.3125
vt -2.59375 36.25
vt -2.59375 36.21875
vt -2.27929688 36.15625
vt -2.27929688 36.125
vt -1.9609375 36.0625
vt -1.9609375 36.03125
vt -1.63964844 36
vt -1.63964844 35.9375
vt -1.31445312 35.9375
vt -1.31445312 35.90625
vt -0.987792969 35.875
vt -0.987792969 35.84375
vt -0.659667969 35.84375
vt -0.659667969 35.8125
vt -0.330078125 35.84375
vt -0.330078125 35.78125
vt 0 35.8125
vt 0 35.78125
vt 0.310791016 41.3125
vt 0.589355469 41
vt 0.310791016 41
vt 0.589355469 41.3125
vt 0.589355469 36.75
vt 0.310791016 37.0625
vt 0.589355469 37.0625
vt 0.310791016 36.75
vt 0.589355469 36.40625
vt 0.310791016 36.40625
vt 3.49414062 40.3125
vt 3.21679688 40.65625
vt 3.49414062 40.65625
vt 3.21679688 40.3125
vt 3.49414062 42.25
vt 3.21679688 42.5625
vt 3.49414062 42.5625
vt 3.21679688 42.25
vt 0.310791016 41
vt 0.589355469 40.65625
vt 0.310791016 40.65625
vt 0.589355469 41
vt 0.589355469 39.28125
vt 0.310791016 39.9375
vt 0.589355469 39.9375
vt 0.310791016 39.28125
vt 0.310791016 43.125
vt 0.589355469 42.8125
vt 0.310791016 42.8125
vt 0.589355469 43.125
vt 0.310791016 36.0625
vt 0.589355469 35.75
vt 0.310791016 35.75
vt 0.589355469 36.0625
vt 0.310791016 42.875
vt 0.589355469 42.53125
vt 0.310791016 42.53125
vt 0.589355469 42.875
vt 0.310791016 36.40625
vt 0.589355469 36.09375
vt 0.310791016 36.09375
vt 0.589355469 36.40625
vt 0.589355469 43.0625
vt 0.310791016 43.40625
vt 0.589355469 43.40625
vt 0.310791016 43.0625
vt 0.589355469 41.3125
vt 0.310791016 41.65625
vt 0.589355469 41.65625
vt 0.310791016 41.3125
vt -0.659667969 35.84375
vt -0.659667969 35.78125
vt -0.987792969 35.875
vt -0.330078125 35.75
vt -0.330078125 35.84375
vt 0 35.75
vt 0 35.8125
vt 0.252441406 0.408203125
vt 0.253173828 0.407470703
vt 0.252685547 0.406738281
vt 0.253173828 0.408935547
vt 0.254150391 0.408203125
vt 0.254150391 0.41015625
vt 0.255126953 0.409912109
vt -1.63964844 36
vt -1.63964844 35.90625
vt -1.9609375 36.0625
vt -1.9609375 36
vt -2.27929688 36.15625
vt -2.27929688 36.0625
vt -2.59375 36.25
vt -2.59375 36.1875
vt -2.90429688 36.375
vt -2.90429688 36.28125
vt -3.2109375 36.5
vt -3.2109375 36.40625
vt -3.51171875 36.625
vt -3.51171875 36.5625
vt -4.1015625 36.9375
vt -4.1015625 36.84375
vt -4.3984375 37.0625
vt -4.3984375 36.96875
vt -4.70703125 37.1875
vt -4.70703125 37.09375
vt -5.015625 37.3125
vt -5.015625 37.21875
vt -5.33203125 37.40625
vt -5.33203125 37.3125
vt -5.6484375 37.46875
vt -5.6484375 37.40625
vt -5.97265625 37.5625
vt -5.97265625 37.46875
vt -6.296875 37.625
vt -6.296875 37.53125
vt -6.62109375 37.65625
vt -6.62109375 37.59375
vt -6.94921875 37.6875
vt -6.94921875 37.625
vt -7.28125 37.71875
vt -7.28125 37.65625
vt -7.609375 37.71875
vt -7.609375 37.65625
vt 0.310791016 38.6875
vt 0.589355469 38.34375
vt 0.310791016 38.34375
vt 0.589355469 38.6875
vt 0.310791016 40.28125
vt 0.589355469 39.96875
vt 0.310791016 39.96875
vt 0.589355469 40.28125
vt 3.49414062 38.96875
vt 3.21679688 39.3125
vt 3.49414062 39.3125
vt 3.21679688 38.96875
vt 0.310791016 39
vt 0.589355469 38.65625
vt 0.310791016 38.65625
vt 0.589355469 39
vt 3.49414062 38.03125
vt 3.21679688 38.375
vt 3.49414062 38.375
vt 3.21679688 38.03125
vt 3.49414062 36.09375
vt 3.21679688 36.40625
vt 3.49414062 36.40625
vt 3.21679688 36.09375
vt 0.310791016 42.28125
vt 0.589355469 41.9375
vt 0.310791016 41.9375
vt 0.589355469 42.28125
vt 3.49414062 41.3125
vt 3.21679688 41.65625
vt 3.49414062 41.65625
vt 3.21679688 41.3125
vt 3.21679688 43.40625
vt 3.49414062 43.0625
vt 3.21679688 43.0625
vt 3.49414062 43.40625
vt 3.21679688 42.28125
vt 3.49414062 41.9375
vt 3.21679688 41.9375
vt 3.49414062 42.28125
vt 3.21679688 38.6875
vt 3.49414062 38.34375
vt 3.21679688 38.34375
vt 3.49414062 38.6875
vt 0.589355469 38.96875
vt 0.310791016 39.3125
vt 0.589355469 39.3125
vt 0.310791016 38.96875
vt 0.589355469 37.40625
vt 0.310791016 37.71875
vt 0.589355469 37.71875
vt 0.310791016 37.40625
vt 3.21679688 38.0625
vt 3.49414062 37.71875
vt 3.21679688 37.71875
vt 3.49414062 38.0625
vt 3.49414062 42.8125
vt 3.21679688 43.125
vt 3.49414062 43.125
vt 3.21679688 42.8125
vt 0.310791016 38.0625
vt 0.589355469 37.71875
vt 0.310791016 37.71875
vt 0.589355469 38.0625
vt 3.21679688 39
vt 3.49414062 38.65625
vt 3.21679688 38.65625
vt 3.49414062 39
vt 0 35.8125
vt 0.330078125 35.75
vt 0 35.75
vt 0.330078125 35.84375
vt 0.659667969 35.78125
vt 0.659667969 35.84375
vt 0.987792969 35.8125
vt 0.987792969 35.875
vt 1.31445312 35.84375
vt 1.31445312 35.9375
vt 1.63964844 35.90625
vt 1.63964844 36
vt 1.9609375 36
vt 1.9609375 36.0625
vt 2.27929688 36.0625
vt 2.27929688 36.15625
vt 2.59375 36.1875
vt 2.59375 36.25
vt 2.90429688 36.28125
vt 2.90429688 36.375
vt 3.2109375 36.40625
vt 3.2109375 36.5
vt 3.51171875 36.5625
vt 3.51171875 36.625
vt 3.8046875 36.6875
vt 4.1015625 36.9375
vt 4.1015625 36.84375
vt 4.3984375 36.96875
vt 4.3984375 37.0625
vt 4.70703125 37.09375
vt 4.70703125 37.1875
vt 5.015625 37.21875
vt 5.015625 37.3125
vt 5.33203125 37.3125
vt 5.33203125 37.40625
vt 5.6484375 37.40625
vt 5.6484375 37.46875
vt 5.97265625 37.46875
vt 5.97265625 37.5625
vt 6.296875 37.53125
vt 6.296875 37.625
vt 6.62109375 37.59375
vt 6.62109375 37.65625
vt 6.94921875 37.625
vt 6.94921875 37.6875
vt 7.28125 37.65625
vt 7.28125 37.71875
vt 7.609375 37.65625
vt 7.609375 37.71875
vt 0.310791016 38.375
vt 0.589355469 38.03125
vt 0.310791016 38.03125
vt 0.589355469 38.375
vt 0.310791016 37.40625
vt 0.589355469 37.0625
vt 0.310791016 37.0625
vt 0.589355469 37.40625
vt 0.310791016 40.65625
vt 0.589355469 40.3125
vt 0.310791016 40.3125
vt 0.589355469 40.65625
vt 3.21679688 36.75
vt 3.49414062 36.40625
vt 3.21679688 36.40625
vt 3.49414062 36.75
vt 0.310791016 42.5625
vt 0.589355469 42.25
vt 0.310791016 42.25
vt 0.589355469 42.5625
vt 3.21679688 40.28125
vt 3.49414062 39.96875
vt 3.21679688 39.96875
vt 3.49414062 40.28125
vt 3.21679688 41.3125
vt 3.49414062 41
vt 3.21679688 41
vt 3.49414062 41.3125
vt 0.310791016 41.96875
vt 0.589355469 41.625
vt 0.310791016 41.625
vt 0.589355469 41.96875
vt 5.30481339E-05 0.333251953
vt 0.28125 5.30481339E-05
vt 5.31077385E-05 5.30481339E-05
vt 0.28125 0.333251953
vt 5.30481339E-05 0.666503906
vt 0.28125 0.666503906
vt 5.30481339E-05 1
vt 0.28125 1
vt 3.21679688 41.96875
vt 3.49414062 41.625
vt 3.21679688 41.625
vt 3.49414062 41.96875
vt 3.21679688 41
vt 3.49414062 40.65625
vt 3.21679688 40.65625
vt 3.49414062 41
vt 3.21679688 39.9375
vt 3.49414062 39.28125
vt 3.21679688 39.28125
vt 3.49414062 39.9375
vt 3.21679688 36.0625
vt 3.49414062 35.75
vt 3.21679688 35.75
vt 3.49414062 36.0625
vt 3.21679688 42.875
vt 3.49414062 42.53125
vt 3.21679688 42.53125
vt 3.49414062 42.875
vt 13.140625 48.25
vt 26.21875 46.625
vt 13.140625 46.625
vt 26.21875 48.25
vt 13.140625 46.5625
vt 26.21875 44.9375
vt 13.140625 44.9375
vt 26.21875 46.5625
vt 13.140625 27.109375
vt 26.21875 25.46875
vt 13.140625 25.46875
vt 26.21875 27.109375
vt 13.140625 35.09375
vt 26.21875 33.46875
vt 13.140625 33.46875
vt 26.21875 35.09375
vt 26.21875 48.25
vt 13.140625 49.90625
vt 26.21875 49.90625
vt 13.140625 48.25
vt 13.140625 23.828125
vt 26.21875 22.171875
vt 13.140625 22.171875
vt 26.21875 23.828125
vt 13.140625 55.9375
vt 26.21875 54.28125
vt 13.140625 54.28125
vt 26.21875 55.9375
vt 13.140625 36.65625
vt 26.21875 35
vt 13.140625 35
vt 26.21875 36.65625
vt 26.21875 56.96875
vt 13.140625 58.625
vt 26.21875 58.625
vt 13.140625 56.96875
vt 13.140625 38.15625
vt 26.21875 36.53125
vt 13.140625 36.53125
vt 26.21875 38.15625
vt 13.140625 31.953125
vt 26.21875 30.3125
vt 13.140625 30.3125
vt 26.21875 31.953125
vt 26.21875 41.4375
vt 13.140625 43.09375
vt 26.21875 43.09375
vt 13.140625 41.4375
vt 13.140625 25.46875
vt 26.21875 23.828125
vt 13.140625 23.828125
vt 26.21875 25.46875
vt 13.140625 33.53125
vt 26.21875 31.890625
vt 13.140625 31.890625
vt 26.21875 33.53125
vt 26.21875 51.375
vt 13.140625 53.03125
vt 26.21875 53.03125
vt 13.140625 51.375
vt 13.140625 51.46875
vt 26.21875 49.84375
vt 13.140625 49.84375
vt 26.21875 51.46875
vt 13.140625 28.734375
vt 26.21875 27.09375
vt 13.140625 27.09375
vt 26.21875 28.734375
vt 13.140625 54.5
vt 26.21875 52.84375
vt 13.140625 52.84375
vt 26.21875 54.5
vt 13.140625 57.3125
vt 26.21875 55.65625
vt 13.140625 55.65625
vt 26.21875 57.3125
vt 13.140625 22.171875
vt 26.21875 20.53125
vt 13.140625 20.53125
vt 26.21875 22.171875
vt 13.140625 44.84375
vt 26.21875 43.21875
vt 13.140625 43.21875
vt 26.21875 44.84375
vt 13.140625 41.28125
vt 26.21875 38
vt 13.140625 38
vt 26.21875 41.28125
vt 13.140625 30.359375
vt 26.21875 28.703125
vt 13.140625 28.703125
vt 26.21875 30.359375
vn -0 0.900878906 -0.434082031
vn -0 0.900878906 -0.434082031
vn -0 0.891601562 -0.452392578
vn -1 0 0
vn -1 0 0
vn -1 0 0
vn -1 -5.60283661E-06 0
vn -1 0 0
vn -1 0 0
vn -1 0 0
vn -1 0 0
vn -1 0 0
vn -1 0 0
vn -1 0 0
vn -1 0 0
vn -1 0 0
vn -1 0 0
vn -1 0 0
vn -1 0 0
vn -1 0 0
vn -1 0 0
vn -1 0 0
vn -1 0 0
vn -1 0 0
vn -1 0 0
vn -1 0 0
vn -1 0 0
vn -1 0 0
vn -1 0 0
vn -0 0 1
vn -0 0 1
vn -0 0 1
vn -0 0 1
vn -0 0 1
vn -0 0 1
vn -0 0 1
vn -0 0 1
vn -0 0 1
vn -0 0 1
vn -0 0.999023438 -0.0408325195
vn -0 1 -0.0204162598
vn -0 1 -0.0204162598
vn -0 1 -0.0204162598
vn -0 0.999023438 -0.0408325195
vn -0 0.996582031 -0.0815429688
vn -0 0.996582031 -0.0815429688
vn -0 0.992675781 -0.122192383
vn -0 0.992675781 -0.122192383
vn -0 0.986816406 -0.162597656
vn -0 0.986816406 -0.162597656
vn -0 0.979003906 -0.202758789
vn -0 0.979003906 -0.202758789
vn -0 0.970214844 -0.242553711
vn -0 0.970214844 -0.242553711
vn -0 0.959472656 -0.281982422
vn -0 0.959472656 -0.281982422
vn -0 0.947265625 -0.320800781
vn -0 0.947265625 -0.320800781
vn -0 0.933105469 -0.359375
vn -0 0.933105469 -0.359375
vn -0 0.91796875 -0.396972656
vn -0 0.91796875 -0.396972656
vn -0 0.900878906 -0.434082031
vn -0 0.900878906 -0.434082031
vn -0 0.900878906 -0.434082031
vn -0 0.900878906 -0.434082031
vn -0 0.91796875 -0.396972656
vn -0 0.91796875 -0.396972656
vn -0 0.933105469 -0.359375
vn -0 0.933105469 -0.359375
vn -0 0.947265625 -0.320800781
vn -0 0.947265625 -0.320800781
vn -0 0.959472656 -0.281982422
vn -0 0.959472656 -0.281982422
vn -0 0.970214844 -0.242553711
vn -0 0.970214844 -0.242553711
vn -0 0.979003906 -0.202758789
vn -0 0.979003906 -0.202758789
vn -0 0.986816406 -0.162597656
vn -0 0.986816406 -0.162597656
vn -0 0.992675781 -0.122192383
vn -0 0.992675781 -0.122192383
vn -0 0.996582031 -0.0815429688
vn -0 0.996582031 -0.0815429688
vn -0 0.999023438 -0.0408325195
vn -0 0.999023438 -0.0408325195
vn -0 1 -0.0204162598
vn -0 1 -0.0204162598
vn -0 0 1
vn -0 0 1
vn -0 0 1
vn -0 0 1
vn -0 0.999023438 -0.0408325195
vn -0 1 -0.0204162598
vn -0 1 -0.0204162598
vn -0 0.999023438 -0.0408325195
vn -0 0.996582031 -0.0815429688
vn -0 0.996582031 -0.0815429688
vn -0 0.992675781 -0.122192383
vn -0 0.992675781 -0.122192383
vn -0 0.986816406 -0.162597656
vn -0 0.986816406 -0.162597656
vn -0 0.979003906 -0.202758789
vn -0 0.979003906 -0.202758789
vn -0 0.970214844 -0.242553711
vn -0 0.970214844 -0.242553711
vn -0 0.959472656 -0.281982422
vn -0 0.959472656 -0.281982422
vn -0 0.947265625 -0.320800781
vn -0 0.947265625 -0.320800781
vn -0 0.933105469 -0.359375
vn -0 0.933105469 -0.359375
vn -0 0.91796875 -0.396972656
vn -0 0.91796875 -0.396972656
vn -0 0.900878906 -0.434082031
vn -0 0.900878906 -0.434082031
vn -0 0.900878906 -0.434082031
vn -0 0.891601562 -0.452392578
vn -0 0.900878906 -0.434082031
vn -0 0.91796875 -0.396972656
vn -0 0.91796875 -0.396972656
vn -0 0.933105469 -0.359375
vn -0 0.933105469 -0.359375
vn -0 0.947265625 -0.320800781
vn -0 0.947265625 -0.320800781
vn -0 0.959472656 -0.281982422
vn -0 0.959472656 -0.281982422
vn -0 0.970214844 -0.242553711
vn -0 0.970214844 -0.242553711
vn -0 0.979003906 -0.202758789
vn -0 0.979003906 -0.202758789
vn -0 0.986816406 -0.162597656
vn -0 0.986816406 -0.162597656
vn -0 0.992675781 -0.122192383
vn -0 0.992675781 -0.122192383
vn -0 0.996582031 -0.0815429688
vn -0 0.996582031 -0.0815429688
vn -0 0.999023438 -0.0408325195
vn -0 0.999023438 -0.040802002
vn -0 1 -0.0204162598
vn -0 1 -0.0204162598
vn 1 0 0
vn 1 0 0
vn 1 0 0
vn 1 0 0
vn 1 0 0
vn 1 0 0
vn 1 0 0
vn 1 0 0
vn 1 0 0
vn 1 0 0
vn 1 0 0
vn 1 0 0
vn 1 0 0
vn 1 0 0
vn 1 0 0
vn 1 0 0
vn 1 0 0
vn 1 0 0
vn 1 0 0
vn 1 0 0
vn 1 0 0
vn 1 0 0
vn 1 0 0
vn 1 0 0
vn 1 0 0
vn -1 0 0
vn -1 0 0
vn -1 0 0
vn -1 0 0
vn -1 0 0
vn -1 0 0
vn -1 0 0
vn -1 0 0
vn -1 0 0
vn -1 0 0
vn -1 0 0
vn -1 0 0
vn -1 0 0
vn -1 0 0
vn -1 0 0
vn -1 0 0
vn -1 0 0
vn -1 0 0
vn -1 0 0
vn -1 0 0
vn -1 0 0
vn -1 0 0
vn -1 0 0
vn -1 0 0
vn -1 0 0
vn -1 0 0
vn -1 0 0
vn -1 0 0
vn -1 0 0
vn -1 0 0
vn -1 0 0
vn -1 0 0
vn -1 0 0
vn -1 0 0
vn -1 0 0
vn -1 0 0
vn -1 0 0
vn -1 0 0
vn -1 0 0
vn -1 0 0
vn -1 0 0
vn -1 0 0
vn -1 0 0
vn -1 0 0
vn -1 0 0
vn -1 0 0
vn -1 0 0
vn -1 0 0
vn 1 0 0
vn 1 0 0
vn 1 0 0
vn 1 0 0
vn 1 0 0
vn 1 0 0
vn 1 0 0
vn 1 0 0
vn 1 0 0
vn 1 0 0
vn 1 0 0
vn 1 0 0
vn 1 0 0
vn 1 0 0
vn 1 0 0
vn 1 0 0
vn 1 0 0
vn 1 0 0
vn 1 0 0
vn 1 0 0
vn 1 0 0
vn 1 0 0
vn 1 0 0
vn 1 0 0
vn 1 0 0
vn 1 0 0
vn 1 0 0
vn 1 0 0
vn 1 0 0
vn 1 0 0
vn 1 0 0
vn 1 0 0
vn 1 0 0
vn 1 0 0
vn 1 0 0
vn 1 0 0
vn 1 0 0
vn 1 0 0
vn 1 0 0
vn 1 0 0
vn 1 0 0
vn 1 0 0
vn 1 0 0
vn 1 0 0
vn 1 0 0
vn 1 0 0
vn 1 0 0
vn 1 0 0
vn -0 0.959472656 -0.281982422
vn -0 0.947265625 -0.320800781
vn -0 0.947265625 -0.320800781
vn -0 0.959472656 -0.281982422
vn -0 0.992675781 -0.122192383
vn -0 0.986816406 -0.162597656
vn -0 0.986816406 -0.162597656
vn -0 0.992675781 -0.122192383
vn -0 0.996582031 -0.0815429688
vn -0 0.996582031 -0.0815429688
vn -0 0.91796875 -0.396972656
vn -0 0.933105469 -0.359375
vn -0 0.933105469 -0.359375
vn -0 0.91796875 -0.396972656
vn -0 0.986816406 -0.162597656
vn -0 0.992675781 -0.122192383
vn -0 0.992675781 -0.122192383
vn -0 0.986816406 -0.162597656
vn -0 0.947265625 -0.320800781
vn -0 0.933105469 -0.359375
vn -0 0.933105469 -0.359375
vn -0 0.947265625 -0.320800781
vn -0 0.900878906 -0.434082031
vn -0 0.900878906 -0.434082031
vn -0 0.900878906 -0.434082031
vn -0 0.900878906 -0.434082031
vn -0 0.999023438 -0.0408325195
vn -0 0.996582031 -0.0815429688
vn -0 0.996582031 -0.0815429688
vn -0 0.999023438 -0.0408325195
vn -0 0.999023438 -0.0408325195
vn -0 1 -0.0204162598
vn -0 1 -0.0204162598
vn -0 0.999023438 -0.0408325195
vn -0 0.996582031 -0.0815429688
vn -0 0.992675781 -0.122192383
vn -0 0.992675781 -0.122192383
vn -0 0.996582031 -0.0815429688
vn -0 0.996582031 -0.0815429688
vn -0 0.999023438 -0.0408325195
vn -0 0.999023438 -0.0408325195
vn -0 0.996582031 -0.0815429688
vn -0 0.999023438 -0.0408325195
vn -0 1 -0.0204162598
vn -0 1 -0.0204162598
vn -0 0.999023438 -0.0408325195
vn -0 0.959472656 -0.281982422
vn -0 0.970214844 -0.242553711
vn -0 0.970214844 -0.242553711
vn -0 0.959472656 -0.281982422
vn 1 0 0
vn 1 0 0
vn 1 0 0
vn 1 0 0
vn 1 0 0
vn 1 0 0
vn 1 0 0
vn 1 0 0
vn 1 0 0
vn 1 0 0
vn 1 0 0
vn 1 0 0
vn 1 0 0
vn 1 0 0
vn 1 0 0
vn 1 0 0
vn 1 0 0
vn 1 0 0
vn 1 0 0
vn 1 0 0
vn 1 0 0
vn 1 0 0
vn 1 0 0
vn 1 0 0
vn 1 0 0
vn 1 0 0
vn 1 0 0
vn 1 0 0
vn 1 0 0
vn 1 0 0
vn 1 0 0
vn 1 0 0
vn 1 0 0
vn 1 0 0
vn 1 0 0
vn 1 0 0
vn 1 0 0
vn 1 0 0
vn 1 0 0
vn 1 0 0
vn 1 0 0
vn 1 0 0
vn 1 0 0
vn 1 0 0
vn 1 0 0
vn 1 0 0
vn 1 0 0
vn 1 0 0
vn 1 0 0
vn 1 0 0
vn 1 0 0
vn 1 0 0
vn -0 0.933105469 -0.359375
vn -0 0.947265625 -0.320800781
vn -0 0.947265625 -0.320800781
vn -0 0.933105469 -0.359375
vn -0 0.91796875 -0.396972656
vn -0 0.900878906 -0.434082031
vn -0 0.900878906 -0.434082031
vn -0 0.91796875 -0.396972656
vn -0 0.91796875 -0.396972656
vn -0 0.900878906 -0.434082031
vn -0 0.900878906 -0.434082031
vn -0 0.91796875 -0.396972656
vn -0 0.91796875 -0.396972656
vn -0 0.933105469 -0.359375
vn -0 0.933105469 -0.359375
vn -0 0.91796875 -0.396972656
vn -0 0.959472656 -0.281982422
vn -0 0.947265625 -0.320800781
vn -0 0.947265625 -0.320800781
vn -0 0.959472656 -0.281982422
vn -0 0.999023438 -0.0408325195
vn -0 0.996582031 -0.0815429688
vn -0 0.996582031 -0.0815429688
vn -0 0.999023438 -0.0408325195
vn -0 0.986816406 -0.162597656
vn -0 0.979003906 -0.202758789
vn -0 0.979003906 -0.202758789
vn -0 0.986816406 -0.162597656
vn -0 0.959472656 -0.281982422
vn -0 0.970214844 -0.242553711
vn -0 0.970214844 -0.242553711
vn -0 0.959472656 -0.281982422
vn -0 1 -0.0204162598
vn -0 0.999023438 -0.0408325195
vn -0 0.999023438 -0.0408325195
vn -0 1 -0.0204162598
vn -0 0.986816406 -0.162597656
vn -0 0.979003906 -0.202758789
vn -0 0.979003906 -0.202758789
vn -0 0.986816406 -0.162597656
vn -0 0.933105469 -0.359375
vn -0 0.947265625 -0.320800781
vn -0 0.947265625 -0.320800781
vn -0 0.933105469 -0.359375
vn -0 0.91796875 -0.396972656
vn -0 0.900878906 -0.434082031
vn -0 0.900878906 -0.434082031
vn -0 0.91796875 -0.396972656
vn -0 0.979003906 -0.202758789
vn -0 0.970214844 -0.242553711
vn -0 0.970214844 -0.242553711
vn -0 0.979003906 -0.202758789
vn -0 0.959472656 -0.281982422
vn -0 0.970214844 -0.242553711
vn -0 0.970214844 -0.242553711
vn -0 0.959472656 -0.281982422
vn -0 0.996582031 -0.0815429688
vn -0 0.999023438 -0.0408325195
vn -0 0.999023438 -0.0408325195
vn -0 0.996582031 -0.0815429688
vn -0 0.959472656 -0.281982422
vn -0 0.970214844 -0.242553711
vn -0 0.970214844 -0.242553711
vn -0 0.959472656 -0.281982422
vn -0 0.91796875 -0.396972656
vn -0 0.933105469 -0.359375
vn -0 0.933105469 -0.359375
vn -0 0.91796875 -0.396972656
vn -1 0 0
vn -1 0 0
vn -1 0 0
vn -1 0 0
vn -1 0 0
vn -1 0 0
vn -1 0 0
vn -1 0 0
vn -1 0 0
vn -1 0 0
vn -1 0 0
vn -1 0 0
vn -1 0 0
vn -1 0 0
vn -1 0 0
vn -1 0 0
vn -1 0 0
vn -1 0 0
vn -1 0 0
vn -1 0 0
vn -1 0 0
vn -1 0 0
vn -1 0 0
vn -1 0 0
vn -1 8.34465027E-06 0
vn -1 0 0
vn -1 0 0
vn -1 0 0
vn -1 0 0
vn -1 0 0
vn -1 0 0
vn -1 0 0
vn -1 0 0
vn -1 0 0
vn -1 0 0
vn -1 0 0
vn -1 0 0
vn -1 0 0
vn -1 0 0
vn -1 0 0
vn -1 0 0
vn -1 0 0
vn -1 0 0
vn -1 0 0
vn -1 0 0
vn -1 0 0
vn -1 0 0
vn -1 0 0
vn -1 0 0
vn -0 0.947265625 -0.320800781
vn -0 0.959472656 -0.281982422
vn -0 0.959472656 -0.281982422
vn -0 0.947265625 -0.320800781
vn -0 0.979003906 -0.202758789
vn -0 0.986816406 -0.162597656
vn -0 0.986816406 -0.162597656
vn -0 0.979003906 -0.202758789
vn -0 0.933105469 -0.359375
vn -0 0.91796875 -0.396972656
vn -0 0.91796875 -0.396972656
vn -0 0.933105469 -0.359375
vn -0 0.992675781 -0.122192383
vn -0 0.996582031 -0.0815429688
vn -0 0.996582031 -0.0815429688
vn -0 0.992675781 -0.122192383
vn -0 0.992675781 -0.122192383
vn -0 0.986816406 -0.162597656
vn -0 0.986816406 -0.162597656
vn -0 0.992675781 -0.122192383
vn -0 0.91796875 -0.396972656
vn -0 0.900878906 -0.434082031
vn -0 0.900878906 -0.434082031
vn -0 0.91796875 -0.396972656
vn -0 0.959472656 -0.281982422
vn -0 0.947265625 -0.320800781
vn -0 0.947265625 -0.320800781
vn -0 0.959472656 -0.281982422
vn -0 0.979003906 -0.202758789
vn -0 0.970214844 -0.242553711
vn -0 0.970214844 -0.242553711
vn -0 0.979003906 -0.202758789
vn -0 0.986816406 -0.162597656
vn -0 0.992675781 -0.122192383
vn -0 0.992675781 -0.122192383
vn -0 0.986816406 -0.162597656
vn -0 0.979003906 -0.202758789
vn -0 0.979003906 -0.202758789
vn -0 0.970214844 -0.242553711
vn -0 0.970214844 -0.242553711
vn -0 0.979003906 -0.202758789
vn -0 0.970214844 -0.242553711
vn -0 0.970214844 -0.242553711
vn -0 0.979003906 -0.202758789
vn -0 0.947265625 -0.320800781
vn -0 0.933105469 -0.359375
vn -0 0.933105469 -0.359375
vn -0 0.947265625 -0.320800781
vn -0 0.900878906 -0.434082031
vn -0 0.900878906 -0.434082031
vn -0 0.900878906 -0.434082031
vn -0 0.900878906 -0.434082031
vn -0 0.999023438 -0.0408325195
vn -0 1 -0.0204162598
vn -0 1 -0.0204162598
vn -0 0.999023438 -0.0408325195
vn -0 0.996582031 -0.0815429688
vn -0 0.992675781 -0.122192383
vn -0 0.992675781 -0.122192383
vn -0 0.996582031 -0.0815429688
vn -0 0.959472656 -0.281982422
vn -0 0.947265625 -0.320800781
vn -0 0.947265625 -0.320800781
vn -0 0.959472656 -0.281982422
vn -0 0.947265625 -0.320800781
vn -0 0.933105469 -0.359375
vn -0 0.933105469 -0.359375
vn -0 0.947265625 -0.320800781
vn -0 0.986816406 -0.162597656
vn -0 0.992675781 -0.122192383
vn -0 0.992675781 -0.122192383
vn -0 0.986816406 -0.162597656
vn -0 0.933105469 -0.359375
vn -0 0.947265625 -0.320800781
vn -0 0.947265625 -0.320800781
vn -0 0.933105469 -0.359375
vn -0 0.959472656 -0.281982422
vn -0 0.970214844 -0.242553711
vn -0 0.970214844 -0.242553711
vn -0 0.959472656 -0.281982422
vn -0 0.996582031 -0.0815429688
vn -0 0.999023438 -0.0408325195
vn -0 0.999023438 -0.040802002
vn -0 0.996582031 -0.0815429688
vn -0 0.996582031 -0.0815429688
vn -0 0.992675781 -0.122192383
vn -0 0.992675781 -0.122192383
vn -0 0.996582031 -0.0815429688
vn -0 0.91796875 -0.396972656
vn -0 0.933105469 -0.359375
vn -0 0.933105469 -0.359375
vn -0 0.91796875 -0.396972656
vn -0 0.999023438 -0.0408325195
vn -0 1 -0.0204162598
vn -0 1 -0.0204162598
vn -0 0.999023438 -0.0408325195
vn -0 0.900878906 -0.434082031
vn -0 0.91796875 -0.396972656
vn -0 0.91796875 -0.396972656
vn -0 0.900878906 -0.434082031
vn -0 0.959472656 -0.281982422
vn -0 0.970214844 -0.242553711
vn -0 0.970214844 -0.242553711
vn -0 0.959472656 -0.281982422
vn -0 0.900878906 -0.434082031
vn -0 0.91796875 -0.396972656
vn -0 0.91796875 -0.396972656
vn -0 0.900878906 -0.434082031
vn -0 0.992675781 -0.122192383
vn -0 0.996582031 -0.0815429688
vn -0 0.996582031 -0.0815429688
vn -0 0.992675781 -0.122192383
vn -0 0.947265625 -0.320800781
vn -0 0.959472656 -0.281982422
vn -0 0.959472656 -0.281982422
vn -0 0.947265625 -0.320800781
vn -0 0.979003906 -0.202758789
vn -0 0.986816406 -0.162597656
vn -0 0.986816406 -0.162597656
vn -0 0.979003906 -0.202758789
vn -0 0.979003906 -0.202758789
vn -0 0.970214844 -0.242553711
vn -0 0.970214844 -0.242553711
vn -0 0.979003906 -0.202758789
vn -0 0.979003906 -0.202758789
vn -0 0.986816406 -0.162597656
vn -0 0.986816406 -0.162597656
vn -0 0.979003906 -0.202758789
vn -0 0.992675781 -0.122192383
vn -0 0.986816406 -0.162597656
vn -0 0.986816406 -0.162597656
vn -0 0.992675781 -0.122192383
vn -0 0.999023438 -0.0408325195
vn -0 0.996582031 -0.0815429688
vn -0 0.996582031 -0.0815429688
vn -0 0.999023438 -0.0408325195
vn -0 0.999023438 -0.0408325195
vn -0 1 -0.0204162598
vn -0 1 -0.0204162598
vn -0 0.999023438 -0.0408325195
vn -0 0.933105469 -0.359375
vn -0 0.91796875 -0.396972656
vn -0 0.91796875 -0.396972656
vn -0 0.933105469 -0.359375
vn -0 0.900878906 -0.434082031
vn -0 0.900878906 -0.434082031
vn -0 0.900878906 -0.434082031
vn -0 0.900878906 -0.434082031
vn -0 0.970214844 -0.242553711
vn -0 0.979003906 -0.202758789
vn -0 0.979003906 -0.202758789
vn -0 0.970214844 -0.242553711
g roadRampLongCurvedWall_0
f 3/3/3 2/2/2 1/1/1
f 6/6/6 5/5/5 4/4/4
f 7/7/7 4/4/4 5/5/5
f 8/8/8 7/7/7 5/5/5
f 9/9/9 8/8/8 5/5/5
f 10/10/10 9/9/9 5/5/5
f 11/11/11 10/10/10 5/5/5
f 12/12/12 11/11/11 5/5/5
f 13/13/13 12/12/12 5/5/5
f 14/14/14 13/13/13 5/5/5
f 15/15/15 14/14/14 5/5/5
f 16/16/16 15/15/15 5/5/5
f 17/17/17 16/16/16 5/5/5
f 18/18/18 17/17/17 5/5/5
f 19/19/19 18/18/18 5/5/5
f 20/20/20 19/19/19 5/5/5
f 21/21/21 20/20/20 5/5/5
f 22/22/22 21/21/21 5/5/5
f 23/23/23 22/22/22 5/5/5
f 24/24/24 23/23/23 5/5/5
f 25/25/25 24/24/24 5/5/5
f 26/26/26 25/25/25 5/5/5
f 27/27/27 26/26/26 5/5/5
f 28/28/28 27/27/27 5/5/5
f 29/29/29 28/28/28 5/5/5
f 32/32/32 31/31/31 30/30/30
f 33/33/33 31/31/31 32/32/32
f 33/33/33 32/32/32 34/34/34
f 35/35/35 34/34/34 32/32/32
f 36/36/36 34/34/34 35/35/35
f 34/34/34 37/37/37 33/33/33
f 38/38/38 33/33/33 37/37/37
f 39/39/39 38/38/38 37/37/37
g roadRampLongCurvedWall_1
f 42/42/42 41/41/41 40/40/40
f 44/44/44 40/40/40 43/43/43
f 40/40/40 44/44/44 45/45/45
f 46/46/46 45/45/45 44/44/44
f 45/45/45 46/46/46 47/47/47
f 48/48/48 47/47/47 46/46/46
f 47/47/47 48/48/48 49/49/49
f 50/50/50 49/49/49 48/48/48
f 49/49/49 50/50/50 51/51/51
f 52/52/52 51/51/51 50/50/50
f 51/51/51 52/52/52 53/53/53
f 54/54/54 53/53/53 52/52/52
f 53/53/53 54/54/54 55/55/55
f 56/56/56 55/55/55 54/54/54
f 55/55/55 56/56/56 57/57/57
f 58/58/58 57/57/57 56/56/56
f 57/57/57 58/58/58 59/59/59
f 60/60/60 59/59/59 58/58/58
f 59/59/59 60/60/60 61/61/61
f 62/62/62 61/61/61 60/60/60
f 61/61/61 62/62/62 63/63/63
f 64/64/64 63/63/63 62/62/62
f 63/63/63 64/64/64 65/65/65
f 66/66/66 65/65/65 64/64/64
f 65/65/65 66/66/66 67/67/67
f 68/68/68 67/67/67 66/66/66
f 67/67/67 68/68/68 69/69/69
f 70/70/70 69/69/69 68/68/68
f 69/69/69 70/70/70 71/71/71
f 72/72/72 71/71/71 70/70/70
f 71/71/71 72/72/72 73/73/73
f 74/74/74 73/73/73 72/72/72
f 73/73/73 74/74/74 75/75/75
f 76/76/76 75/75/75 74/74/74
f 75/75/75 76/76/76 77/77/77
f 78/78/78 77/77/77 76/76/76
f 77/77/77 78/78/78 79/79/79
f 80/80/80 79/79/79 78/78/78
f 79/79/79 80/80/80 81/81/81
f 82/82/82 81/81/81 80/80/80
f 81/81/81 82/82/82 83/83/83
f 84/84/84 83/83/83 82/82/82
f 83/83/83 84/84/84 85/85/85
f 86/86/86 85/85/85 84/84/84
f 85/85/85 86/86/86 87/87/87
f 88/88/88 87/87/87 86/86/86
f 91/91/91 90/90/90 89/89/89
f 92/92/92 89/89/89 90/90/90
f 95/95/95 94/94/94 93/93/93
f 96/96/96 93/93/93 94/94/94
f 93/93/93 96/96/96 97/97/97
f 98/98/98 97/97/97 96/96/96
f 97/97/97 98/98/98 99/99/99
f 100/100/100 99/99/99 98/98/98
f 99/99/99 100/100/100 101/101/101
f 102/102/102 101/101/101 100/100/100
f 101/101/101 102/102/102 103/103/103
f 104/104/104 103/103/103 102/102/102
f 103/103/103 104/104/104 105/105/105
f 106/106/106 105/105/105 104/104/104
f 105/105/105 106/106/106 107/107/107
f 108/108/108 107/107/107 106/106/106
f 107/107/107 108/108/108 109/109/109
f 110/110/110 109/109/109 108/108/108
f 109/109/109 110/110/110 111/111/111
f 112/112/112 111/111/111 110/110/110
f 111/111/111 112/112/112 113/113/113
f 114/114/114 113/113/113 112/112/112
f 113/113/113 114/114/114 115/115/115
f 116/116/116 115/115/115 114/114/114
f 115/115/115 116/116/116 117/117/117
f 116/116/116 118/118/118 117/117/117
f 119/119/119 117/117/117 118/118/118
f 117/117/117 119/119/119 120/120/120
f 121/121/121 120/120/120 119/119/119
f 120/120/120 121/121/121 122/122/122
f 123/123/123 122/122/122 121/121/121
f 122/122/122 123/123/123 124/124/124
f 125/125/125 124/124/124 123/123/123
f 124/124/124 125/125/125 126/126/126
f 127/127/127 126/126/126 125/125/125
f 126/126/126 127/127/127 128/128/128
f 129/129/129 128/128/128 127/127/127
f 128/128/128 129/129/129 130/130/130
f 131/131/131 130/130/130 129/129/129
f 130/130/130 131/131/131 132/132/132
f 133/133/133 132/132/132 131/131/131
f 132/132/132 133/133/133 134/134/134
f 135/135/135 134/134/134 133/133/133
f 134/134/134 135/135/135 136/136/136
f 137/137/137 136/136/136 135/135/135
f 136/136/136 137/137/137 138/138/138
f 139/139/139 138/138/138 137/137/137
f 138/138/138 139/139/139 140/140/140
f 141/141/141 140/140/140 139/139/139
f 144/144/144 143/143/143 142/142/142
f 142/142/142 143/143/143 145/145/145
f 145/145/145 143/143/143 146/146/146
f 146/146/146 143/143/143 147/147/147
f 147/147/147 143/143/143 148/148/148
f 148/148/148 143/143/143 149/149/149
f 149/149/149 143/143/143 150/150/150
f 150/150/150 143/143/143 151/151/151
f 151/151/151 143/143/143 152/152/152
f 152/152/152 143/143/143 153/153/153
f 153/153/153 143/143/143 154/154/154
f 154/154/154 143/143/143 155/155/155
f 155/155/155 143/143/143 156/156/156
f 156/156/156 143/143/143 157/157/157
f 157/157/157 143/143/143 158/158/158
f 158/158/158 143/143/143 159/159/159
f 159/159/159 143/143/143 160/160/160
f 160/160/160 143/143/143 161/161/161
f 161/161/161 143/143/143 162/162/162
f 162/162/162 143/143/143 163/163/163
f 163/163/163 143/143/143 164/164/164
f 164/164/164 143/143/143 165/165/165
f 166/166/166 165/165/165 143/143/143
f 169/169/169 168/168/168 167/167/167
f 170/170/170 167/167/167 168/168/168
f 171/171/171 170/170/170 168/168/168
f 172/172/172 170/170/170 171/171/171
f 173/173/173 172/172/172 171/171/171
f 174/174/174 172/172/172 173/173/173
f 175/175/175 174/174/174 173/173/173
f 176/176/176 174/174/174 175/175/175
f 177/177/177 176/176/176 175/175/175
f 178/178/178 176/176/176 177/177/177
f 179/179/179 178/178/178 177/177/177
f 180/180/180 178/178/178 179/179/179
f 181/181/181 180/180/180 179/179/179
f 182/182/182 180/180/180 181/181/181
f 183/183/183 182/182/182 181/181/181
f 184/184/184 182/182/182 183/183/183
f 185/185/185 184/184/184 183/183/183
f 186/186/186 184/184/184 185/185/185
f 187/187/187 186/186/186 185/185/185
f 188/188/188 186/186/186 187/187/187
f 189/189/189 188/188/188 187/187/187
f 190/190/190 188/188/188 189/189/189
f 191/191/191 190/190/190 189/189/189
f 192/192/192 190/190/190 191/191/191
f 193/193/193 192/192/192 191/191/191
f 194/194/194 192/192/192 193/193/193
f 195/195/195 194/194/194 193/193/193
f 196/196/196 194/194/194 195/195/195
f 197/197/197 196/196/196 195/195/195
f 198/198/198 196/196/196 197/197/197
f 199/199/199 198/198/198 197/197/197
f 200/200/200 198/198/198 199/199/199
f 201/201/201 200/200/200 199/199/199
f 202/202/202 200/200/200 201/201/201
f 203/203/203 202/202/202 201/201/201
f 204/204/204 202/202/202 203/203/203
f 205/205/205 204/204/204 203/203/203
f 206/206/206 204/204/204 205/205/205
f 207/207/207 206/206/206 205/205/205
f 208/208/208 206/206/206 207/207/207
f 209/209/209 208/208/208 207/207/207
f 210/210/210 208/208/208 209/209/209
f 211/211/211 210/210/210 209/209/209
f 212/212/212 210/210/210 211/211/211
f 213/213/213 212/212/212 211/211/211
f 214/214/214 212/212/212 213/213/213
f 217/217/217 216/216/216 215/215/215
f 216/216/216 218/218/218 215/215/215
f 215/215/215 218/218/218 219/219/219
f 218/218/218 220/220/220 219/219/219
f 219/219/219 220/220/220 221/221/221
f 220/220/220 222/222/222 221/221/221
f 221/221/221 222/222/222 223/223/223
f 222/222/222 224/224/224 223/223/223
f 223/223/223 224/224/224 225/225/225
f 224/224/224 226/226/226 225/225/225
f 225/225/225 226/226/226 227/227/227
f 226/226/226 228/228/228 227/227/227
f 227/227/227 228/228/228 229/229/229
f 228/228/228 230/230/230 229/229/229
f 229/229/229 230/230/230 231/231/231
f 230/230/230 232/232/232 231/231/231
f 231/231/231 232/232/232 233/233/233
f 232/232/232 234/234/234 233/233/233
f 233/233/233 234/234/234 235/235/235
f 234/234/234 236/236/236 235/235/235
f 236/236/236 237/237/237 235/235/235
f 235/235/235 237/237/237 238/238/238
f 238/238/238 237/237/237 239/239/239
f 237/237/237 240/240/240 239/239/239
f 239/239/239 240/240/240 241/241/241
f 240/240/240 242/242/242 241/241/241
f 241/241/241 242/242/242 243/243/243
f 242/242/242 244/244/244 243/243/243
f 243/243/243 244/244/244 245/245/245
f 244/244/244 246/246/246 245/245/245
f 245/245/245 246/246/246 247/247/247
f 246/246/246 248/248/248 247/247/247
f 247/247/247 248/248/248 249/249/249
f 248/248/248 250/250/250 249/249/249
f 249/249/249 250/250/250 251/251/251
f 250/250/250 252/252/252 251/251/251
f 251/251/251 252/252/252 253/253/253
f 252/252/252 254/254/254 253/253/253
f 253/253/253 254/254/254 255/255/255
f 254/254/254 256/256/256 255/255/255
f 255/255/255 256/256/256 257/257/257
f 256/256/256 258/258/258 257/257/257
f 257/257/257 258/258/258 259/259/259
f 258/258/258 260/260/260 259/259/259
f 259/259/259 260/260/260 261/261/261
f 262/262/262 261/261/261 260/260/260
f 265/265/265 264/264/264 263/263/263
f 266/266/266 263/263/263 264/264/264
f 269/269/269 268/268/268 267/267/267
f 270/270/270 267/267/267 268/268/268
f 267/267/267 270/270/270 271/271/271
f 272/272/272 271/271/271 270/270/270
f 275/275/275 274/274/274 273/273/273
f 276/276/276 273/273/273 274/274/274
f 279/279/279 278/278/278 277/277/277
f 280/280/280 277/277/277 278/278/278
f 283/283/283 282/282/282 281/281/281
f 284/284/284 281/281/281 282/282/282
f 287/287/287 286/286/286 285/285/285
f 288/288/288 285/285/285 286/286/286
f 291/291/291 290/290/290 289/289/289
f 292/292/292 289/289/289 290/290/290
f 295/295/295 294/294/294 293/293/293
f 296/296/296 293/293/293 294/294/294
f 299/299/299 298/298/298 297/297/297
f 300/300/300 297/297/297 298/298/298
f 303/303/303 302/302/302 301/301/301
f 304/304/304 301/301/301 302/302/302
f 307/307/307 306/306/306 305/305/305
f 308/308/308 305/305/305 306/306/306
f 311/311/311 310/310/310 309/309/309
f 312/312/312 309/309/309 310/310/310
f 315/315/315 314/314/314 313/313/313
f 314/314/314 316/316/316 313/313/313
f 313/313/313 316/316/316 317/317/317
f 316/316/316 318/318/318 317/317/317
f 319/319/319 317/317/317 318/318/318
f 322/322/322 321/321/321 320/320/320
f 320/320/320 321/321/321 323/323/323
f 321/321/321 324/324/324 323/323/323
f 323/323/323 324/324/324 325/325/325
f 324/324/324 326/326/326 325/325/325
f 329/329/329 328/328/328 327/327/327
f 330/330/330 328/328/328 329/329/329
f 331/331/331 330/330/330 329/329/329
f 332/332/332 330/330/330 331/331/331
f 333/333/333 332/332/332 331/331/331
f 334/334/334 332/332/332 333/333/333
f 335/335/335 334/334/334 333/333/333
f 336/336/336 334/334/334 335/335/335
f 337/337/337 336/336/336 335/335/335
f 338/338/338 336/336/336 337/337/337
f 339/339/339 338/338/338 337/337/337
f 340/340/340 338/338/338 339/339/339
f 341/341/341 340/340/340 339/339/339
f 342/342/342 340/340/340 341/341/341
f 343/343/343 342/342/342 341/341/341
f 344/344/344 342/342/342 343/343/343
f 345/345/345 344/344/344 343/343/343
f 346/346/346 344/344/344 345/345/345
f 347/347/347 346/346/346 345/345/345
f 348/348/348 346/346/346 347/347/347
f 349/349/349 348/348/348 347/347/347
f 350/350/350 348/348/348 349/349/349
f 351/351/351 350/350/350 349/349/349
f 352/352/352 350/350/350 351/351/351
f 353/353/353 352/352/352 351/351/351
f 354/354/354 352/352/352 353/353/353
f 355/355/355 354/354/354 353/353/353
f 356/356/356 354/354/354 355/355/355
f 357/357/357 356/356/356 355/355/355
f 358/358/358 356/356/356 357/357/357
f 359/359/359 358/358/358 357/357/357
f 360/360/360 358/358/358 359/359/359
f 361/361/361 360/360/360 359/359/359
f 362/362/362 360/360/360 361/361/361
f 363/363/363 362/362/362 361/361/361
f 364/364/364 362/362/362 363/363/363
f 367/367/367 366/366/366 365/365/365
f 368/368/368 365/365/365 366/366/366
f 371/371/371 370/370/370 369/369/369
f 372/372/372 369/369/369 370/370/370
f 375/375/375 374/374/374 373/373/373
f 376/376/376 373/373/373 374/374/374
f 379/379/379 378/378/378 377/377/377
f 380/380/380 377/377/377 378/378/378
f 383/383/383 382/382/382 381/381/381
f 384/384/384 381/381/381 382/382/382
f 387/387/387 386/386/386 385/385/385
f 388/388/388 385/385/385 386/386/386
f 391/391/391 390/390/390 389/389/389
f 392/392/392 389/389/389 390/390/390
f 395/395/395 394/394/394 393/393/393
f 396/396/396 393/393/393 394/394/394
f 399/399/399 398/398/398 397/397/397
f 400/400/400 397/397/397 398/398/398
f 403/403/403 402/402/402 401/401/401
f 404/404/404 401/401/401 402/402/402
f 407/407/407 406/406/406 405/405/405
f 408/408/408 405/405/405 406/406/406
f 411/411/411 410/410/410 409/409/409
f 412/412/412 409/409/409 410/410/410
f 415/415/415 414/414/414 413/413/413
f 416/416/416 413/413/413 414/414/414
f 419/419/419 418/418/418 417/417/417
f 420/420/420 417/417/417 418/418/418
f 423/423/423 422/422/422 421/421/421
f 424/424/424 421/421/421 422/422/422
f 427/427/427 426/426/426 425/425/425
f 428/428/428 425/425/425 426/426/426
f 431/431/431 430/430/430 429/429/429
f 432/432/432 429/429/429 430/430/430
f 435/435/435 434/434/434 433/433/433
f 436/436/436 433/433/433 434/434/434
f 437/437/437 436/436/436 434/434/434
f 438/438/438 436/436/436 437/437/437
f 439/439/439 438/438/438 437/437/437
f 440/440/440 438/438/438 439/439/439
f 441/441/441 440/440/440 439/439/439
f 442/442/442 440/440/440 441/441/441
f 443/443/443 442/442/442 441/441/441
f 444/444/444 442/442/442 443/443/443
f 445/445/445 444/444/444 443/443/443
f 446/446/446 444/444/444 445/445/445
f 447/447/447 446/446/446 445/445/445
f 448/448/448 446/446/446 447/447/447
f 449/449/449 448/448/448 447/447/447
f 450/450/450 448/448/448 449/449/449
f 451/451/451 450/450/450 449/449/449
f 452/452/452 450/450/450 451/451/451
f 453/453/453 452/452/452 451/451/451
f 454/454/454 452/452/452 453/453/453
f 455/455/455 454/454/454 453/453/453
f 456/456/456 454/454/454 455/455/455
f 457/457/457 456/456/456 455/455/455
f 458/458/458 456/456/456 457/457/457
f 459/459/459 458/458/458 457/457/457
f 460/460/460 458/458/458 459/459/459
f 461/461/461 458/458/458 460/460/460
f 462/462/462 461/461/461 460/460/460
f 463/463/463 461/461/461 462/462/462
f 464/464/464 463/463/463 462/462/462
f 465/465/465 463/463/463 464/464/464
f 466/466/466 465/465/465 464/464/464
f 467/467/467 465/465/465 466/466/466
f 468/468/468 467/467/467 466/466/466
f 469/469/469 467/467/467 468/468/468
f 470/470/470 469/469/469 468/468/468
f 471/471/471 469/469/469 470/470/470
f 472/472/472 471/471/471 470/470/470
f 473/473/473 471/471/471 472/472/472
f 474/474/474 473/473/473 472/472/472
f 475/475/475 473/473/473 474/474/474
f 476/476/476 475/475/475 474/474/474
f 477/477/477 475/475/475 476/476/476
f 478/478/478 477/477/477 476/476/476
f 479/479/479 477/477/477 478/478/478
f 480/480/480 479/479/479 478/478/478
f 481/481/481 479/479/479 480/480/480
f 484/484/484 483/483/483 482/482/482
f 485/485/485 482/482/482 483/483/483
f 488/488/488 487/487/487 486/486/486
f 489/489/489 486/486/486 487/487/487
f 492/492/492 491/491/491 490/490/490
f 493/493/493 490/490/490 491/491/491
f 496/496/496 495/495/495 494/494/494
f 497/497/497 494/494/494 495/495/495
f 500/500/500 499/499/499 498/498/498
f 501/501/501 498/498/498 499/499/499
f 504/504/504 503/503/503 502/502/502
f 505/505/505 502/502/502 503/503/503
f 508/508/508 507/507/507 506/506/506
f 509/509/509 506/506/506 507/507/507
f 512/512/512 511/511/511 510/510/510
f 513/513/513 510/510/510 511/511/511
f 516/516/516 515/515/515 514/514/514
f 517/517/517 514/514/514 515/515/515
f 514/514/514 517/517/517 518/518/518
f 519/519/519 518/518/518 517/517/517
f 518/518/518 519/519/519 520/520/520
f 521/521/521 520/520/520 519/519/519
f 524/524/524 523/523/523 522/522/522
f 525/525/525 522/522/522 523/523/523
f 528/528/528 527/527/527 526/526/526
f 529/529/529 526/526/526 527/527/527
f 532/532/532 531/531/531 530/530/530
f 533/533/533 530/530/530 531/531/531
f 536/536/536 535/535/535 534/534/534
f 537/537/537 534/534/534 535/535/535
f 540/540/540 539/539/539 538/538/538
f 541/541/541 538/538/538 539/539/539
g roadRampLongCurvedWall_2
f 544/544/544 543/543/543 542/542/542
f 545/545/545 542/542/542 543/543/543
f 548/548/548 547/547/547 546/546/546
f 549/549/549 546/546/546 547/547/547
f 552/552/552 551/551/551 550/550/550
f 553/553/553 550/550/550 551/551/551
f 556/556/556 555/555/555 554/554/554
f 557/557/557 554/554/554 555/555/555
f 560/560/560 559/559/559 558/558/558
f 561/561/561 558/558/558 559/559/559
f 564/564/564 563/563/563 562/562/562
f 565/565/565 562/562/562 563/563/563
f 568/568/568 567/567/567 566/566/566
f 569/569/569 566/566/566 567/567/567
f 572/572/572 571/571/571 570/570/570
f 573/573/573 570/570/570 571/571/571
f 576/576/576 575/575/575 574/574/574
f 577/577/577 574/574/574 575/575/575
f 580/580/580 579/579/579 578/578/578
f 581/581/581 578/578/578 579/579/579
f 584/584/584 583/583/583 582/582/582
f 585/585/585 582/582/582 583/583/583
f 588/588/588 587/587/587 586/586/586
f 589/589/589 586/586/586 587/587/587
f 592/592/592 591/591/591 590/590/590
f 593/593/593 590/590/590 591/591/591
f 596/596/596 595/595/595 594/594/594
f 597/597/597 594/594/594 595/595/595
f 600/600/600 599/599/599 598/598/598
f 601/601/601 598/598/598 599/599/599
f 604/604/604 603/603/603 602/602/602
f 605/605/605 602/602/602 603/603/603
f 608/608/608 607/607/607 606/606/606
f 609/609/609 606/606/606 607/607/607
f 612/612/612 611/611/611 610/610/610
f 613/613/613 610/610/610 611/611/611
f 616/616/616 615/615/615 614/614/614
f 617/617/617 614/614/614 615/615/615
f 620/620/620 619/619/619 618/618/618
f 621/621/621 618/618/618 619/619/619
f 624/624/624 623/623/623 622/622/622
f 625/625/625 622/622/622 623/623/623
f 628/628/628 627/627/627 626/626/626
f 629/629/629 626/626/626 627/627/627
f 632/632/632 631/631/631 630/630/630
f 633/633/633 630/630/630 631/631/631
