g Spaceship
v -3.77999997 0 -1.4609344
v -1.06871688 0.0226112939 2.45530438
v -1.05840027 0 -2.79145622
v -3.77999997 0 -3.77999997
v 3.77999997 0.671164215 -3.77999997
v 3.77999997 0 -3.77999997
v 3.77999997 0 -1.4609344
v 3.77999997 0.294795156 -1.9854387
v 3.77999997 0.57617259 -2.63236713
v -3.77999997 0.294795156 -1.9854387
v -3.77999997 0 -1.4609344
v -3.77999997 0 -3.77999997
v -3.77999997 0.671164215 -3.77999997
v -3.77999997 0.57617259 -2.63236713
v -0 0 -2.51068664
v 0.00349173741 -0.0428504571 3.76229525
v 1.06515253 0.014721889 2.45211887
v 1.05839992 0 -2.79145622
v 3.77999997 0.294795156 -1.9854387
v 1.06338429 0.660315633 0.900716126
v 1.05897903 0.929440379 0.258040577
v 3.77999997 0.57617259 -2.63236713
v 1.04970062 2.23540282 -2.79933858
v 3.77999997 0.671164215 -3.77999997
v -0 0 -2.51068664
v -0.00373520958 2.56062102 -2.49390507
v -1.04602003 2.22723675 -2.80262089
v -1.05840027 0 -2.79145622
v -0.00373520958 2.56062102 -2.49390507
v -0.000542655063 1.28798509 0.564643025
v -1.05955863 0.930716991 0.25856033
v -1.04602003 2.22723675 -2.80262089
v -3.77999997 0 -1.4609344
v -3.77999997 0.294795156 -1.9854387
v -1.06483233 0.663545072 0.902000248
v -1.06871688 0.0226112939 2.45530438
v 0.0026327963 0.674807549 2.03649616
v 1.06338429 0.660315633 0.900716126
v 1.06515253 0.014721889 2.45211887
v 0.00349173741 -0.0428504571 3.76229525
v -0 0 -2.51068664
v -1.05840027 0 -2.79145622
v -1.06871688 0.0226112939 2.45530438
v 0.00349173741 -0.0428504571 3.76229525
v -1.05955863 0.930716991 0.25856033
v -1.06483233 0.663545072 0.902000248
v -3.77999997 0.294795156 -1.9854387
v -3.77999997 0.57617259 -2.63236713
v -1.04602003 2.22723675 -2.80262089
v -3.77999997 0.671164215 -3.77999997
v -1.06871688 0.0226112939 2.45530438
v -1.06483233 0.663545072 0.902000248
v 0.0026327963 0.674807549 2.03649616
v 0.00349173741 -0.0428504571 3.76229525
v -0 0 -2.51068664
v 1.05839992 0 -2.79145622
v 1.04970062 2.23540282 -2.79933858
v -0.00373520958 2.56062102 -2.49390507
v 1.05839992 0 -2.79145622
v 1.06515253 0.014721889 2.45211887
v 3.77999997 0 -1.4609344
v 3.77999997 0 -3.77999997
v -0.00373520958 2.56062102 -2.49390507
v 1.04970062 2.23540282 -2.79933858
v 1.05897903 0.929440379 0.258040577
v -0.000542655063 1.28798509 0.564643025
v 3.77999997 0 -1.4609344
v 1.06515253 0.014721889 2.45211887
v 1.06338429 0.660315633 0.900716126
v 3.77999997 0.294795156 -1.9854387
v 1.33255279 1.32697308 -2.8835156
v 1.46972024 1.21455264 -2.7389102
v 3.48375416 0.586595178 -3.48985553
v 3.50584698 0.649359405 -3.6879406
v 3.50584698 0.649359405 -3.6879406
v 3.48375416 0.586595178 -3.48985553
v 3.48375416 0.373196721 -3.48985577
v 3.50584698 0.2891967 -3.6879406
v 3.50584698 0.2891967 -3.6879406
v 3.48375416 0.373196721 -3.48985577
v 1.46972024 0.373196721 -2.73891044
v 1.33255267 0.2891967 -2.8835156
v 1.33255267 0.2891967 -2.8835156
v 1.46972024 0.373196721 -2.73891044
v 1.46972024 1.21455264 -2.7389102
v 1.33255279 1.32697308 -2.8835156
v -1.33255291 0.2891967 -2.8835156
v -1.46972048 0.373196721 -2.73891044
v -3.48375416 0.373196721 -3.48985577
v -3.50584698 0.2891967 -3.6879406
v -3.50584698 0.2891967 -3.6879406
v -3.48375416 0.373196721 -3.48985577
v -3.48375416 0.586595178 -3.48985553
v -3.50584698 0.649359405 -3.6879406
v -3.50584698 0.649359405 -3.6879406
v -3.48375416 0.586595178 -3.48985553
v -1.46972048 1.2145524 -2.7389102
v -1.33255279 1.32697296 -2.8835156
v -1.33255279 1.32697296 -2.8835156
v -1.46972048 1.2145524 -2.7389102
v -1.46972048 0.373196721 -2.73891044
v -1.33255291 0.2891967 -2.8835156
v -3.77999997 0.671164215 -3.77999997
v -1.33255279 1.32697296 -2.8835156
v -1.04602003 2.22723675 -2.80262089
v -3.50584698 0.649359405 -3.6879406
v -1.33255291 0.2891967 -2.8835156
v -3.77999997 0 -3.77999997
v -1.05840027 0 -2.79145622
v -3.50584698 0.2891967 -3.6879406
v 3.77999997 0 -3.77999997
v 1.33255267 0.2891967 -2.8835156
v 1.05839992 0 -2.79145622
v 3.50584698 0.2891967 -3.6879406
v 1.33255279 1.32697308 -2.8835156
v 3.77999997 0.671164215 -3.77999997
v 1.04970062 2.23540282 -2.79933858
v 3.50584698 0.649359405 -3.6879406
v -0.000542655063 1.28798509 0.564643025
v 0.0026327963 0.674807549 2.03649616
v -1.06483233 0.663545072 0.902000248
v -1.05955863 0.930716991 0.25856033
v 1.46972024 0.373196721 -2.73891044
v 3.48375416 0.373196721 -3.48985577
v 3.48375416 0.586595178 -3.48985553
v 1.46972024 1.21455264 -2.7389102
v -1.46972048 0.373196721 -2.73891044
v -1.46972048 1.2145524 -2.7389102
v -3.48375416 0.586595178 -3.48985553
v -3.48375416 0.373196721 -3.48985577
v -0.000542655063 1.28798509 0.564643025
v 1.05897903 0.929440379 0.258040577
v 1.06338429 0.660315633 0.900716126
v 0.0026327963 0.674807549 2.03649616
vt 1 0
vt 0.639999986 0
vt 0.639999986 1
vt 1 1
vt 1 0
vt 0 0
vt 0.187609971 0.187609971
vt 0.419009954 0.419009954
vt 1 1
vt 0.812390029 1
vt 1 1
vt 0 0
vt 0 1
vt 0.580990016 1
vt 0.5 1
vt 0.5 0
vt 0.360000014 0
vt 0.360000014 1
vt 1 0.187609985
vt 0.639999986 0.187609985
vt 0.639999986 0.419009984
vt 1 0.419009984
vt 0.639999986 1
vt 1 1
vt 0.5 0
vt 0.5 1
vt 0.639999986 1
vt 0.639999986 0
vt 0.5 0.419009984
vt 0.360000014 0.419009984
vt 0.360000014 1
vt 0.5 1
vt 0 0.187609971
vt 0.360000014 0.187609985
vt 0.360000014 0
vt 0 0
vt 0.5 0.187609985
vt 0.639999986 0.187609985
vt 0.639999986 0
vt 0.5 0
vt 0.639999986 1
vt 0.639999986 0
vt 0.5 0
vt 0.5 1
vt 0.360000014 0.419009984
vt 0.360000014 0.187609985
vt 0 0.187609971
vt 0 0.419009984
vt 0.360000014 1
vt 0 1
vt 0.360000014 0
vt 0.360000014 0.187609985
vt 0.5 0.187609985
vt 0.5 0
vt 0.360000014 0
vt 0.360000014 1
vt 0.5 1
vt 0.5 0
vt 0.360000014 1
vt 0.360000014 0
vt 0 0
vt 0 1
vt 0.639999986 1
vt 0.639999986 0.419009984
vt 0.5 0.419009984
vt 0.5 1
vt 0.639999986 0
vt 0.639999986 0.187609985
vt 1 0.187609985
vt 1 0
vt 0.360000014 1
vt 0.360000014 1
vt 0 1
vt 0 1
vt 0 1
vt 0 1
vt 0 0
vt 0 0
vt 0 0
vt 0 0
vt 0.360000014 0
vt 0.360000014 0
vt 0.360000014 0
vt 0.360000014 0
vt 0.360000014 1
vt 0.360000014 1
vt 0.639999986 0
vt 0.639999986 0
vt 1 0
vt 1 0
vt 1 0
vt 1 0
vt 1 1
vt 1 1
vt 1 1
vt 1 1
vt 0.639999986 1
vt 0.639999986 1
vt 0.639999986 1
vt 0.639999986 1
vt 0.639999986 0
vt 0.639999986 0
vt 1 1
vt 0.639999986 1
vt 0.639999986 1
vt 1 1
vt 0.639999986 0
vt 1 0
vt 0.639999986 0
vt 1 0
vt 0 0
vt 0.360000014 0
vt 0.360000014 0
vt 0 0
vt 0.360000014 1
vt 0 1
vt 0.360000014 1
vt 0 1
vt 0.5 0.187609985
vt 0.360000014 0.187609985
vt 0.360000014 0.419009984
vt 0.5 0.419009984
vt 0 0
vt 0 1
vt 0.360000014 1
vt 0.360000014 0
vt 0.639999986 0
vt 0.639999986 1
vt 1 1
vt 1 0
vt 0.639999986 0.419009984
vt 0.639999986 0.187609985
vt 0.5 0.187609985
vt 0.5 0.419009984
vn 0.00152899767 -0.999994516 0.00296145608
vn 0.00152899791 -0.999994516 0.00296145584
vn 0.00152899791 -0.999994516 0.00296145584
vn 0.00152899791 -0.999994516 0.00296145631
vn 1 0 0
vn 1 0 0
vn 1 0 0
vn 1 0 0
vn 1 0 0
vn -1 0 0
vn -1 0 0
vn -1 0 0
vn -1 0 0
vn -1 0 0
vn 0.0252237506 -0.99967885 -0.0024482219
vn 0.0252237488 -0.99967885 -0.0024482219
vn 0.0252237488 -0.99967885 -0.0024482219
vn 0.0252237488 -0.99967885 -0.0024482219
vn 0.481633902 0.804257154 0.348136723
vn 0.472417593 0.807298779 0.353680938
vn 0.446301937 0.829911232 0.334756792
vn 0.479968935 0.827373326 0.29169023
vn 0.440912724 0.842478514 0.309557617
vn 0.482141346 0.832925618 0.271614939
vn 0.331687421 0.000507905381 -0.943389177
vn 0.331687391 0.000507905323 -0.943389177
vn 0.331687391 0.000507905323 -0.943389177
vn 0.33168748 0.000507905381 -0.943389177
vn -0.394393772 0.849061072 0.351495117
vn -0.447202355 0.830113471 0.333049178
vn -0.441701621 0.842796981 0.307559431
vn -0.394393772 0.849061072 0.351495028
vn -0.481285661 0.805159807 0.346528232
vn -0.470502675 0.809041679 0.352248013
vn -0.409903228 0.84050703 0.354298353
vn -0.501395524 0.789260089 0.354501307
vn 0.390007526 0.850297809 0.353394508
vn 0.472417593 0.807298779 0.353680938
vn 0.41625008 0.837233961 0.354647756
vn 0.390007496 0.850297809 0.353394568
vn -0.0293361787 -0.999568045 -0.00176210364
vn -0.0293361787 -0.999568045 -0.00176210352
vn -0.0293361768 -0.999568045 -0.00176210352
vn -0.0293361787 -0.999568045 -0.00176210376
vn -0.447202355 0.830113471 0.333049178
vn -0.470502675 0.809041679 0.352248013
vn -0.481285661 0.805159807 0.346528232
vn -0.478292793 0.828971744 0.289899856
vn -0.441701621 0.842796981 0.307559431
vn -0.479984194 0.834800065 0.269674003
vn -0.409903228 0.84050703 0.354298353
vn -0.470502675 0.809041679 0.352248013
vn -0.381710947 0.854017913 0.353482842
vn -0.381710947 0.854017913 0.353482842
vn -0.32876721 0.000899989798 -0.944410563
vn -0.32876721 0.000899989682 -0.944410563
vn -0.32876721 0.000899989624 -0.944410563
vn -0.32876721 0.000899989798 -0.944410563
vn -0.000995684415 -0.999997616 0.00192850269
vn -0.000995684532 -0.999997616 0.00192850269
vn -0.000995684415 -0.999997616 0.00192850234
vn -0.000995684182 -0.999997616 0.001928502
vn 0.440912724 0.842478514 0.309557617
vn 0.446301937 0.829911232 0.334756792
vn 0.390007645 0.850297809 0.353394598
vn 0.390007645 0.850297809 0.353394598
vn 0.41625008 0.837233961 0.354647756
vn 0.472417593 0.807298779 0.353680938
vn 0.481633902 0.804257154 0.348136723
vn 0.501599133 0.788176417 0.356617898
vn -0.377834409 -0.869660079 -0.317698687
vn -0.377834409 -0.869660139 -0.317698687
vn -0.377834409 -0.869660079 -0.317698687
vn -0.377834409 -0.869660139 -0.317698687
vn -0.993837655 0 -0.110845819
vn -0.993837655 0 -0.110845834
vn -0.993837655 0 -0.110845819
vn -0.993837655 0 -0.110845819
vn -0.134159073 0.906852603 -0.399524122
vn -0.134159073 0.906852603 -0.399524122
vn -0.134159073 0.906852603 -0.399524122
vn -0.134159088 0.906852722 -0.399524152
vn 0.725519359 0 -0.688201725
vn 0.725519359 0 -0.688201785
vn 0.725519359 0 -0.688201785
vn 0.725519359 0 -0.688201785
vn 0.134159133 0.906852603 -0.399524212
vn 0.134159118 0.906852603 -0.399524122
vn 0.134159103 0.906852603 -0.399524212
vn 0.134159133 0.906852603 -0.399524212
vn 0.993837535 5.54601115E-07 -0.110846639
vn 0.993837535 5.54601172E-07 -0.110846654
vn 0.993837535 5.54601172E-07 -0.110846639
vn 0.993837535 5.54601229E-07 -0.110846654
vn 0.377834439 -0.86965996 -0.317698836
vn 0.377834439 -0.86965996 -0.317698836
vn 0.377834439 -0.86965996 -0.317698836
vn 0.377834439 -0.86965996 -0.317698836
vn -0.7255193 0 -0.688201785
vn -0.7255193 0 -0.688201785
vn -0.7255193 0 -0.688201785
vn -0.7255193 0 -0.688201785
vn 0.318328589 1.01526972E-07 -0.947980464
vn 0.322088152 -0.0157859288 -0.946578085
vn 0.322088152 -0.0157859288 -0.946578085
vn 0.318328589 1.01526972E-07 -0.947980464
vn 0.318329036 0 -0.947980225
vn 0.318329066 0 -0.947980225
vn 0.318329066 0 -0.947980225
vn 0.318329036 0 -0.947980225
vn -0.318328768 0 -0.947980344
vn -0.318329006 1.44201991E-07 -0.947980225
vn -0.318329036 1.44201977E-07 -0.947980225
vn -0.318328768 0 -0.947980344
vn -0.320963711 -0.0110266516 -0.947027326
vn -0.320963711 -0.0110266516 -0.947027326
vn -0.32096374 -0.0110266525 -0.947027326
vn -0.320963711 -0.0110266516 -0.947027326
vn -0.387299627 0.851316571 0.353919506
vn -0.387299597 0.851316571 0.353919506
vn -0.387299597 0.851316571 0.353919476
vn -0.387299627 0.851316571 0.353919536
vn -0.318329036 0 -0.947980225
vn -0.318329036 0 -0.947980225
vn -0.318329036 0 -0.947980225
vn -0.318329036 0 -0.947980225
vn 0.318329185 0 -0.947980225
vn 0.318329185 0 -0.947980225
vn 0.318329215 0 -0.947980225
vn 0.318329185 0 -0.947980225
vn 0.390007585 0.850297749 0.353394687
vn 0.390007615 0.850297749 0.353394628
vn 0.390007585 0.850297749 0.353394628
vn 0.390007526 0.850297809 0.353394628
g Spaceship_0
f 3/3/3 2/2/2 1/1/1
f 4/4/4 3/3/3 1/1/1
f 7/7/7 6/6/6 5/5/5
f 5/5/5 8/8/8 7/7/7
f 5/5/5 9/9/9 8/8/8
f 12/12/12 11/11/11 10/10/10
f 10/10/10 13/13/13 12/12/12
f 10/10/10 14/14/14 13/13/13
f 17/17/17 16/16/16 15/15/15
f 18/18/18 17/17/17 15/15/15
f 21/21/21 20/20/20 19/19/19
f 22/22/22 21/21/21 19/19/19
f 23/23/23 21/21/21 22/22/22
f 24/24/24 23/23/23 22/22/22
f 27/27/27 26/26/26 25/25/25
f 28/28/28 27/27/27 25/25/25
f 31/31/31 30/30/30 29/29/29
f 32/32/32 31/31/31 29/29/29
f 35/35/35 34/34/34 33/33/33
f 36/36/36 35/35/35 33/33/33
f 39/39/39 38/38/38 37/37/37
f 40/40/40 39/39/39 37/37/37
f 43/43/43 42/42/42 41/41/41
f 44/44/44 43/43/43 41/41/41
f 47/47/47 46/46/46 45/45/45
f 48/48/48 47/47/47 45/45/45
f 48/48/48 45/45/45 49/49/49
f 50/50/50 48/48/48 49/49/49
f 53/53/53 52/52/52 51/51/51
f 54/54/54 53/53/53 51/51/51
f 57/57/57 56/56/56 55/55/55
f 58/58/58 57/57/57 55/55/55
f 61/61/61 60/60/60 59/59/59
f 62/62/62 61/61/61 59/59/59
f 65/65/65 64/64/64 63/63/63
f 66/66/66 65/65/65 63/63/63
f 69/69/69 68/68/68 67/67/67
f 70/70/70 69/69/69 67/67/67
f 73/73/73 72/72/72 71/71/71
f 74/74/74 73/73/73 71/71/71
f 77/77/77 76/76/76 75/75/75
f 78/78/78 77/77/77 75/75/75
f 81/81/81 80/80/80 79/79/79
f 82/82/82 81/81/81 79/79/79
f 85/85/85 84/84/84 83/83/83
f 86/86/86 85/85/85 83/83/83
f 89/89/89 88/88/88 87/87/87
f 90/90/90 89/89/89 87/87/87
f 93/93/93 92/92/92 91/91/91
f 94/94/94 93/93/93 91/91/91
f 97/97/97 96/96/96 95/95/95
f 98/98/98 97/97/97 95/95/95
f 101/101/101 100/100/100 99/99/99
f 102/102/102 101/101/101 99/99/99
f 105/105/105 104/104/104 103/103/103
f 104/104/104 106/106/106 103/103/103
f 107/107/107 104/104/104 105/105/105
f 103/103/103 106/106/106 108/108/108
f 109/109/109 107/107/107 105/105/105
f 106/106/106 110/110/110 108/108/108
f 110/110/110 107/107/107 109/109/109
f 108/108/108 110/110/110 109/109/109
f 113/113/113 112/112/112 111/111/111
f 112/112/112 114/114/114 111/111/111
f 115/115/115 112/112/112 113/113/113
f 111/111/111 114/114/114 116/116/116
f 117/117/117 115/115/115 113/113/113
f 114/114/114 118/118/118 116/116/116
f 118/118/118 115/115/115 117/117/117
f 116/116/116 118/118/118 117/117/117
g Spaceship_1
f 121/121/121 120/120/120 119/119/119
f 122/122/122 121/121/121 119/119/119
f 125/125/125 124/124/124 123/123/123
f 126/126/126 125/125/125 123/123/123
f 129/129/129 128/128/128 127/127/127
f 130/130/130 129/129/129 127/127/127
f 133/133/133 132/132/132 131/131/131
f 134/134/134 133/133/133 131/131/131
