g Wheel.Rear.Right
v 0.00292749656 -0.000951202586 0.0177405328
v 0.0024902774 -0.00180929329 0.0177405328
v 0.00292749633 0.000951199385 0.0177405309
v 0.000951201946 -0.00292749726 0.0177405346
v 1.02511877E-09 -0.00307815266 0.0177405346
v 0.000951201364 0.002927494 0.0177405328
v 1.02511877E-09 -0.00307815266 0.0177405346
v -0.000951195718 -0.00292749843 0.0177405346
v 2.21302785E-11 0.00307814893 0.0177405328
v -0.00180928747 -0.00249028043 0.0177405346
v -0.00180929212 0.00249027344 0.0177405346
v -0.000951201248 0.00292749307 0.0177405346
v -0.00249027321 -0.00180929666 0.0177405346
v -0.0024902767 0.0018092884 0.0177405346
v -0.00180929212 0.00249027344 0.0177405346
v 5.96658611E-10 -0.00999999885 0.0177405383
v 0.00309016928 -0.00951056369 -0.00225946191
v -2.63682964E-10 -0.00999999978 -0.00225946074
v 0.00309017021 -0.00951056369 0.0177405346
v 0.00587785151 -0.00809016824 -0.00225946424
v 0.00587785244 -0.00809016824 0.0177405328
v 0.00809016917 -0.00587785244 -0.00225946656
v 0.0080901701 -0.00587785104 0.0177405309
v 0.00951056462 -0.00309016975 -0.00225946773
v 0.00951056555 -0.00309016905 0.0177405309
v 0.00999999885 2.84447799E-10 -0.00225946889
v 0.00999999978 7.82563681E-10 0.0177405309
v 0.00999999978 7.82563681E-10 0.0177405309
v 0.00951056369 0.00309016975 -0.00225946889
v 0.00999999885 2.84447799E-10 -0.00225946889
v 0.00951056462 0.00309017021 0.017740529
v 0.00809016917 0.00587785058 -0.00225946889
v 0.0080901701 0.00587785151 0.017740529
v 0.00587785104 0.0080901701 -0.00225946889
v 0.00587785151 0.0080901701 0.017740529
v 0.00309016719 0.00951056555 -0.00225946889
v 0.00309016812 0.00951056555 0.0177405309
v -3.5220955E-09 0.00999999978 -0.00225946656
v -2.66175437E-09 0.00999999978 0.0177405309
v -2.66175437E-09 0.00999999978 0.0177405309
v -0.00309017417 0.00951056369 -0.00225946424
v -3.5220955E-09 0.00999999978 -0.00225946656
v -0.00309017324 0.00951056369 0.0177405328
v -0.00587785663 0.00809016544 -0.00225946307
v -0.0058778557 0.00809016638 0.0177405346
v -0.00809017383 0.00587784592 -0.00225946191
v -0.00809017289 0.00587784685 0.0177405346
v -0.00951056741 0.00309016136 -0.00225945935
v -0.00951056648 0.00309016183 0.0177405383
v -0.00999999885 -9.80865433E-09 -0.00225945818
v -0.00999999698 -9.31053989E-09 0.0177405402
v -0.00999999698 -9.31053989E-09 0.0177405402
v -0.00951056089 -0.00309018046 -0.00225945702
v -0.00999999885 -9.80865433E-09 -0.00225945818
v -0.00951055996 -0.00309017976 0.0177405402
v -0.00809016172 -0.00587786129 -0.00225945702
v -0.00809016172 -0.00587786129 0.0177405402
v -0.0058778408 -0.00809017755 -0.00225945818
v -0.00587784033 -0.00809017662 0.0177405402
v -0.00309015601 -0.00951056927 -0.00225945935
v -0.00309015508 -0.00951056834 0.0177405402
v -2.63682964E-10 -0.00999999978 -0.00225946074
v 5.96658611E-10 -0.00999999885 0.0177405383
v 0.00232102722 -0.000754148001 -0.00225946424
v 0.0024404726 -5.68745398E-11 -0.00225946424
v 0.00232102768 0.000754147826 -0.00225946424
v 0.00197438407 0.00143447274 -0.00225946424
v 0.00197438407 -0.00143447367 -0.00225946424
v 0.0014344732 -0.00197438453 -0.00225946424
v 0.00143447309 0.0019743836 -0.00225946424
v 0.000754147361 -0.00232102815 -0.00225946307
v 0.00075414672 0.00232102745 -0.00225946424
v -3.13429038E-09 -0.002440474 -0.00225946307
v -8.17710732E-10 0.00244047283 -0.00225946424
v -0.000754148292 0.00232102722 -0.00225946424
v -0.000754141656 -0.00232103048 -0.00225946191
v -0.00143447204 -0.00197438663 -0.00225946191
v -0.00143447588 0.00197438244 -0.00225946424
v -0.00197438314 -0.00143447693 -0.00225946191
v -0.00197438546 0.00143447192 -0.00225946307
v -0.00232102722 -0.000754150795 -0.00225946191
v -0.00232102862 0.000754145614 -0.00225946191
v -0.0024404733 -2.95823721E-09 -0.00225946191
v -0.00174818607 0.00538035482 -0.00225946424
v -1.86971993E-09 0.00565724121 -0.000402537582
v -1.90966021E-09 0.00565724121 -0.0022594654
v -0.00174818584 0.00538035482 -0.000402536389
v -0.00332524558 0.00457680086 -0.00225946307
v -0.00332524558 0.00457680179 -0.000402535778
v -0.00457680644 0.00332523906 -0.00225946191
v -0.00457680644 0.00332523906 -0.000402534584
v -0.00538035668 0.00174817897 -0.00225946191
v -0.00538035668 0.00174817897 -0.000402534002
v -0.00565724075 -5.70024383E-09 -0.00225946074
v -0.00565724075 -5.65399461E-09 -0.000402532809
v -8.17710732E-10 0.00244047283 -0.00225946424
v -7.77770293E-10 0.00244047283 -0.000402536971
v -0.000754148175 0.00232102722 -0.000402536389
v -0.000754148292 0.00232102722 -0.00225946424
v -0.00143447577 0.00197438244 -0.000402535778
v -0.00143447588 0.00197438244 -0.00225946424
v -0.00197438523 0.00143447192 -0.000402535195
v -0.00197438546 0.00143447192 -0.00225946307
v -0.00232102838 0.000754145614 -0.000402535195
v -0.00232102862 0.000754145614 -0.00225946191
v -0.00244047306 -2.91198932E-09 -0.000402535195
v -0.0024404733 -2.95823721E-09 -0.00225946191
v -1.90966021E-09 0.00565724121 -0.0022594654
v -1.86971993E-09 0.00565724121 -0.000402537582
v 0.00174818246 0.00538035622 -0.000402538775
v 0.00174818235 0.00538035622 -0.00225946656
v 0.00332524139 0.00457680458 -0.000402539357
v 0.00332524139 0.00457680412 -0.00225946656
v 0.00457680412 0.00332524208 -0.000402539968
v 0.00457680412 0.00332524208 -0.00225946656
v 0.00538035575 0.00174818363 -0.000402539357
v 0.00538035575 0.00174818363 -0.00225946656
v 0.00565724075 -1.06263349E-11 -0.000402538775
v 0.00565724075 -5.68745918E-11 -0.00225946656
v 0.00075414672 0.00232102745 -0.00225946424
v -7.77770293E-10 0.00244047283 -0.000402536971
v -8.17710732E-10 0.00244047283 -0.00225946424
v 0.000754146778 0.00232102745 -0.000402537582
v 0.00143447309 0.0019743836 -0.00225946424
v 0.0014344732 0.0019743836 -0.000402537582
v 0.00197438407 0.00143447274 -0.00225946424
v 0.00197438407 0.00143447274 -0.000402537582
v 0.00232102768 0.000754147826 -0.00225946424
v 0.00232102768 0.000754147826 -0.000402537582
v 0.0024404726 -5.68745398E-11 -0.00225946424
v 0.00244047283 -1.0626282E-11 -0.000402537582
v -1.67835879E-09 -0.00565724075 -0.00225946191
v -1.63841829E-09 -0.00565724075 -0.000402534002
v -0.00174817443 -0.00538035994 -0.000402533391
v -0.00174817455 -0.00538035994 -0.00225946191
v -0.00332523696 -0.00457680877 -0.000402532809
v -0.00332523696 -0.00457680877 -0.00225946074
v -0.00457680039 -0.00332524884 -0.000402532809
v -0.00457680039 -0.00332524884 -0.00225945935
v -0.00538035389 -0.00174818991 -0.000402532809
v -0.00538035389 -0.00174818991 -0.00225945935
v -0.00565724075 -5.65399461E-09 -0.000402532809
v -0.00565724075 -5.70024383E-09 -0.00225946074
v -0.000754141656 -0.00232103048 -0.00225946191
v -3.094351E-09 -0.002440474 -0.000402535195
v -3.13429038E-09 -0.002440474 -0.00225946307
v -0.00075414154 -0.00232103048 -0.000402535195
v -0.00143447204 -0.00197438663 -0.00225946191
v -0.00143447192 -0.00197438663 -0.000402534584
v -0.00197438314 -0.00143447693 -0.00225946191
v -0.0019743829 -0.00143447693 -0.000402534584
v -0.00232102722 -0.000754150795 -0.00225946191
v -0.00232102722 -0.000754150678 -0.000402534584
v -0.0024404733 -2.95823721E-09 -0.00225946191
v -0.00244047306 -2.91198932E-09 -0.000402535195
v 0.00565724075 -5.68745918E-11 -0.00225946656
v 0.00565724075 -1.06263349E-11 -0.000402538775
v 0.00538035575 -0.00174818363 -0.000402538775
v 0.00538035575 -0.00174818363 -0.00225946656
v 0.00457680412 -0.00332524208 -0.000402537582
v 0.00457680412 -0.00332524255 -0.00225946424
v 0.00332524208 -0.00457680458 -0.000402536389
v 0.00332524208 -0.00457680458 -0.00225946424
v 0.00174818363 -0.00538035622 -0.000402535195
v 0.00174818351 -0.00538035622 -0.00225946307
v -1.63841829E-09 -0.00565724075 -0.000402534002
v -1.67835879E-09 -0.00565724075 -0.00225946191
v 0.00232102722 -0.000754148001 -0.00225946424
v 0.00244047283 -1.0626282E-11 -0.000402537582
v 0.0024404726 -5.68745398E-11 -0.00225946424
v 0.00232102745 -0.000754147826 -0.000402536971
v 0.00197438407 -0.00143447367 -0.00225946424
v 0.00197438407 -0.00143447367 -0.000402536389
v 0.0014344732 -0.00197438453 -0.00225946424
v 0.00143447332 -0.00197438453 -0.000402536389
v 0.000754147361 -0.00232102815 -0.00225946307
v 0.000754147477 -0.00232102815 -0.000402535778
v -3.13429038E-09 -0.002440474 -0.00225946307
v -3.094351E-09 -0.002440474 -0.000402535195
v 0.00951056555 -0.00309016905 0.0177405309
v 0.00618549623 -4.98247665E-10 0.0177405309
v 0.00999999978 7.82563681E-10 0.0177405309
v 0.00588275725 -0.00191142422 0.0177405309
v 0.00307815196 -1.55658508E-09 0.0177405328
v 0.00292749656 -0.000951202586 0.0177405328
v 0.00500417175 -0.0036357441 0.0177405328
v 0.0024902774 -0.00180929329 0.0177405328
v 0.0080901701 -0.00587785104 0.0177405309
v 0.00951056555 -0.00309016905 0.0177405309
v 0.0036357441 -0.00500417175 0.0177405346
v 0.00180929271 -0.0024902781 0.0177405346
v 0.00587785244 -0.00809016824 0.0177405328
v 0.0080901701 -0.00587785104 0.0177405309
v 0.00191142422 -0.00588275678 0.0177405346
v 0.000951201946 -0.00292749726 0.0177405346
v 0.00309017021 -0.00951056369 0.0177405346
v 0.00587785244 -0.00809016824 0.0177405328
v 8.18336621E-10 -0.00618549623 0.0177405346
v 1.02511877E-09 -0.00307815266 0.0177405346
v 5.96658611E-10 -0.00999999885 0.0177405383
v 0.00309017021 -0.00951056369 0.0177405346
v -0.00191141397 -0.00588275911 0.0177405346
v 8.18336621E-10 -0.00618549623 0.0177405346
v -0.000951195718 -0.00292749843 0.0177405346
v -0.00309015508 -0.00951056834 0.0177405402
v 5.96658611E-10 -0.00999999885 0.0177405383
v -0.00363573572 -0.0050041764 0.0177405383
v -0.00587784033 -0.00809017662 0.0177405402
v -0.00309015508 -0.00951056834 0.0177405402
v -0.00180928747 -0.00249028043 0.0177405346
v -0.000951201248 0.00292749307 0.0177405346
v 2.21302785E-11 0.00307814893 0.0177405328
v -0.00500416569 -0.00363575039 0.0177405383
v -0.00809016172 -0.00587786129 0.0177405402
v -0.00587784033 -0.00809017662 0.0177405402
v -0.00249027321 -0.00180929666 0.0177405346
v -0.00180929212 0.00249027344 0.0177405346
v -0.00588275306 -0.00191143074 0.0177405383
v -0.00951055996 -0.00309017976 0.0177405402
v -0.00809016172 -0.00587786129 0.0177405402
v -0.0029274933 -0.000951205846 0.0177405346
v -0.0024902767 0.0018092884 0.0177405346
v -0.00618549436 -6.74133371E-09 0.0177405383
v -0.00307814986 -4.66339545E-09 0.0177405346
v -0.00999999698 -9.31053989E-09 0.0177405402
v -0.00951055996 -0.00309017976 0.0177405402
v 0.00309016812 0.00951056555 0.0177405309
v -1.19715304E-09 0.00618549436 0.0177405309
v -2.66175437E-09 0.00999999978 0.0177405309
v 0.00191142282 0.00588275585 0.0177405309
v 2.21302785E-11 0.00307814893 0.0177405328
v 0.000951201364 0.002927494 0.0177405328
v 1.02511877E-09 -0.00307815266 0.0177405346
v 0.0036357434 0.00500417082 0.0177405309
v 0.00587785151 0.0080901701 0.017740529
v 0.00309016812 0.00951056555 0.0177405309
v 0.00180929236 0.00249027484 0.0177405328
v 0.000951201946 -0.00292749726 0.0177405346
v 0.00500417175 0.003635742 0.0177405309
v 0.0080901701 0.00587785151 0.017740529
v 0.00587785151 0.0080901701 0.017740529
v 0.0024902774 0.00180928991 0.0177405309
v 0.0024902774 -0.00180929329 0.0177405328
v 0.00292749633 0.000951199385 0.0177405309
v 0.00588275678 0.00191142259 0.0177405309
v 0.00951056462 0.00309017021 0.017740529
v 0.0080901701 0.00587785151 0.017740529
v 0.00618549623 -4.98247665E-10 0.0177405309
v 0.00999999978 7.82563681E-10 0.0177405309
v 0.00951056462 0.00309017021 0.017740529
v 0.00307815196 -1.55658508E-09 0.0177405328
v 0.00292749656 -0.000951202586 0.0177405328
v -0.00951056648 0.00309016183 0.0177405383
v -0.00618549436 -6.74133371E-09 0.0177405383
v -0.00999999698 -9.31053989E-09 0.0177405402
v -0.00588275678 0.0019114177 0.0177405346
v -0.00307814986 -4.66339545E-09 0.0177405346
v -0.00292749517 0.000951196766 0.0177405346
v -0.0029274933 -0.000951205846 0.0177405346
v -0.0024902767 0.0018092884 0.0177405346
v -0.00809017289 0.00587784685 0.0177405346
v -0.00951056648 0.00309016183 0.0177405383
v -0.00500417268 0.00363573898 0.0177405346
v -0.00292749517 0.000951196766 0.0177405346
v -0.0024902767 0.0018092884 0.0177405346
v -0.00363574526 0.00500416802 0.0177405346
v -0.00180929212 0.00249027344 0.0177405346
v -0.0058778557 0.00809016638 0.0177405346
v -0.00809017289 0.00587784685 0.0177405346
v -0.00191142515 0.00588275399 0.0177405328
v -0.000951201248 0.00292749307 0.0177405346
v -0.00309017324 0.00951056369 0.0177405328
v -0.0058778557 0.00809016638 0.0177405346
v -1.19715304E-09 0.00618549436 0.0177405309
v 2.21302785E-11 0.00307814893 0.0177405328
v -2.66175437E-09 0.00999999978 0.0177405309
v -0.00309017324 0.00951056369 0.0177405328
v 0.0024902774 -0.00180929329 0.0177405328
v 0.00180929271 -0.0024902781 0.0177405346
v 0.00180929236 0.00249027484 0.0177405328
v 0.000951201946 -0.00292749726 0.0177405346
v -0.00104751426 -0.00322394213 -0.000402534584
v -0.00075414154 -0.00232103048 -0.000402535195
v -0.00143447192 -0.00197438663 -0.000402534584
v -0.00199250085 -0.00274244999 -0.000402534002
v -0.0019743829 -0.00143447693 -0.000402534584
v -2.81504975E-09 -0.00338985189 -0.000402535195
v -3.094351E-09 -0.002440474 -0.000402535195
v -0.00274244533 -0.00199250807 -0.000402534002
v -0.00232102722 -0.000754150678 -0.000402534584
v 0.0010475216 -0.00322394003 -0.000402535778
v 0.000754147477 -0.00232102815 -0.000402535778
v -0.00322393887 -0.00104752521 -0.000402534002
v -0.00244047306 -2.91198932E-09 -0.000402535195
v 0.00199250388 -0.00274244719 -0.000402536389
v 0.00143447332 -0.00197438453 -0.000402536389
v -0.00338985072 -3.71408704E-09 -0.000402534002
v -0.00232102838 0.000754145614 -0.000402535195
v 0.00274244649 -0.00199250388 -0.000402536971
v 0.00197438407 -0.00143447367 -0.000402536389
v -0.00322394073 0.0010475188 -0.000402534584
v -0.00197438523 0.00143447192 -0.000402535195
v 0.0032239391 -0.00104752171 -0.000402537582
v 0.00232102745 -0.000754147826 -0.000402536971
v -0.00274244836 0.00199250155 -0.000402535195
v -0.00143447577 0.00197438244 -0.000402535778
v 0.00338985026 -2.03989117E-10 -0.000402537582
v 0.00244047283 -1.0626282E-11 -0.000402537582
v -0.00199250644 0.0027424444 -0.000402535778
v -0.000754148175 0.00232102722 -0.000402536389
v 0.00322393957 0.00104752195 -0.000402538164
v 0.00232102768 0.000754147826 -0.000402537582
v -0.00104752253 0.00322393863 -0.000402536389
v -7.77770293E-10 0.00244047283 -0.000402536971
v 0.00274244626 0.00199250341 -0.000402538164
v 0.00197438407 0.00143447274 -0.000402537582
v -9.63972235E-10 0.00338985072 -0.000402536971
v 0.000754146778 0.00232102745 -0.000402537582
v 0.00199250365 0.00274244649 -0.000402537582
v 0.0014344732 0.0019743836 -0.000402537582
v 0.00104752078 0.00322393957 -0.000402537582
v 0.00447744364 0.00145480968 -0.000402538775
v 0.00380874122 0.00276721152 -0.000402538775
v 0.00276721106 0.00380874146 -0.000402538775
v 0.00145480863 0.0044774441 -0.000402538164
v -1.54744839E-09 0.00470786309 -0.000402537582
v -0.00145481131 0.00447744271 -0.000402536389
v 0.00470786262 -1.06263262E-11 -0.000402538775
v -0.00276721502 0.00380873913 -0.000402535778
v 0.00447744364 -0.00145480991 -0.000402537582
v -0.00380874332 0.00276720896 -0.000402535195
v 0.00380874122 -0.00276721222 -0.000402537582
v -0.0044774455 0.00145480584 -0.000402534002
v 0.00276721176 -0.00380874122 -0.000402536389
v -0.00470786309 -4.84473617E-09 -0.000402534002
v 0.00145480968 -0.0044774441 -0.000402535195
v -0.00447744271 -0.00145481504 -0.000402533391
v -2.06811368E-09 -0.00470786355 -0.000402534584
v -0.0038087382 -0.00276721758 -0.000402532809
v -0.00145480142 -0.0044774469 -0.000402534002
v -0.0027672078 -0.00380874472 -0.000402533391
v 0.00332524208 -0.00457680458 -0.000402536389
v 0.00174818363 -0.00538035622 -0.000402535195
v 0.00457680412 -0.00332524208 -0.000402537582
v -1.63841829E-09 -0.00565724075 -0.000402534002
v -0.00174817443 -0.00538035994 -0.000402533391
v 0.00538035575 -0.00174818363 -0.000402538775
v -0.00332523696 -0.00457680877 -0.000402532809
v -0.00457680039 -0.00332524884 -0.000402532809
v 0.00565724075 -1.06263349E-11 -0.000402538775
v -0.00538035389 -0.00174818991 -0.000402532809
v 0.00538035575 0.00174818363 -0.000402539357
v -0.00565724075 -5.65399461E-09 -0.000402532809
v 0.00457680412 0.00332524208 -0.000402539968
v -0.00538035668 0.00174817897 -0.000402534002
v 0.00332524139 0.00457680458 -0.000402539357
v -0.00457680644 0.00332523906 -0.000402534584
v 0.00174818246 0.00538035622 -0.000402538775
v -0.00332524558 0.00457680179 -0.000402535778
v -1.86971993E-09 0.00565724121 -0.000402537582
v -0.00174818584 0.00538035482 -0.000402536389
v -0.00332523696 -0.00457680877 -0.00225946074
v -0.00383201288 -0.00527432794 -0.00225945935
v -0.00201460184 -0.00620034197 -0.00225946074
v -0.00457680039 -0.00332524884 -0.00225945935
v -0.00174817455 -0.00538035994 -0.00225946191
v -0.00527431769 -0.00383202662 -0.00225945935
v -1.34016087E-09 -0.00651942054 -0.00225946191
v -0.00538035389 -0.00174818991 -0.00225945935
v -1.67835879E-09 -0.00565724075 -0.00225946191
v -0.00620033545 -0.00201461883 -0.00225945935
v 0.00201461185 -0.00620033825 -0.00225946307
v -0.00565724075 -5.70024383E-09 -0.00225946074
v 0.00174818351 -0.00538035622 -0.00225946307
v -0.00651942054 -6.47419807E-09 -0.00225945935
v 0.00383201893 -0.00527432328 -0.00225946424
v -0.00538035668 0.00174817897 -0.00225946191
v 0.00332524208 -0.00457680458 -0.00225946424
v -0.00620033918 0.00201460673 -0.00225946191
v 0.00527432235 -0.0038320194 -0.0022594654
v -0.00457680644 0.00332523906 -0.00225946191
v 0.00457680412 -0.00332524255 -0.00225946424
v -0.00527432468 0.00383201521 -0.00225946191
v 0.00620033778 -0.00201461185 -0.00225946656
v -0.00332524558 0.00457680086 -0.00225946307
v 0.00538035575 -0.00174818363 -0.00225946656
v -0.00383202266 0.00527431956 -0.00225946307
v 0.00651942054 -5.68746092E-11 -0.00225946656
v -0.00174818607 0.00538035482 -0.00225946424
v 0.00565724075 -5.68745918E-11 -0.00225946656
v -0.00201461487 0.00620033732 -0.00225946424
v 0.00620033778 0.00201461185 -0.00225946773
v -1.90966021E-09 0.00565724121 -0.0022594654
v 0.00538035575 0.00174818363 -0.00225946656
v -2.15680518E-09 0.006519421 -0.0022594654
v 0.00527432235 0.00383201893 -0.00225946773
v 0.00174818235 0.00538035622 -0.00225946656
v 0.00457680412 0.00332524208 -0.00225946656
v 0.00201461045 0.00620033825 -0.00225946656
v 0.00383201824 0.00527432328 -0.00225946656
v 0.00332524139 0.00457680412 -0.00225946656
v -0.00383201288 -0.00527432794 -0.00225945935
v -0.0058778408 -0.00809017755 -0.00225945818
v -0.00309015601 -0.00951056927 -0.00225945935
v -0.00527431769 -0.00383202662 -0.00225945935
v -0.00201460184 -0.00620034197 -0.00225946074
v -0.00809016172 -0.00587786129 -0.00225945702
v -2.63682964E-10 -0.00999999978 -0.00225946074
v -0.00620033545 -0.00201461883 -0.00225945935
v -1.34016087E-09 -0.00651942054 -0.00225946191
v -0.00951056089 -0.00309018046 -0.00225945702
v 0.00309016928 -0.00951056369 -0.00225946191
v -0.00651942054 -6.47419807E-09 -0.00225945935
v 0.00201461185 -0.00620033825 -0.00225946307
v -0.00999999885 -9.80865433E-09 -0.00225945818
v 0.00587785151 -0.00809016824 -0.00225946424
v -0.00620033918 0.00201460673 -0.00225946191
v 0.00383201893 -0.00527432328 -0.00225946424
v -0.00951056741 0.00309016136 -0.00225945935
v 0.00809016917 -0.00587785244 -0.00225946656
v -0.00527432468 0.00383201521 -0.00225946191
v 0.00527432235 -0.0038320194 -0.0022594654
v -0.00809017383 0.00587784592 -0.00225946191
v 0.00951056462 -0.00309016975 -0.00225946773
v -0.00383202266 0.00527431956 -0.00225946307
v 0.00620033778 -0.00201461185 -0.00225946656
v -0.00587785663 0.00809016544 -0.00225946307
v 0.00999999885 2.84447799E-10 -0.00225946889
v -0.00201461487 0.00620033732 -0.00225946424
v 0.00651942054 -5.68746092E-11 -0.00225946656
v -0.00309017417 0.00951056369 -0.00225946424
v 0.00951056369 0.00309016975 -0.00225946889
v -2.15680518E-09 0.006519421 -0.0022594654
v 0.00620033778 0.00201461185 -0.00225946773
v -3.5220955E-09 0.00999999978 -0.00225946656
v 0.00809016917 0.00587785058 -0.00225946889
v 0.00201461045 0.00620033825 -0.00225946656
v 0.00527432235 0.00383201893 -0.00225946773
v 0.00309016719 0.00951056555 -0.00225946889
v 0.00587785104 0.0080901701 -0.00225946889
v 0.00383201824 0.00527432328 -0.00225946656
vt 0.473876953 0.0467834473
vt 0.522460938 0.0467834473
vt 0.639648438 0.0472106934
vt 0.622558594 0.0467834473
vt 0.6640625 0.0467834473
vt 0.490966797 0.0472106934
vt 0.6640625 0.0467834473
vt 0.705078125 0.0467834473
vt 0.449707031 0.0472106934
vt 0.75390625 0.0467834473
vt 0.267822266 0.0463562012
vt 0.31640625 0.0463562012
vt 0.805175781 0.0467834473
vt 0.216552734 0.0463562012
vt 0.267822266 0.0463562012
vt 0.696289062 0.00959014893
vt 0.643554688 0.100036621
vt 0.696289062 0.100036621
vt 0.643554688 0.00959014893
vt 0.581542969 0.100036621
vt 0.581542969 0.00959014893
vt 0.516601562 0.100036621
vt 0.516601562 0.00959014893
vt 0.454589844 0.100036621
vt 0.454589844 0.00959014893
vt 0.401855469 0.100036621
vt 0.401855469 0.00959014893
vt 0.717773438 0.0101394653
vt 0.665527344 0.100585938
vt 0.717773438 0.100585938
vt 0.665527344 0.0101394653
vt 0.603515625 0.100585938
vt 0.603515625 0.0101394653
vt 0.538085938 0.100585938
vt 0.538085938 0.0101394653
vt 0.476318359 0.100585938
vt 0.476318359 0.0101394653
vt 0.423583984 0.100585938
vt 0.423583984 0.0101394653
vt 0.306884766 0.00902557373
vt 0.254150391 0.0994873047
vt 0.306884766 0.0994873047
vt 0.254150391 0.00902557373
vt 0.192138672 0.0994873047
vt 0.192138672 0.00902557373
vt 0.127075195 0.0994873047
vt 0.127075195 0.00902557373
vt 0.0650634766 0.0994873047
vt 0.0650634766 0.00902557373
vt 0.0124053955 0.0994873047
vt 0.0123977661 0.00902557373
vt 0.990722656 0.00959014893
vt 0.937988281 0.100036621
vt 0.990722656 0.100036621
vt 0.937988281 0.00959014893
vt 0.875976562 0.100036621
vt 0.875976562 0.00959014893
vt 0.811035156 0.100036621
vt 0.811035156 0.00959014893
vt 0.749023438 0.100036621
vt 0.749023438 0.00959014893
vt 0.696289062 0.100036621
vt 0.696289062 0.00959014893
vt 0.279052734 0.723144531
vt 0.295654297 0.7109375
vt 0.307861328 0.693847656
vt 0.314208984 0.673828125
vt 0.259277344 0.729492188
vt 0.238525391 0.729492188
vt 0.314208984 0.652832031
vt 0.21875 0.723144531
vt 0.307861328 0.633300781
vt 0.202026367 0.7109375
vt 0.295654297 0.616210938
vt 0.279052734 0.604003906
vt 0.189819336 0.693847656
vt 0.18347168 0.673828125
vt 0.259277344 0.59765625
vt 0.18347168 0.652832031
vt 0.238525391 0.59765625
vt 0.189819336 0.633300781
vt 0.21875 0.604003906
vt 0.202026367 0.616210938
vt 0.294433594 0.650390625
vt 0.333007812 0.614257812
vt 0.294433594 0.614257812
vt 0.333007812 0.650390625
vt 0.294433594 0.692382812
vt 0.333007812 0.692382812
vt 0.294433594 0.736328125
vt 0.333007812 0.736328125
vt 0.294433594 0.778808594
vt 0.333007812 0.778808594
vt 0.294433594 0.814453125
vt 0.333007812 0.814453125
vt 0.371826172 0.900878906
vt 0.410400391 0.900878906
vt 0.410400391 0.885253906
vt 0.371826172 0.885253906
vt 0.410400391 0.8671875
vt 0.371826172 0.8671875
vt 0.410400391 0.848144531
vt 0.371826172 0.848144531
vt 0.410400391 0.829589844
vt 0.371826172 0.829589844
vt 0.410400391 0.814453125
vt 0.371826172 0.814453125
vt 0.333007812 0.814453125
vt 0.371826172 0.814453125
vt 0.371826172 0.778808594
vt 0.333007812 0.778808594
vt 0.371826172 0.736328125
vt 0.333007812 0.736328125
vt 0.371826172 0.692382812
vt 0.333007812 0.692382812
vt 0.371826172 0.650390625
vt 0.333007812 0.650390625
vt 0.371826172 0.614257812
vt 0.333007812 0.614257812
vt 0.371826172 0.885253906
vt 0.333007812 0.900878906
vt 0.371826172 0.900878906
vt 0.333007812 0.885253906
vt 0.371826172 0.8671875
vt 0.333007812 0.8671875
vt 0.371826172 0.848144531
vt 0.333007812 0.848144531
vt 0.371826172 0.829589844
vt 0.333007812 0.829589844
vt 0.371826172 0.814453125
vt 0.333007812 0.814453125
vt 0.705566406 0.979492188
vt 0.744140625 0.979492188
vt 0.744140625 0.943359375
vt 0.705566406 0.943359375
vt 0.744140625 0.901367188
vt 0.705566406 0.901367188
vt 0.744140625 0.857421875
vt 0.705566406 0.857421875
vt 0.744140625 0.814941406
vt 0.705566406 0.814941406
vt 0.744140625 0.779296875
vt 0.705566406 0.779296875
vt 0.782714844 0.850097656
vt 0.744140625 0.865722656
vt 0.782714844 0.865722656
vt 0.744140625 0.850097656
vt 0.782714844 0.83203125
vt 0.744140625 0.83203125
vt 0.782714844 0.812988281
vt 0.744140625 0.812988281
vt 0.782714844 0.794921875
vt 0.744140625 0.794921875
vt 0.782714844 0.779296875
vt 0.744140625 0.779296875
vt 0.371826172 0.814453125
vt 0.410400391 0.814453125
vt 0.410400391 0.778808594
vt 0.371826172 0.778808594
vt 0.410400391 0.736328125
vt 0.371826172 0.736328125
vt 0.410400391 0.692382812
vt 0.371826172 0.692382812
vt 0.410400391 0.650390625
vt 0.371826172 0.650390625
vt 0.410400391 0.614257812
vt 0.371826172 0.614257812
vt 0.333007812 0.885253906
vt 0.294433594 0.900878906
vt 0.333007812 0.900878906
vt 0.294433594 0.885253906
vt 0.333007812 0.8671875
vt 0.294433594 0.8671875
vt 0.333007812 0.848144531
vt 0.294433594 0.848144531
vt 0.333007812 0.829589844
vt 0.294433594 0.829589844
vt 0.333007812 0.814453125
vt 0.294433594 0.814453125
vt 0.476318359 0.108337402
vt 0.432617188 0.0467834473
vt 0.435058594 0.108337402
vt 0.473876953 0.0467834473
vt 0.432617188 0.0467834473
vt 0.473876953 0.0467834473
vt 0.522460938 0.0467834473
vt 0.522460938 0.0467834473
vt 0.522460938 0.098449707
vt 0.473876953 0.098449707
vt 0.573730469 0.0467834473
vt 0.573730469 0.0467834473
vt 0.573730469 0.105834961
vt 0.522460938 0.105834961
vt 0.622558594 0.0467834473
vt 0.622558594 0.0467834473
vt 0.625 0.110778809
vt 0.576171875 0.110778809
vt 0.6640625 0.0467834473
vt 0.6640625 0.0467834473
vt 0.668945312 0.105834961
vt 0.627441406 0.105834961
vt 0.705078125 0.0467834473
vt 0.6640625 0.0467834473
vt 0.705078125 0.0467834473
vt 0.708007812 0.108337402
vt 0.666503906 0.108337402
vt 0.75390625 0.0467834473
vt 0.75390625 0.115722656
vt 0.705078125 0.115722656
vt 0.75390625 0.0467834473
vt 0.31640625 0.0463562012
vt 0.449707031 0.0472106934
vt 0.805175781 0.0467834473
vt 0.805175781 0.113220215
vt 0.75390625 0.113220215
vt 0.805175781 0.0467834473
vt 0.267822266 0.0463562012
vt 0.854003906 0.0467834473
vt 0.861328125 0.105834961
vt 0.8125 0.105834961
vt 0.854003906 0.0467834473
vt 0.216552734 0.0463562012
vt 0.895019531 0.0467834473
vt 0.895019531 0.0467834473
vt 0.897949219 0.110778809
vt 0.856445312 0.110778809
vt 0.488525391 0.103820801
vt 0.449707031 0.0472106934
vt 0.447021484 0.103820801
vt 0.490966797 0.0472106934
vt 0.449707031 0.0472106934
vt 0.490966797 0.0472106934
vt 0.6640625 0.0467834473
vt 0.539550781 0.0472106934
vt 0.539550781 0.103820801
vt 0.490966797 0.103820801
vt 0.539550781 0.0472106934
vt 0.622558594 0.0467834473
vt 0.590820312 0.0472106934
vt 0.588378906 0.111206055
vt 0.537109375 0.111206055
vt 0.590820312 0.0472106934
vt 0.522460938 0.0467834473
vt 0.639648438 0.0472106934
vt 0.639648438 0.0472106934
vt 0.639648438 0.106262207
vt 0.590820312 0.106262207
vt 0.681152344 0.0472106934
vt 0.681152344 0.125976562
vt 0.639648438 0.125976562
vt 0.681152344 0.0472106934
vt 0.473876953 0.0467834473
vt 0.16784668 0.0463562012
vt 0.126464844 0.0463562012
vt 0.126464844 0.0463562012
vt 0.16784668 0.0463562012
vt 0.126464844 0.0463562012
vt 0.16784668 0.0463562012
vt 0.854003906 0.0467834473
vt 0.216552734 0.0463562012
vt 0.216552734 0.0980224609
vt 0.16784668 0.0980224609
vt 0.216552734 0.0463562012
vt 0.16784668 0.0463562012
vt 0.216552734 0.0463562012
vt 0.267822266 0.0463562012
vt 0.267822266 0.0463562012
vt 0.267822266 0.0463562012
vt 0.216552734 0.0463562012
vt 0.31640625 0.0463562012
vt 0.31640625 0.0463562012
vt 0.31640625 0.102966309
vt 0.267822266 0.102966309
vt 0.357910156 0.0463562012
vt 0.357910156 0.0463562012
vt 0.357910156 0.105407715
vt 0.31640625 0.105407715
vt 0.522460938 0.0467834473
vt 0.573730469 0.0467834473
vt 0.539550781 0.0472106934
vt 0.622558594 0.0467834473
vt 0.317382812 0.653808594
vt 0.297851562 0.657226562
vt 0.297851562 0.672851562
vt 0.317382812 0.676269531
vt 0.29296875 0.687988281
vt 0.310546875 0.633300781
vt 0.29296875 0.642089844
vt 0.310546875 0.697265625
vt 0.283691406 0.701171875
vt 0.297607422 0.615234375
vt 0.283691406 0.629394531
vt 0.297607422 0.71484375
vt 0.270751953 0.710449219
vt 0.279785156 0.602050781
vt 0.270751953 0.619628906
vt 0.279785156 0.728027344
vt 0.255615234 0.715332031
vt 0.258789062 0.595214844
vt 0.255615234 0.614746094
vt 0.258789062 0.734863281
vt 0.239746094 0.715332031
vt 0.236694336 0.595214844
vt 0.239746094 0.614746094
vt 0.236694336 0.734863281
vt 0.224609375 0.710449219
vt 0.215698242 0.602050781
vt 0.224609375 0.619628906
vt 0.215698242 0.728027344
vt 0.211791992 0.701171875
vt 0.197753906 0.615234375
vt 0.211791992 0.629394531
vt 0.197753906 0.71484375
vt 0.202392578 0.687988281
vt 0.184814453 0.633300781
vt 0.202392578 0.642089844
vt 0.184814453 0.697265625
vt 0.197509766 0.672851562
vt 0.177978516 0.653808594
vt 0.197509766 0.657226562
vt 0.177978516 0.676269531
vt 0.178344727 0.595703125
vt 0.160400391 0.620605469
vt 0.150878906 0.649902344
vt 0.150878906 0.680175781
vt 0.160400391 0.709472656
vt 0.178344727 0.734375
vt 0.20324707 0.577636719
vt 0.20324707 0.752441406
vt 0.232421875 0.568359375
vt 0.232421875 0.76171875
vt 0.262939453 0.568359375
vt 0.262939453 0.76171875
vt 0.292236328 0.577636719
vt 0.292236328 0.752441406
vt 0.316894531 0.595703125
vt 0.316894531 0.734375
vt 0.334960938 0.620605469
vt 0.334960938 0.709472656
vt 0.344482422 0.649902344
vt 0.344482422 0.680175781
vt 0.301269531 0.560058594
vt 0.331054688 0.58203125
vt 0.266113281 0.548828125
vt 0.352539062 0.611816406
vt 0.364013672 0.646484375
vt 0.229248047 0.548828125
vt 0.364013672 0.68359375
vt 0.352539062 0.718261719
vt 0.194213867 0.560058594
vt 0.331054688 0.748046875
vt 0.164428711 0.58203125
vt 0.301269531 0.770019531
vt 0.142822266 0.611816406
vt 0.266113281 0.78125
vt 0.131347656 0.646484375
vt 0.229248047 0.78125
vt 0.131347656 0.68359375
vt 0.194213867 0.770019531
vt 0.142822266 0.718261719
vt 0.164428711 0.748046875
vt 0.267822266 0.533203125
vt 0.270996094 0.513183594
vt 0.222167969 0.513183594
vt 0.308105469 0.545898438
vt 0.225341797 0.533203125
vt 0.317626953 0.527832031
vt 0.17565918 0.527832031
vt 0.342529297 0.570800781
vt 0.185058594 0.545898438
vt 0.357177734 0.556152344
vt 0.136108398 0.556152344
vt 0.367431641 0.604492188
vt 0.150756836 0.570800781
vt 0.385986328 0.595214844
vt 0.107299805 0.595214844
vt 0.380615234 0.644042969
vt 0.125732422 0.604492188
vt 0.401123047 0.640625
vt 0.0922241211 0.640625
vt 0.380615234 0.685546875
vt 0.112609863 0.644042969
vt 0.401123047 0.688964844
vt 0.0922241211 0.688964844
vt 0.367431641 0.725585938
vt 0.112609863 0.685546875
vt 0.385986328 0.734863281
vt 0.107299805 0.734863281
vt 0.342529297 0.759277344
vt 0.125732422 0.725585938
vt 0.357177734 0.7734375
vt 0.136108398 0.7734375
vt 0.308105469 0.783691406
vt 0.150756836 0.759277344
vt 0.317626953 0.801757812
vt 0.17565918 0.801757812
vt 0.267822266 0.796386719
vt 0.185058594 0.783691406
vt 0.270996094 0.816894531
vt 0.222167969 0.816894531
vt 0.225341797 0.796386719
vt 0.272949219 0.5078125
vt 0.286865234 0.423583984
vt 0.206420898 0.423583984
vt 0.322753906 0.522949219
vt 0.220336914 0.5078125
vt 0.363525391 0.447265625
vt 0.129882812 0.447265625
vt 0.365234375 0.552246094
vt 0.170532227 0.522949219
vt 0.428466797 0.4921875
vt 0.0646972656 0.4921875
vt 0.395996094 0.592773438
vt 0.128051758 0.552246094
vt 0.475830078 0.554199219
vt 0.0174102783 0.554199219
vt 0.412353516 0.640136719
vt 0.0971679688 0.592773438
vt 0.500488281 0.626464844
vt -0.00746917725 0.626464844
vt 0.412353516 0.689941406
vt 0.0809936523 0.640136719
vt 0.500488281 0.703125
vt -0.00746917725 0.703125
vt 0.395996094 0.737304688
vt 0.0809936523 0.689941406
vt 0.475830078 0.775878906
vt 0.0174102783 0.775878906
vt 0.365234375 0.77734375
vt 0.0971679688 0.737304688
vt 0.428466797 0.837402344
vt 0.0646972656 0.837402344
vt 0.322753906 0.806640625
vt 0.128051758 0.77734375
vt 0.363525391 0.882324219
vt 0.129882812 0.882324219
vt 0.272949219 0.822265625
vt 0.170532227 0.806640625
vt 0.286865234 0.90625
vt 0.206420898 0.90625
vt 0.220336914 0.822265625
vn 7.15255737E-07 2.38418579E-07 1
vn 8.34465027E-07 5.96046448E-07 1
vn 4.17232513E-07 3.57627869E-07 1
vn 1.78813934E-07 1.1920929E-07 1
vn 4.17232513E-07 1.1920929E-07 1
vn 3.57627869E-07 5.36441803E-07 1
vn 4.17232513E-07 1.1920929E-07 1
vn 5.36441803E-07 1.1920929E-07 1
vn 5.36441803E-07 5.96046448E-07 1
vn 6.55651093E-07 2.98023224E-07 1
vn 4.76837158E-07 2.98023224E-07 1
vn 9.53674316E-07 5.96046448E-07 1
vn 7.15255737E-07 3.57627869E-07 1
vn 1.1920929E-07 1.1920929E-07 1
vn 4.76837158E-07 2.98023224E-07 1
vn 4.76837158E-07 -0.739257812 0.673339844
vn 0.228393555 -0.703125 -0.673339844
vn -0 -0.739257812 -0.673339844
vn 0.228393555 -0.703125 0.673339844
vn 0.434570312 -0.598144531 -0.673339844
vn 0.434570312 -0.598144531 0.673339844
vn 0.598144531 -0.434570312 -0.673339844
vn 0.598144531 -0.434570312 0.673339844
vn 0.703125 -0.228393555 -0.673339844
vn 0.703125 -0.228393555 0.673339844
vn 0.739257812 -1.1920929E-07 -0.673339844
vn 0.739257812 1.78813934E-07 0.673339844
vn 0.739257812 1.78813934E-07 0.673339844
vn 0.703125 0.228393555 -0.673339844
vn 0.739257812 -1.1920929E-07 -0.673339844
vn 0.703125 0.228393555 0.673339844
vn 0.598144531 0.434570312 -0.673339844
vn 0.598144531 0.434570312 0.673339844
vn 0.434570312 0.598144531 -0.673339844
vn 0.434570312 0.598144531 0.673339844
vn 0.228393555 0.703125 -0.673339844
vn 0.228393555 0.703125 0.673339844
vn -7.15255737E-07 0.739257812 -0.673339844
vn 2.38418579E-07 0.739257812 0.673339844
vn 2.38418579E-07 0.739257812 0.673339844
vn -0.228393555 0.703125 -0.673339844
vn -7.15255737E-07 0.739257812 -0.673339844
vn -0.228393555 0.703125 0.673339844
vn -0.434570312 0.598144531 -0.673339844
vn -0.434570312 0.598144531 0.673339844
vn -0.598144531 0.434570312 -0.673339844
vn -0.598144531 0.434570312 0.673339844
vn -0.703125 0.228393555 -0.673339844
vn -0.703125 0.228393555 0.673339844
vn -0.739257812 -1.01327896E-06 -0.673339844
vn -0.739257812 -4.17232513E-07 0.673339844
vn -0.739257812 -4.17232513E-07 0.673339844
vn -0.703125 -0.228393555 -0.673339844
vn -0.739257812 -1.01327896E-06 -0.673339844
vn -0.703125 -0.228393555 0.673339844
vn -0.598144531 -0.434570312 -0.673339844
vn -0.598144531 -0.434570312 0.673339844
vn -0.434570312 -0.598144531 -0.673339844
vn -0.434570312 -0.598144531 0.673339844
vn -0.228393555 -0.703125 -0.673339844
vn -0.228393555 -0.703125 0.673339844
vn -0 -0.739257812 -0.673339844
vn 4.76837158E-07 -0.739257812 0.673339844
vn 0.703125 -0.228393555 -0.673339844
vn 0.739257812 -2.98023224E-07 -0.673339844
vn 0.703125 0.228393555 -0.673339844
vn 0.598144531 0.434570312 -0.673339844
vn 0.598144531 -0.434570312 -0.673339844
vn 0.434570312 -0.598144531 -0.673339844
vn 0.434570312 0.598144531 -0.673339844
vn 0.228393555 -0.703125 -0.673339844
vn 0.228393555 0.703125 -0.673339844
vn -0 -0.739257812 -0.673339844
vn -4.76837158E-07 0.739257812 -0.673339844
vn -0.228393555 0.703125 -0.673339844
vn -0.228393555 -0.703125 -0.673339844
vn -0.434570312 -0.598144531 -0.673339844
vn -0.434570312 0.598144531 -0.673339844
vn -0.598144531 -0.434570312 -0.673339844
vn -0.598144531 0.434570312 -0.673339844
vn -0.703125 -0.228393555 -0.673339844
vn -0.703125 0.228393555 -0.673339844
vn -0.739257812 -8.34465027E-07 -0.673339844
vn 0.206420898 -0.635253906 -0.744140625
vn -1.1920929E-07 -0.739257812 -0.673339844
vn -2.38418579E-07 -0.66796875 -0.744140625
vn 0.228393555 -0.703125 -0.673339844
vn 0.392578125 -0.540527344 -0.744140625
vn 0.434570312 -0.598144531 -0.673339844
vn 0.540527344 -0.392578125 -0.744140625
vn 0.598144531 -0.434570312 -0.673339844
vn 0.635253906 -0.206420898 -0.744140625
vn 0.703125 -0.228393555 -0.673339844
vn 0.66796875 0 -0.744140625
vn 0.739257812 4.17232513E-07 -0.673339844
vn -4.76837158E-07 0.739257812 -0.673339844
vn -6.55651093E-07 0.66796875 -0.744140625
vn -0.206420898 0.635253906 -0.744140625
vn -0.228393555 0.703125 -0.673339844
vn -0.392822266 0.540527344 -0.744140625
vn -0.434570312 0.598144531 -0.673339844
vn -0.540527344 0.392578125 -0.744140625
vn -0.598144531 0.434570312 -0.673339844
vn -0.635253906 0.206420898 -0.744140625
vn -0.703125 0.228393555 -0.673339844
vn -0.66796875 -8.34465027E-07 -0.744140625
vn -0.739257812 -8.34465027E-07 -0.673339844
vn -2.38418579E-07 -0.66796875 -0.744140625
vn -1.1920929E-07 -0.739257812 -0.673339844
vn -0.228393555 -0.703125 -0.673339844
vn -0.206420898 -0.635253906 -0.744140625
vn -0.434570312 -0.598144531 -0.673339844
vn -0.392578125 -0.540527344 -0.744140625
vn -0.598144531 -0.434570312 -0.673339844
vn -0.540527344 -0.392578125 -0.744140625
vn -0.703125 -0.228393555 -0.673339844
vn -0.635253906 -0.206420898 -0.744140625
vn -0.739257812 -2.38418579E-07 -0.673339844
vn -0.66796875 -1.78813934E-07 -0.744140625
vn 0.228393555 0.703125 -0.673339844
vn -6.55651093E-07 0.66796875 -0.744140625
vn -4.76837158E-07 0.739257812 -0.673339844
vn 0.206420898 0.635253906 -0.744140625
vn 0.434570312 0.598144531 -0.673339844
vn 0.392578125 0.540527344 -0.744140625
vn 0.598144531 0.434570312 -0.673339844
vn 0.540527344 0.392578125 -0.744140625
vn 0.703125 0.228393555 -0.673339844
vn 0.635253906 0.206420898 -0.744140625
vn 0.739257812 -2.98023224E-07 -0.673339844
vn 0.66796875 -3.57627869E-07 -0.744140625
vn -7.15255737E-07 0.66796875 -0.744140625
vn -5.96046448E-07 0.739257812 -0.673339844
vn 0.228393555 0.703125 -0.673339844
vn 0.206420898 0.635253906 -0.744140625
vn 0.434570312 0.598144531 -0.673339844
vn 0.392578125 0.540527344 -0.744140625
vn 0.598144531 0.434570312 -0.673339844
vn 0.540527344 0.392822266 -0.744140625
vn 0.703125 0.228393555 -0.673339844
vn 0.635253906 0.206420898 -0.744140625
vn 0.739257812 4.17232513E-07 -0.673339844
vn 0.66796875 0 -0.744140625
vn -0.228393555 -0.703125 -0.673339844
vn -1.78813934E-07 -0.66796875 -0.744140625
vn -0 -0.739257812 -0.673339844
vn -0.206420898 -0.635253906 -0.744140625
vn -0.434570312 -0.598144531 -0.673339844
vn -0.392578125 -0.540527344 -0.744140625
vn -0.598144531 -0.434570312 -0.673339844
vn -0.540527344 -0.392822266 -0.744140625
vn -0.703125 -0.228393555 -0.673339844
vn -0.635253906 -0.206420898 -0.744140625
vn -0.739257812 -8.34465027E-07 -0.673339844
vn -0.66796875 -8.34465027E-07 -0.744140625
vn -0.66796875 -1.78813934E-07 -0.744140625
vn -0.739257812 -2.38418579E-07 -0.673339844
vn -0.703125 0.228393555 -0.673339844
vn -0.635253906 0.206420898 -0.744140625
vn -0.598144531 0.434570312 -0.673339844
vn -0.540527344 0.392578125 -0.744140625
vn -0.434570312 0.598144531 -0.673339844
vn -0.392578125 0.540527344 -0.744140625
vn -0.228393555 0.703125 -0.673339844
vn -0.206420898 0.635253906 -0.744140625
vn -5.96046448E-07 0.739257812 -0.673339844
vn -7.15255737E-07 0.66796875 -0.744140625
vn 0.703125 -0.228393555 -0.673339844
vn 0.66796875 -3.57627869E-07 -0.744140625
vn 0.739257812 -2.98023224E-07 -0.673339844
vn 0.635253906 -0.206420898 -0.744140625
vn 0.598144531 -0.434570312 -0.673339844
vn 0.540527344 -0.392578125 -0.744140625
vn 0.434570312 -0.598144531 -0.673339844
vn 0.392578125 -0.540527344 -0.744140625
vn 0.228393555 -0.703125 -0.673339844
vn 0.206420898 -0.635253906 -0.744140625
vn -0 -0.739257812 -0.673339844
vn -1.78813934E-07 -0.66796875 -0.744140625
vn 0.703125 -0.228393555 0.673339844
vn 4.76837158E-07 2.98023224E-07 1
vn 0.739257812 1.78813934E-07 0.673339844
vn 4.76837158E-07 1.78813934E-07 1
vn 7.15255737E-07 3.57627869E-07 1
vn 7.15255737E-07 2.38418579E-07 1
vn 8.94069672E-07 5.36441803E-07 1
vn 8.34465027E-07 5.96046448E-07 1
vn 0.598144531 -0.434570312 0.673339844
vn 0.703125 -0.228393555 0.673339844
vn 6.55651093E-07 2.98023224E-07 1
vn 4.76837158E-07 4.76837158E-07 1
vn 0.434570312 -0.598144531 0.673339844
vn 0.598144531 -0.434570312 0.673339844
vn 2.98023224E-07 0 1
vn 1.78813934E-07 1.1920929E-07 1
vn 0.228393555 -0.703125 0.673339844
vn 0.434570312 -0.598144531 0.673339844
vn 3.57627869E-07 3.57627869E-07 1
vn 4.17232513E-07 1.1920929E-07 1
vn 4.76837158E-07 -0.739257812 0.673339844
vn 0.228393555 -0.703125 0.673339844
vn 5.96046448E-07 4.17232513E-07 1
vn 3.57627869E-07 3.57627869E-07 1
vn 5.36441803E-07 1.1920929E-07 1
vn -0.228393555 -0.703125 0.673339844
vn 4.76837158E-07 -0.739257812 0.673339844
vn 5.96046448E-07 4.17232513E-07 1
vn -0.434570312 -0.598144531 0.673339844
vn -0.228393555 -0.703125 0.673339844
vn 6.55651093E-07 2.98023224E-07 1
vn 9.53674316E-07 5.96046448E-07 1
vn 5.36441803E-07 5.96046448E-07 1
vn 5.36441803E-07 4.17232513E-07 1
vn -0.598144531 -0.434570312 0.673339844
vn -0.434570312 -0.598144531 0.673339844
vn 7.15255737E-07 3.57627869E-07 1
vn 4.76837158E-07 2.98023224E-07 1
vn 7.15255737E-07 2.38418579E-07 1
vn -0.703125 -0.228393555 0.673339844
vn -0.598144531 -0.434570312 0.673339844
vn 7.74860382E-07 2.38418579E-07 1
vn 1.1920929E-07 1.1920929E-07 1
vn 7.15255737E-07 4.76837158E-07 1
vn 7.15255737E-07 3.57627869E-07 1
vn -0.739257812 -4.17232513E-07 0.673339844
vn -0.703125 -0.228393555 0.673339844
vn 0.228393555 0.703125 0.673339844
vn 7.15255737E-07 4.17232513E-07 1
vn 2.38418579E-07 0.739257812 0.673339844
vn 3.57627869E-07 3.57627869E-07 1
vn 5.36441803E-07 5.96046448E-07 1
vn 3.57627869E-07 5.36441803E-07 1
vn 4.17232513E-07 1.1920929E-07 1
vn 5.96046448E-07 2.38418579E-07 1
vn 0.434570312 0.598144531 0.673339844
vn 0.228393555 0.703125 0.673339844
vn 7.74860382E-07 2.38418579E-07 1
vn 1.78813934E-07 1.1920929E-07 1
vn 5.36441803E-07 1.1920929E-07 1
vn 0.598144531 0.434570312 0.673339844
vn 0.434570312 0.598144531 0.673339844
vn 4.76837158E-07 0 1
vn 8.34465027E-07 5.96046448E-07 1
vn 4.17232513E-07 3.57627869E-07 1
vn 5.96046448E-07 4.17232513E-07 1
vn 0.703125 0.228393555 0.673339844
vn 0.598144531 0.434570312 0.673339844
vn 4.76837158E-07 2.98023224E-07 1
vn 0.739257812 1.78813934E-07 0.673339844
vn 0.703125 0.228393555 0.673339844
vn 7.15255737E-07 3.57627869E-07 1
vn 7.15255737E-07 2.38418579E-07 1
vn -0.703125 0.228393555 0.673339844
vn 7.15255737E-07 4.76837158E-07 1
vn -0.739257812 -4.17232513E-07 0.673339844
vn 4.76837158E-07 4.76837158E-07 1
vn 7.15255737E-07 3.57627869E-07 1
vn 2.98023224E-07 3.57627869E-07 1
vn 7.74860382E-07 2.38418579E-07 1
vn 1.1920929E-07 1.1920929E-07 1
vn -0.598144531 0.434570312 0.673339844
vn -0.703125 0.228393555 0.673339844
vn -0 0 1
vn 2.98023224E-07 3.57627869E-07 1
vn 1.1920929E-07 1.1920929E-07 1
vn 4.17232513E-07 2.98023224E-07 1
vn 4.76837158E-07 2.98023224E-07 1
vn -0.434570312 0.598144531 0.673339844
vn -0.598144531 0.434570312 0.673339844
vn 1.25169754E-06 5.36441803E-07 1
vn 9.53674316E-07 5.96046448E-07 1
vn -0.228393555 0.703125 0.673339844
vn -0.434570312 0.598144531 0.673339844
vn 7.15255737E-07 4.17232513E-07 1
vn 5.36441803E-07 5.96046448E-07 1
vn 2.38418579E-07 0.739257812 0.673339844
vn -0.228393555 0.703125 0.673339844
vn 8.34465027E-07 5.96046448E-07 1
vn 4.76837158E-07 4.76837158E-07 1
vn 7.74860382E-07 2.38418579E-07 1
vn 1.78813934E-07 1.1920929E-07 1
vn -5.96046448E-07 -2.98023224E-07 -1
vn -0.206420898 -0.635253906 -0.744140625
vn -0.392578125 -0.540527344 -0.744140625
vn -6.55651093E-07 -2.98023224E-07 -1
vn -0.540527344 -0.392822266 -0.744140625
vn -4.76837158E-07 -3.57627869E-07 -1
vn -1.78813934E-07 -0.66796875 -0.744140625
vn -5.36441803E-07 -4.17232513E-07 -1
vn -0.635253906 -0.206420898 -0.744140625
vn -5.36441803E-07 -3.57627869E-07 -1
vn 0.206420898 -0.635253906 -0.744140625
vn -5.36441803E-07 -4.17232513E-07 -1
vn -0.66796875 -8.34465027E-07 -0.744140625
vn -5.36441803E-07 -2.98023224E-07 -1
vn 0.392578125 -0.540527344 -0.744140625
vn -5.36441803E-07 -2.98023224E-07 -1
vn -0.635253906 0.206420898 -0.744140625
vn -5.36441803E-07 -1.78813934E-07 -1
vn 0.540527344 -0.392578125 -0.744140625
vn -5.36441803E-07 -2.98023224E-07 -1
vn -0.540527344 0.392578125 -0.744140625
vn -5.36441803E-07 -2.38418579E-07 -1
vn 0.635253906 -0.206420898 -0.744140625
vn -4.17232513E-07 -3.57627869E-07 -1
vn -0.392822266 0.540527344 -0.744140625
vn -4.76837158E-07 -3.57627869E-07 -1
vn 0.66796875 -3.57627869E-07 -0.744140625
vn -4.76837158E-07 -2.98023224E-07 -1
vn -0.206420898 0.635253906 -0.744140625
vn -4.76837158E-07 -2.98023224E-07 -1
vn 0.635253906 0.206420898 -0.744140625
vn -5.96046448E-07 -2.38418579E-07 -1
vn -6.55651093E-07 0.66796875 -0.744140625
vn -5.36441803E-07 -1.78813934E-07 -1
vn 0.540527344 0.392578125 -0.744140625
vn -5.96046448E-07 -1.78813934E-07 -1
vn 0.206420898 0.635253906 -0.744140625
vn -4.17232513E-07 -2.38418579E-07 -1
vn 0.392578125 0.540527344 -0.744140625
vn -4.17232513E-07 -2.38418579E-07 -1
vn -5.36441803E-07 -3.57627869E-07 -1
vn -6.55651093E-07 -4.17232513E-07 -1
vn -6.55651093E-07 -4.17232513E-07 -1
vn -5.96046448E-07 -3.57627869E-07 -1
vn -6.55651093E-07 -2.38418579E-07 -1
vn -5.36441803E-07 -1.78813934E-07 -1
vn -5.36441803E-07 -2.98023224E-07 -1
vn -4.17232513E-07 -2.38418579E-07 -1
vn -5.96046448E-07 -1.78813934E-07 -1
vn -5.36441803E-07 -3.57627869E-07 -1
vn -5.96046448E-07 -2.38418579E-07 -1
vn -5.36441803E-07 -3.57627869E-07 -1
vn -5.96046448E-07 -4.17232513E-07 -1
vn -5.36441803E-07 -2.38418579E-07 -1
vn -5.36441803E-07 -4.17232513E-07 -1
vn -4.76837158E-07 -3.57627869E-07 -1
vn -4.76837158E-07 -4.76837158E-07 -1
vn -4.17232513E-07 -2.98023224E-07 -1
vn -5.36441803E-07 -4.17232513E-07 -1
vn -5.36441803E-07 -2.38418579E-07 -1
vn -0.434570312 0.598144531 -0.673339844
vn -0.228393555 0.703125 -0.673339844
vn -0.598144531 0.434570312 -0.673339844
vn -5.96046448E-07 0.739257812 -0.673339844
vn 0.228393555 0.703125 -0.673339844
vn -0.703125 0.228393555 -0.673339844
vn 0.434570312 0.598144531 -0.673339844
vn 0.598144531 0.434570312 -0.673339844
vn -0.739257812 -2.38418579E-07 -0.673339844
vn 0.703125 0.228393555 -0.673339844
vn -0.703125 -0.228393555 -0.673339844
vn 0.739257812 4.17232513E-07 -0.673339844
vn -0.598144531 -0.434570312 -0.673339844
vn 0.703125 -0.228393555 -0.673339844
vn -0.434570312 -0.598144531 -0.673339844
vn 0.598144531 -0.434570312 -0.673339844
vn -0.228393555 -0.703125 -0.673339844
vn 0.434570312 -0.598144531 -0.673339844
vn -1.1920929E-07 -0.739257812 -0.673339844
vn 0.228393555 -0.703125 -0.673339844
vn 0.392578125 0.540527344 -0.744140625
vn -7.15255737E-07 -3.57627869E-07 -1
vn -6.55651093E-07 -4.76837158E-07 -1
vn 0.540527344 0.392822266 -0.744140625
vn 0.206420898 0.635253906 -0.744140625
vn -4.76837158E-07 -1.78813934E-07 -1
vn -5.36441803E-07 -3.57627869E-07 -1
vn 0.635253906 0.206420898 -0.744140625
vn -7.15255737E-07 0.66796875 -0.744140625
vn -4.17232513E-07 -2.38418579E-07 -1
vn -4.76837158E-07 -3.57627869E-07 -1
vn 0.66796875 0 -0.744140625
vn -0.206420898 0.635253906 -0.744140625
vn -6.55651093E-07 -5.36441803E-07 -1
vn -5.36441803E-07 -2.38418579E-07 -1
vn 0.635253906 -0.206420898 -0.744140625
vn -0.392578125 0.540527344 -0.744140625
vn -5.96046448E-07 -4.17232513E-07 -1
vn -6.55651093E-07 -2.38418579E-07 -1
vn 0.540527344 -0.392578125 -0.744140625
vn -0.540527344 0.392578125 -0.744140625
vn -4.17232513E-07 -2.38418579E-07 -1
vn -5.36441803E-07 -2.38418579E-07 -1
vn 0.392578125 -0.540527344 -0.744140625
vn -0.635253906 0.206420898 -0.744140625
vn -4.17232513E-07 -2.98023224E-07 -1
vn -4.76837158E-07 -2.38418579E-07 -1
vn 0.206420898 -0.635253906 -0.744140625
vn -0.66796875 -1.78813934E-07 -0.744140625
vn -5.36441803E-07 -2.38418579E-07 -1
vn -5.96046448E-07 -3.57627869E-07 -1
vn -2.38418579E-07 -0.66796875 -0.744140625
vn -0.635253906 -0.206420898 -0.744140625
vn -6.55651093E-07 -1.78813934E-07 -1
vn -5.96046448E-07 -2.98023224E-07 -1
vn -0.206420898 -0.635253906 -0.744140625
vn -0.540527344 -0.392578125 -0.744140625
vn -4.17232513E-07 -2.38418579E-07 -1
vn -3.57627869E-07 -2.98023224E-07 -1
vn -0.392578125 -0.540527344 -0.744140625
vn -7.15255737E-07 -3.57627869E-07 -1
vn -0.434570312 -0.598144531 -0.673339844
vn -0.228393555 -0.703125 -0.673339844
vn -4.76837158E-07 -1.78813934E-07 -1
vn -6.55651093E-07 -4.76837158E-07 -1
vn -0.598144531 -0.434570312 -0.673339844
vn -0 -0.739257812 -0.673339844
vn -4.17232513E-07 -2.38418579E-07 -1
vn -5.36441803E-07 -3.57627869E-07 -1
vn -0.703125 -0.228393555 -0.673339844
vn 0.228393555 -0.703125 -0.673339844
vn -6.55651093E-07 -5.36441803E-07 -1
vn -4.76837158E-07 -3.57627869E-07 -1
vn -0.739257812 -1.01327896E-06 -0.673339844
vn 0.434570312 -0.598144531 -0.673339844
vn -5.96046448E-07 -4.17232513E-07 -1
vn -5.36441803E-07 -2.38418579E-07 -1
vn -0.703125 0.228393555 -0.673339844
vn 0.598144531 -0.434570312 -0.673339844
vn -4.17232513E-07 -2.38418579E-07 -1
vn -6.55651093E-07 -2.38418579E-07 -1
vn -0.598144531 0.434570312 -0.673339844
vn 0.703125 -0.228393555 -0.673339844
vn -4.17232513E-07 -2.98023224E-07 -1
vn -5.36441803E-07 -2.38418579E-07 -1
vn -0.434570312 0.598144531 -0.673339844
vn 0.739257812 -1.1920929E-07 -0.673339844
vn -5.36441803E-07 -2.38418579E-07 -1
vn -4.76837158E-07 -2.38418579E-07 -1
vn -0.228393555 0.703125 -0.673339844
vn 0.703125 0.228393555 -0.673339844
vn -6.55651093E-07 -1.78813934E-07 -1
vn -5.96046448E-07 -3.57627869E-07 -1
vn -7.15255737E-07 0.739257812 -0.673339844
vn 0.598144531 0.434570312 -0.673339844
vn -4.17232513E-07 -2.38418579E-07 -1
vn -5.96046448E-07 -2.98023224E-07 -1
vn 0.228393555 0.703125 -0.673339844
vn 0.434570312 0.598144531 -0.673339844
vn -3.57627869E-07 -2.98023224E-07 -1
g Wheel.Rear.Right_0
f 3/3/3 2/2/2 1/1/1
f 6/6/6 5/5/5 4/4/4
f 9/9/9 8/8/8 7/7/7
f 12/12/12 11/11/11 10/10/10
f 15/15/15 14/14/14 13/13/13
f 18/18/18 17/17/17 16/16/16
f 17/17/17 19/19/19 16/16/16
f 17/17/17 20/20/20 19/19/19
f 20/20/20 21/21/21 19/19/19
f 20/20/20 22/22/22 21/21/21
f 22/22/22 23/23/23 21/21/21
f 22/22/22 24/24/24 23/23/23
f 24/24/24 25/25/25 23/23/23
f 24/24/24 26/26/26 25/25/25
f 26/26/26 27/27/27 25/25/25
f 30/30/30 29/29/29 28/28/28
f 29/29/29 31/31/31 28/28/28
f 29/29/29 32/32/32 31/31/31
f 32/32/32 33/33/33 31/31/31
f 32/32/32 34/34/34 33/33/33
f 34/34/34 35/35/35 33/33/33
f 34/34/34 36/36/36 35/35/35
f 36/36/36 37/37/37 35/35/35
f 36/36/36 38/38/38 37/37/37
f 38/38/38 39/39/39 37/37/37
f 42/42/42 41/41/41 40/40/40
f 41/41/41 43/43/43 40/40/40
f 41/41/41 44/44/44 43/43/43
f 44/44/44 45/45/45 43/43/43
f 44/44/44 46/46/46 45/45/45
f 46/46/46 47/47/47 45/45/45
f 46/46/46 48/48/48 47/47/47
f 48/48/48 49/49/49 47/47/47
f 48/48/48 50/50/50 49/49/49
f 50/50/50 51/51/51 49/49/49
f 54/54/54 53/53/53 52/52/52
f 53/53/53 55/55/55 52/52/52
f 53/53/53 56/56/56 55/55/55
f 56/56/56 57/57/57 55/55/55
f 56/56/56 58/58/58 57/57/57
f 58/58/58 59/59/59 57/57/57
f 58/58/58 60/60/60 59/59/59
f 60/60/60 61/61/61 59/59/59
f 60/60/60 62/62/62 61/61/61
f 62/62/62 63/63/63 61/61/61
f 66/66/66 65/65/65 64/64/64
f 64/64/64 67/67/67 66/66/66
f 64/64/64 68/68/68 67/67/67
f 68/68/68 69/69/69 67/67/67
f 69/69/69 70/70/70 67/67/67
f 69/69/69 71/71/71 70/70/70
f 71/71/71 72/72/72 70/70/70
f 71/71/71 73/73/73 72/72/72
f 73/73/73 74/74/74 72/72/72
f 73/73/73 75/75/75 74/74/74
f 73/73/73 76/76/76 75/75/75
f 76/76/76 77/77/77 75/75/75
f 77/77/77 78/78/78 75/75/75
f 77/77/77 79/79/79 78/78/78
f 79/79/79 80/80/80 78/78/78
f 79/79/79 81/81/81 80/80/80
f 81/81/81 82/82/82 80/80/80
f 81/81/81 83/83/83 82/82/82
f 86/86/86 85/85/85 84/84/84
f 85/85/85 87/87/87 84/84/84
f 84/84/84 87/87/87 88/88/88
f 87/87/87 89/89/89 88/88/88
f 88/88/88 89/89/89 90/90/90
f 89/89/89 91/91/91 90/90/90
f 90/90/90 91/91/91 92/92/92
f 91/91/91 93/93/93 92/92/92
f 92/92/92 93/93/93 94/94/94
f 93/93/93 95/95/95 94/94/94
f 98/98/98 97/97/97 96/96/96
f 99/99/99 98/98/98 96/96/96
f 100/100/100 98/98/98 99/99/99
f 101/101/101 100/100/100 99/99/99
f 102/102/102 100/100/100 101/101/101
f 103/103/103 102/102/102 101/101/101
f 104/104/104 102/102/102 103/103/103
f 105/105/105 104/104/104 103/103/103
f 106/106/106 104/104/104 105/105/105
f 107/107/107 106/106/106 105/105/105
f 110/110/110 109/109/109 108/108/108
f 111/111/111 110/110/110 108/108/108
f 112/112/112 110/110/110 111/111/111
f 113/113/113 112/112/112 111/111/111
f 114/114/114 112/112/112 113/113/113
f 115/115/115 114/114/114 113/113/113
f 116/116/116 114/114/114 115/115/115
f 117/117/117 116/116/116 115/115/115
f 118/118/118 116/116/116 117/117/117
f 119/119/119 118/118/118 117/117/117
f 122/122/122 121/121/121 120/120/120
f 121/121/121 123/123/123 120/120/120
f 120/120/120 123/123/123 124/124/124
f 123/123/123 125/125/125 124/124/124
f 124/124/124 125/125/125 126/126/126
f 125/125/125 127/127/127 126/126/126
f 126/126/126 127/127/127 128/128/128
f 127/127/127 129/129/129 128/128/128
f 128/128/128 129/129/129 130/130/130
f 129/129/129 131/131/131 130/130/130
f 134/134/134 133/133/133 132/132/132
f 135/135/135 134/134/134 132/132/132
f 136/136/136 134/134/134 135/135/135
f 137/137/137 136/136/136 135/135/135
f 138/138/138 136/136/136 137/137/137
f 139/139/139 138/138/138 137/137/137
f 140/140/140 138/138/138 139/139/139
f 141/141/141 140/140/140 139/139/139
f 142/142/142 140/140/140 141/141/141
f 143/143/143 142/142/142 141/141/141
f 146/146/146 145/145/145 144/144/144
f 145/145/145 147/147/147 144/144/144
f 144/144/144 147/147/147 148/148/148
f 147/147/147 149/149/149 148/148/148
f 148/148/148 149/149/149 150/150/150
f 149/149/149 151/151/151 150/150/150
f 150/150/150 151/151/151 152/152/152
f 151/151/151 153/153/153 152/152/152
f 152/152/152 153/153/153 154/154/154
f 153/153/153 155/155/155 154/154/154
f 158/158/158 157/157/157 156/156/156
f 159/159/159 158/158/158 156/156/156
f 160/160/160 158/158/158 159/159/159
f 161/161/161 160/160/160 159/159/159
f 162/162/162 160/160/160 161/161/161
f 163/163/163 162/162/162 161/161/161
f 164/164/164 162/162/162 163/163/163
f 165/165/165 164/164/164 163/163/163
f 166/166/166 164/164/164 165/165/165
f 167/167/167 166/166/166 165/165/165
f 170/170/170 169/169/169 168/168/168
f 169/169/169 171/171/171 168/168/168
f 168/168/168 171/171/171 172/172/172
f 171/171/171 173/173/173 172/172/172
f 172/172/172 173/173/173 174/174/174
f 173/173/173 175/175/175 174/174/174
f 174/174/174 175/175/175 176/176/176
f 175/175/175 177/177/177 176/176/176
f 176/176/176 177/177/177 178/178/178
f 177/177/177 179/179/179 178/178/178
f 182/182/182 181/181/181 180/180/180
f 181/181/181 183/183/183 180/180/180
f 181/181/181 184/184/184 183/183/183
f 184/184/184 185/185/185 183/183/183
f 183/183/183 185/185/185 186/186/186
f 185/185/185 187/187/187 186/186/186
f 183/183/183 186/186/186 188/188/188
f 189/189/189 183/183/183 188/188/188
f 186/186/186 187/187/187 190/190/190
f 187/187/187 191/191/191 190/190/190
f 186/186/186 190/190/190 192/192/192
f 193/193/193 186/186/186 192/192/192
f 190/190/190 191/191/191 194/194/194
f 191/191/191 195/195/195 194/194/194
f 190/190/190 194/194/194 196/196/196
f 197/197/197 190/190/190 196/196/196
f 194/194/194 195/195/195 198/198/198
f 195/195/195 199/199/199 198/198/198
f 194/194/194 198/198/198 200/200/200
f 201/201/201 194/194/194 200/200/200
f 203/203/203 199/199/199 202/202/202
f 199/199/199 204/204/204 202/202/202
f 203/203/203 202/202/202 205/205/205
f 206/206/206 203/203/203 205/205/205
f 202/202/202 204/204/204 207/207/207
f 202/202/202 207/207/207 208/208/208
f 209/209/209 202/202/202 208/208/208
f 204/204/204 210/210/210 207/207/207
f 211/211/211 210/210/210 204/204/204
f 212/212/212 211/211/211 204/204/204
f 207/207/207 210/210/210 213/213/213
f 207/207/207 213/213/213 214/214/214
f 215/215/215 207/207/207 214/214/214
f 210/210/210 216/216/216 213/213/213
f 217/217/217 216/216/216 210/210/210
f 213/213/213 216/216/216 218/218/218
f 213/213/213 218/218/218 219/219/219
f 220/220/220 213/213/213 219/219/219
f 216/216/216 221/221/221 218/218/218
f 222/222/222 221/221/221 216/216/216
f 218/218/218 221/221/221 223/223/223
f 221/221/221 224/224/224 223/223/223
f 218/218/218 223/223/223 225/225/225
f 226/226/226 218/218/218 225/225/225
f 229/229/229 228/228/228 227/227/227
f 228/228/228 230/230/230 227/227/227
f 228/228/228 231/231/231 230/230/230
f 231/231/231 232/232/232 230/230/230
f 232/232/232 231/231/231 233/233/233
f 230/230/230 232/232/232 234/234/234
f 230/230/230 234/234/234 235/235/235
f 236/236/236 230/230/230 235/235/235
f 232/232/232 237/237/237 234/234/234
f 237/237/237 232/232/232 238/238/238
f 234/234/234 237/237/237 239/239/239
f 234/234/234 239/239/239 240/240/240
f 241/241/241 234/234/234 240/240/240
f 237/237/237 242/242/242 239/239/239
f 242/242/242 237/237/237 243/243/243
f 244/244/244 242/242/242 243/243/243
f 239/239/239 242/242/242 245/245/245
f 242/242/242 244/244/244 245/245/245
f 239/239/239 245/245/245 246/246/246
f 247/247/247 239/239/239 246/246/246
f 245/245/245 244/244/244 248/248/248
f 245/245/245 248/248/248 249/249/249
f 250/250/250 245/245/245 249/249/249
f 244/244/244 251/251/251 248/248/248
f 252/252/252 251/251/251 244/244/244
f 255/255/255 254/254/254 253/253/253
f 254/254/254 256/256/256 253/253/253
f 254/254/254 257/257/257 256/256/256
f 257/257/257 258/258/258 256/256/256
f 258/258/258 257/257/257 259/259/259
f 260/260/260 258/258/258 259/259/259
f 262/262/262 256/256/256 261/261/261
f 256/256/256 263/263/263 261/261/261
f 256/256/256 264/264/264 263/263/263
f 264/264/264 265/265/265 263/263/263
f 263/263/263 265/265/265 266/266/266
f 265/265/265 267/267/267 266/266/266
f 263/263/263 266/266/266 268/268/268
f 269/269/269 263/263/263 268/268/268
f 266/266/266 267/267/267 270/270/270
f 267/267/267 271/271/271 270/270/270
f 266/266/266 270/270/270 272/272/272
f 273/273/273 266/266/266 272/272/272
f 270/270/270 271/271/271 274/274/274
f 271/271/271 275/275/275 274/274/274
f 270/270/270 274/274/274 276/276/276
f 277/277/277 270/270/270 276/276/276
f 280/280/280 279/279/279 278/278/278
f 280/280/280 281/281/281 279/279/279
f 284/284/284 283/283/283 282/282/282
f 285/285/285 284/284/284 282/282/282
f 286/286/286 284/284/284 285/285/285
f 282/282/282 283/283/283 287/287/287
f 283/283/283 288/288/288 287/287/287
f 289/289/289 286/286/286 285/285/285
f 290/290/290 286/286/286 289/289/289
f 287/287/287 288/288/288 291/291/291
f 288/288/288 292/292/292 291/291/291
f 293/293/293 290/290/290 289/289/289
f 294/294/294 290/290/290 293/293/293
f 291/291/291 292/292/292 295/295/295
f 292/292/292 296/296/296 295/295/295
f 297/297/297 294/294/294 293/293/293
f 298/298/298 294/294/294 297/297/297
f 295/295/295 296/296/296 299/299/299
f 296/296/296 300/300/300 299/299/299
f 301/301/301 298/298/298 297/297/297
f 302/302/302 298/298/298 301/301/301
f 299/299/299 300/300/300 303/303/303
f 300/300/300 304/304/304 303/303/303
f 305/305/305 302/302/302 301/301/301
f 306/306/306 302/302/302 305/305/305
f 303/303/303 304/304/304 307/307/307
f 304/304/304 308/308/308 307/307/307
f 309/309/309 306/306/306 305/305/305
f 310/310/310 306/306/306 309/309/309
f 307/307/307 308/308/308 311/311/311
f 308/308/308 312/312/312 311/311/311
f 313/313/313 310/310/310 309/309/309
f 314/314/314 310/310/310 313/313/313
f 311/311/311 312/312/312 315/315/315
f 312/312/312 316/316/316 315/315/315
f 317/317/317 314/314/314 313/313/313
f 318/318/318 314/314/314 317/317/317
f 315/315/315 316/316/316 319/319/319
f 316/316/316 320/320/320 319/319/319
f 320/320/320 318/318/318 321/321/321
f 321/321/321 318/318/318 317/317/317
f 319/319/319 320/320/320 321/321/321
f 311/311/311 322/322/322 307/307/307
f 315/315/315 323/323/323 311/311/311
f 323/323/323 322/322/322 311/311/311
f 319/319/319 324/324/324 315/315/315
f 324/324/324 323/323/323 315/315/315
f 321/321/321 325/325/325 319/319/319
f 325/325/325 324/324/324 319/319/319
f 317/317/317 326/326/326 321/321/321
f 326/326/326 325/325/325 321/321/321
f 313/313/313 327/327/327 317/317/317
f 327/327/327 326/326/326 317/317/317
f 322/322/322 328/328/328 307/307/307
f 307/307/307 328/328/328 303/303/303
f 329/329/329 327/327/327 313/313/313
f 309/309/309 329/329/329 313/313/313
f 328/328/328 330/330/330 303/303/303
f 303/303/303 330/330/330 299/299/299
f 331/331/331 329/329/329 309/309/309
f 305/305/305 331/331/331 309/309/309
f 330/330/330 332/332/332 299/299/299
f 299/299/299 332/332/332 295/295/295
f 333/333/333 331/331/331 305/305/305
f 301/301/301 333/333/333 305/305/305
f 332/332/332 334/334/334 295/295/295
f 295/295/295 334/334/334 291/291/291
f 335/335/335 333/333/333 301/301/301
f 297/297/297 335/335/335 301/301/301
f 334/334/334 336/336/336 291/291/291
f 291/291/291 336/336/336 287/287/287
f 337/337/337 335/335/335 297/297/297
f 293/293/293 337/337/337 297/297/297
f 336/336/336 338/338/338 287/287/287
f 287/287/287 338/338/338 282/282/282
f 339/339/339 337/337/337 293/293/293
f 289/289/289 339/339/339 293/293/293
f 338/338/338 340/340/340 282/282/282
f 282/282/282 340/340/340 285/285/285
f 285/285/285 341/341/341 289/289/289
f 341/341/341 339/339/339 289/289/289
f 340/340/340 341/341/341 285/285/285
f 334/334/334 342/342/342 336/336/336
f 342/342/342 343/343/343 336/336/336
f 336/336/336 343/343/343 338/338/338
f 344/344/344 342/342/342 334/334/334
f 343/343/343 345/345/345 338/338/338
f 338/338/338 345/345/345 340/340/340
f 332/332/332 344/344/344 334/334/334
f 345/345/345 346/346/346 340/340/340
f 340/340/340 346/346/346 341/341/341
f 347/347/347 344/344/344 332/332/332
f 346/346/346 348/348/348 341/341/341
f 341/341/341 348/348/348 339/339/339
f 330/330/330 347/347/347 332/332/332
f 348/348/348 349/349/349 339/339/339
f 350/350/350 347/347/347 330/330/330
f 339/339/339 349/349/349 337/337/337
f 328/328/328 350/350/350 330/330/330
f 349/349/349 351/351/351 337/337/337
f 352/352/352 350/350/350 328/328/328
f 337/337/337 351/351/351 335/335/335
f 322/322/322 352/352/352 328/328/328
f 351/351/351 353/353/353 335/335/335
f 354/354/354 352/352/352 322/322/322
f 335/335/335 353/353/353 333/333/333
f 323/323/323 354/354/354 322/322/322
f 353/353/353 355/355/355 333/333/333
f 356/356/356 354/354/354 323/323/323
f 333/333/333 355/355/355 331/331/331
f 324/324/324 356/356/356 323/323/323
f 355/355/355 357/357/357 331/331/331
f 358/358/358 356/356/356 324/324/324
f 331/331/331 357/357/357 329/329/329
f 325/325/325 358/358/358 324/324/324
f 357/357/357 359/359/359 329/329/329
f 360/360/360 358/358/358 325/325/325
f 329/329/329 359/359/359 327/327/327
f 326/326/326 360/360/360 325/325/325
f 359/359/359 361/361/361 327/327/327
f 361/361/361 360/360/360 326/326/326
f 327/327/327 361/361/361 326/326/326
f 364/364/364 363/363/363 362/362/362
f 362/362/362 363/363/363 365/365/365
f 366/366/366 364/364/364 362/362/362
f 363/363/363 367/367/367 365/365/365
f 368/368/368 364/364/364 366/366/366
f 365/365/365 367/367/367 369/369/369
f 370/370/370 368/368/368 366/366/366
f 367/367/367 371/371/371 369/369/369
f 372/372/372 368/368/368 370/370/370
f 369/369/369 371/371/371 373/373/373
f 374/374/374 372/372/372 370/370/370
f 371/371/371 375/375/375 373/373/373
f 376/376/376 372/372/372 374/374/374
f 373/373/373 375/375/375 377/377/377
f 378/378/378 376/376/376 374/374/374
f 375/375/375 379/379/379 377/377/377
f 380/380/380 376/376/376 378/378/378
f 377/377/377 379/379/379 381/381/381
f 382/382/382 380/380/380 378/378/378
f 379/379/379 383/383/383 381/381/381
f 384/384/384 380/380/380 382/382/382
f 381/381/381 383/383/383 385/385/385
f 386/386/386 384/384/384 382/382/382
f 383/383/383 387/387/387 385/385/385
f 388/388/388 384/384/384 386/386/386
f 385/385/385 387/387/387 389/389/389
f 390/390/390 388/388/388 386/386/386
f 387/387/387 391/391/391 389/389/389
f 392/392/392 388/388/388 390/390/390
f 389/389/389 391/391/391 393/393/393
f 394/394/394 392/392/392 390/390/390
f 391/391/391 395/395/395 393/393/393
f 396/396/396 392/392/392 394/394/394
f 393/393/393 395/395/395 397/397/397
f 398/398/398 396/396/396 394/394/394
f 395/395/395 399/399/399 397/397/397
f 400/400/400 396/396/396 398/398/398
f 397/397/397 399/399/399 401/401/401
f 401/401/401 400/400/400 398/398/398
f 399/399/399 400/400/400 401/401/401
f 404/404/404 403/403/403 402/402/402
f 402/402/402 403/403/403 405/405/405
f 406/406/406 404/404/404 402/402/402
f 403/403/403 407/407/407 405/405/405
f 408/408/408 404/404/404 406/406/406
f 405/405/405 407/407/407 409/409/409
f 410/410/410 408/408/408 406/406/406
f 407/407/407 411/411/411 409/409/409
f 412/412/412 408/408/408 410/410/410
f 409/409/409 411/411/411 413/413/413
f 414/414/414 412/412/412 410/410/410
f 411/411/411 415/415/415 413/413/413
f 416/416/416 412/412/412 414/414/414
f 413/413/413 415/415/415 417/417/417
f 418/418/418 416/416/416 414/414/414
f 415/415/415 419/419/419 417/417/417
f 420/420/420 416/416/416 418/418/418
f 417/417/417 419/419/419 421/421/421
f 422/422/422 420/420/420 418/418/418
f 419/419/419 423/423/423 421/421/421
f 424/424/424 420/420/420 422/422/422
f 421/421/421 423/423/423 425/425/425
f 426/426/426 424/424/424 422/422/422
f 423/423/423 427/427/427 425/425/425
f 428/428/428 424/424/424 426/426/426
f 425/425/425 427/427/427 429/429/429
f 430/430/430 428/428/428 426/426/426
f 427/427/427 431/431/431 429/429/429
f 432/432/432 428/428/428 430/430/430
f 429/429/429 431/431/431 433/433/433
f 434/434/434 432/432/432 430/430/430
f 431/431/431 435/435/435 433/433/433
f 436/436/436 432/432/432 434/434/434
f 433/433/433 435/435/435 437/437/437
f 438/438/438 436/436/436 434/434/434
f 435/435/435 439/439/439 437/437/437
f 440/440/440 436/436/436 438/438/438
f 437/437/437 439/439/439 441/441/441
f 441/441/441 440/440/440 438/438/438
f 439/439/439 440/440/440 441/441/441
