g windows_inside
v -1.73535419 -2.98721504 6.71837139
v -1.73535442 -2.77495408 6.68162346
v -2.91905046 -3.05638289 4.01222181
v -2.91905022 -3.26864386 4.04897022
v -2.91905022 -3.26864386 4.04897022
v -2.91905046 -3.05638289 4.01222181
v 1.10291791 -3.05685878 4.00771236
v 1.10291791 -3.26911974 4.04446077
v 1.10291791 -3.26911974 4.04446077
v 1.10291791 -3.05685878 4.00771236
v 1.1056962 -2.77495456 6.68162346
v 1.1056962 -2.98721528 6.71837139
v 1.1056962 -2.98721528 6.71837139
v 1.1056962 -2.77495456 6.68162346
v -1.73535442 -2.77495408 6.68162346
v -1.73535419 -2.98721504 6.71837139
v -2.91748643 4.55510139 4.03274155
v -2.91748643 4.35639572 4.0143671
v -1.73535371 4.07325602 6.69999695
v -1.73535371 4.27196169 6.71837091
v -1.73535371 4.27196169 6.71837091
v -1.73535371 4.07325602 6.69999695
v 1.10569358 4.07325602 6.69999695
v 1.10569346 4.27196169 6.71837091
v 1.10569346 4.27196169 6.71837091
v 1.10569358 4.07325602 6.69999695
v 1.10459113 4.3555665 4.02223969
v 1.10459113 4.55427217 4.04061413
v 1.10459113 4.55427217 4.04061413
v 1.10459113 4.3555665 4.02223969
v -2.91748643 4.35639572 4.0143671
v -2.91748643 4.55510139 4.03274155
v 5.40742922 -3.26823664 4.05283546
v 5.4074297 -3.04788303 4.02527428
v 5.40428877 -2.76686215 6.6908102
v 5.40428782 -2.98721528 6.71837187
v 5.40428782 -2.98721528 6.71837187
v 5.40428877 -2.76686215 6.6908102
v 1.82826662 -2.76686215 6.69080973
v 1.8282665 -2.98721528 6.71837139
v 1.8282665 -2.98721528 6.71837139
v 1.82826662 -2.76686215 6.69080973
v 1.8249408 -3.04809499 4.02326965
v 1.82494068 -3.26844811 4.05083132
v 1.82494068 -3.26844811 4.05083132
v 1.8249408 -3.04809499 4.02326965
v 5.4074297 -3.04788303 4.02527428
v 5.40742922 -3.26823664 4.05283546
v 7.27321053 0.291874886 6.72716713
v 7.14423847 0.291874886 6.72716713
v 7.14423847 -2.63384676 6.72716713
v 7.27321053 -2.63384676 6.72716713
v 7.27321053 -2.63384676 6.72716713
v 7.14423847 -2.63384676 6.72716713
v 7.1442399 -2.90293264 4.08419371
v 7.27321196 -2.90293264 4.08419371
v 7.27321196 -2.90293264 4.08419371
v 7.1442399 -2.90293264 4.08419371
v 7.1442399 0.291874886 4.08419323
v 7.27321196 0.291874886 4.08419323
v 7.27321196 0.291874886 4.08419323
v 7.1442399 0.291874886 4.08419323
v 7.14423847 0.291874886 6.72716713
v 7.27321053 0.291874886 6.72716713
v 7.27321148 4.18768024 4.08419323
v 7.14423704 4.18768024 4.08419371
v 7.14423656 3.91859412 6.72716665
v 7.27321053 3.91859388 6.72716665
v 7.27321053 3.91859388 6.72716665
v 7.14423656 3.91859412 6.72716665
v 7.14423656 0.992871642 6.72716713
v 7.27321053 0.992871523 6.72716713
v 7.27321053 0.992871523 6.72716713
v 7.14423656 0.992871642 6.72716713
v 7.14423704 0.992871642 4.08419371
v 7.27321148 0.992871642 4.08419323
v 7.27321148 0.992871642 4.08419323
v 7.14423704 0.992871642 4.08419371
v 7.14423704 4.18768024 4.08419371
v 7.27321148 4.18768024 4.08419323
v 1.82826471 4.27196169 6.71837091
v 1.82826471 4.09767866 6.69999647
v 5.4042902 4.09767914 6.69999647
v 5.4042902 4.27196217 6.71837091
v 5.4042902 4.27196217 6.71837091
v 5.4042902 4.09767914 6.69999647
v 5.40408802 4.37975883 4.02442455
v 5.40408802 4.55404186 4.042799
v 5.40408802 4.55404186 4.042799
v 5.40408802 4.37975883 4.02442455
v 1.82854271 4.37977409 4.02427626
v 1.82854271 4.55405712 4.0426507
v 1.82854271 4.55405712 4.0426507
v 1.82854271 4.37977409 4.02427626
v 1.82826471 4.09767866 6.69999647
v 1.82826471 4.27196169 6.71837091
vt 0.5 1
vt 0.5 1
vt 0.0147870323 0.993154943
vt 0.0147870323 0.993154943
vt 0.0147870323 0.993154943
vt 0.0147870323 0.993154943
vt 0.512944937 0.762553036
vt 0.512944937 0.762553036
vt 0.512944937 0.762553036
vt 0.512944937 0.762553036
vt 0.731331885 1
vt 0.731331885 1
vt 0.731331885 1
vt 0.731331885 1
vt 0.5 1
vt 0.5 1
vt 0.990324199 0.995025516
vt 0.990324199 0.995025516
vt 0.5 1
vt 0.5 1
vt 0.5 1
vt 0.5 1
vt 0.295019448 1
vt 0.295019448 1
vt 0.295019448 1
vt 0.295019448 1
vt 0.555379152 0.771412492
vt 0.555379152 0.771412492
vt 0.555379152 0.771412492
vt 0.555379152 0.771412492
vt 0.990324199 0.995025516
vt 0.990324199 0.995025516
vt 0.851636946 0.605769455
vt 0.851636946 0.605769455
vt 0.919877589 1
vt 0.919877589 1
vt 0.919877589 1
vt 0.919877589 1
vt 0.731331885 1
vt 0.731331885 1
vt 0.731331885 1
vt 0.731331885 1
vt 0.539016426 0.750484347
vt 0.539016426 0.750484347
vt 0.539016426 0.750484347
vt 0.539016426 0.750484347
vt 0.851636946 0.605769455
vt 0.851636946 0.605769455
vt 0.5 1
vt 0.5 1
vt 0 1
vt 0 1
vt 0 1
vt 0 1
vt 0 0.537090838
vt 0 0.537090838
vt 0 0.537090838
vt 0 0.537090838
vt 0.5 0.511486411
vt 0.5 0.511486411
vt 0.5 0.511486411
vt 0.5 0.511486411
vt 0.5 1
vt 0.5 1
vt 1 0.485882044
vt 1 0.485882044
vt 1 1
vt 1 1
vt 1 1
vt 1 1
vt 0.5 1
vt 0.5 1
vt 0.5 1
vt 0.5 1
vt 0.5 0.511486411
vt 0.5 0.511486411
vt 0.5 0.511486411
vt 0.5 0.511486411
vt 1 0.485882044
vt 1 0.485882044
vt 0.295019448 1
vt 0.295019448 1
vt 0.0653113425 1
vt 0.0653113425 1
vt 0.0653113425 1
vt 0.0653113425 1
vt 0.131678969 0.553580582
vt 0.131678969 0.553580582
vt 0.131678969 0.553580582
vt 0.131678969 0.553580582
vt 0.526680171 0.756657839
vt 0.526680171 0.756657839
vt 0.526680171 0.756657839
vt 0.526680171 0.756657839
vt 0.295019448 1
vt 0.295019448 1
vn 0.914652646 -0.0689583719 -0.398315489
vn 0.914652646 -0.0689583793 -0.398315519
vn 0.914652646 -0.0689583719 -0.398315489
vn 0.914652646 -0.0689583793 -0.398315489
vn 0.00112495362 0.170590609 0.98534137
vn 0.00112495362 0.170590609 0.98534137
vn 0.00112495362 0.170590594 0.98534137
vn 0.00112495362 0.170590609 0.98534137
vn -0.999999523 0.000176661226 0.00102041138
vn -0.999999523 0.000176661226 0.00102041138
vn -0.999999523 0.000176661226 0.00102041138
vn -0.999999523 0.000176661211 0.00102041138
vn -0 -0.170588672 -0.985342383
vn -0 -0.170588672 -0.985342383
vn -0 -0.170588672 -0.985342383
vn -0 -0.170588672 -0.985342383
vn 0.91606319 0.0369257778 -0.399330258
vn 0.91606319 0.0369257778 -0.399330199
vn 0.91606319 0.0369257741 -0.399330199
vn 0.91606319 0.0369257741 -0.399330229
vn -0 0.0920754373 -0.995751977
vn -0 0.0920754373 -0.995751977
vn -0 0.0920754299 -0.995751977
vn -0 0.0920754373 -0.995751977
vn -1 -3.79975718E-05 0.000407677377
vn -1 -3.79975718E-05 0.000407677377
vn -1 -3.79975718E-05 0.000407677406
vn -1 -3.79975681E-05 0.000407677406
vn -0.00196800614 -0.0920776352 0.995749831
vn -0.0019680066 -0.0920776427 0.995749831
vn -0.00196800614 -0.0920776352 0.995749831
vn -0.0019680066 -0.0920776427 0.995749831
vn -0.999999285 -0.00014227457 -0.00116343575
vn -0.999999285 -0.00014227457 -0.00116343575
vn -0.999999285 -0.000142274555 -0.00116343575
vn -0.999999285 -0.000142274555 -0.00116343575
vn -0 -0.124112412 -0.992268145
vn -0 -0.124112427 -0.992268145
vn -0 -0.124112412 -0.992268145
vn -0 -0.124112412 -0.992268145
vn 0.999999285 -0.000154449852 -0.0012304897
vn 0.999999285 -0.000154449852 -0.00123048981
vn 0.999999285 -0.000154449852 -0.0012304897
vn 0.999999285 -0.000154449852 -0.00123048981
vn -0.000562503701 0.12411125 0.992268145
vn -0.000562503701 0.12411125 0.992268145
vn -0.000562503701 0.12411125 0.992268145
vn -0.000562503701 0.124111235 0.992268145
vn -0 0 -1
vn -0 0 -1
vn -0 0 -1
vn -0 0 -1
vn -0 0.994857192 -0.101288199
vn -0 0.994857192 -0.101288199
vn -0 0.994857192 -0.101288199
vn -0 0.994857192 -0.101288199
vn -0 0 1
vn -0 0 1
vn -0 0 1
vn -0 0 1
vn -0 -1 0
vn -0 -1 0
vn -0 -1 0
vn -0 -1 0
vn -0 -0.994857073 -0.101288348
vn -0 -0.994857073 -0.101288341
vn -0 -0.994857073 -0.101288341
vn -0 -0.994857073 -0.101288341
vn -0 0 -1
vn -0 0 -1
vn -0 0 -1
vn -0 0 -1
vn -0 1 0
vn -0 1 0
vn -0 1 0
vn -0 1 0
vn -0 0 1
vn -0 0 1
vn -0 0 1
vn -0 0 1
vn -0 0.104847655 -0.994488299
vn -0 0.104847662 -0.994488299
vn -0 0.104847655 -0.994488299
vn -0 0.104847662 -0.994488299
vn -1 0 7.47340964E-05
vn -1 0 7.47340891E-05
vn -1 0 7.47340964E-05
vn -1 0 7.47340891E-05
vn -4.16939511E-05 -0.104847655 0.994488299
vn -4.16939474E-05 -0.104847662 0.994488299
vn -4.16939511E-05 -0.104847655 0.994488299
vn -4.16939474E-05 -0.104847662 0.994488299
vn 1 -1.08332342E-05 0.000102753671
vn 1 -1.08332351E-05 0.000102753664
vn 1 -1.08332342E-05 0.000102753671
vn 1 -1.08332351E-05 0.000102753664
g windows_inside_0
f 3/3/3 2/2/2 1/1/1
f 4/4/4 3/3/3 1/1/1
f 7/7/7 6/6/6 5/5/5
f 8/8/8 7/7/7 5/5/5
f 11/11/11 10/10/10 9/9/9
f 12/12/12 11/11/11 9/9/9
f 15/15/15 14/14/14 13/13/13
f 16/16/16 15/15/15 13/13/13
f 19/19/19 18/18/18 17/17/17
f 20/20/20 19/19/19 17/17/17
f 23/23/23 22/22/22 21/21/21
f 24/24/24 23/23/23 21/21/21
f 27/27/27 26/26/26 25/25/25
f 28/28/28 27/27/27 25/25/25
f 31/31/31 30/30/30 29/29/29
f 32/32/32 31/31/31 29/29/29
f 35/35/35 34/34/34 33/33/33
f 36/36/36 35/35/35 33/33/33
f 39/39/39 38/38/38 37/37/37
f 40/40/40 39/39/39 37/37/37
f 43/43/43 42/42/42 41/41/41
f 44/44/44 43/43/43 41/41/41
f 47/47/47 46/46/46 45/45/45
f 48/48/48 47/47/47 45/45/45
f 51/51/51 50/50/50 49/49/49
f 52/52/52 51/51/51 49/49/49
f 55/55/55 54/54/54 53/53/53
f 56/56/56 55/55/55 53/53/53
f 59/59/59 58/58/58 57/57/57
f 60/60/60 59/59/59 57/57/57
f 63/63/63 62/62/62 61/61/61
f 64/64/64 63/63/63 61/61/61
f 67/67/67 66/66/66 65/65/65
f 68/68/68 67/67/67 65/65/65
f 71/71/71 70/70/70 69/69/69
f 72/72/72 71/71/71 69/69/69
f 75/75/75 74/74/74 73/73/73
f 76/76/76 75/75/75 73/73/73
f 79/79/79 78/78/78 77/77/77
f 80/80/80 79/79/79 77/77/77
f 83/83/83 82/82/82 81/81/81
f 84/84/84 83/83/83 81/81/81
f 87/87/87 86/86/86 85/85/85
f 88/88/88 87/87/87 85/85/85
f 91/91/91 90/90/90 89/89/89
f 92/92/92 91/91/91 89/89/89
f 95/95/95 94/94/94 93/93/93
f 96/96/96 95/95/95 93/93/93
